<svg xmlns="http://www.w3.org/2000/svg" xmlns:xlink="http://www.w3.org/1999/xlink" xmlns:lucid="lucid" width="1264.07" height="1011.21"><g transform="translate(-263.10377576578685 -104.03253692417314)" lucid:page-tab-id="0_0"><path d="M0 0h1870.87v1322.83H0z" fill="#fff"/><path d="M876.96 652.88h280v60h-280z" stroke="#000" stroke-width="3" fill="#fff"/><use xlink:href="#a" transform="matrix(1,0,0,1,888.9617235010688,664.8818801999337) translate(103.95679012345678 22.27777777777778)"/><path d="M800.1 1060.06c0-3.3 2.68-6 6-6h66c3.3 0 6 2.7 6 6v28.67c0 3.3-2.7 6-6 6h-66c-3.32 0-6-2.7-6-6z" stroke="#000" stroke-opacity="0" stroke-width="3" fill="#fff" fill-opacity="0"/><use xlink:href="#b" transform="matrix(1,0,0,1,805.0944824606693,1059.0632163822154) translate(12.925925925925927 19.71527777777778)"/><path d="M1157.96 455.5v-240l-72 48v144z" stroke="#000" stroke-width="3" fill="#fff"/><path d="M1181.96 455.5h-120v-240h120z" fill="none"/><path d="M1085.96 335.5h-24M1121.96 239.5v-24M1157.96 389.5h24zM1157.96 281.5h24zM1078.1 856.74h113.38v113.38h-113.4z" stroke="#000" stroke-width="3" fill="#fff"/><use xlink:href="#c" transform="matrix(1,0,0,1,1083.0944824606693,861.7378463943022) translate(25.425925925925952 76.13888888888881)"/><path d="M1362.1 739.43v240l72-48v-144z" stroke="#000" stroke-width="3" fill="#fff"/><path d="M1338.1 739.43h120v240h-120z" fill="none"/><path d="M1434.1 859.43h24M1398.1 955.43v24M1362.1 805.43h-24zM1362.1 913.43h-24z" stroke="#000" stroke-width="3" fill="#fff"/><path d="M1194.48 913.43h83.4c.04 0 .06.03.06.06 0 .02.03.05.06.05h82.18" stroke="#000" stroke-width="3" fill="none"/><path d="M1194.52 914.93h-1.54v-3h1.54"/><path d="M1342.74 923.73l17.22-10.18-17.22-10.2M1459.6 859.43h17.24V389.5h-316.1" stroke="#000" stroke-width="3" fill="none"/><path d="M1459.63 860.93h-1.54v-3h1.53"/><path d="M1178.16 379.32l-17.2 10.18 17.2 10.18M1159.28 281.5h109.05M1176.7 271.32l-17.2 10.18 17.2 10.18" stroke="#000" stroke-width="3" fill="none"/><path d="M1269.83 283h-1.53v-3h1.53"/><path d="M1016.3 554.6v47.3c0 .2.15.34.33.34.18 0 .33.15.33.33v46.08" stroke="#000" stroke-width="3" fill="none"/><path d="M1016.18 553.12l1.62-.27v1.8h-3v-1.98"/><path d="M1006.78 631.22l10.18 17.22 10.18-17.22M1060.46 335.5h-44.16V538.5" stroke="#000" stroke-width="3" fill="none"/><path d="M1061.96 337h-1.54v-3h1.54M1017.8 540.4l-1.4-.44-1.6.27v-1.8h3"/><path d="M1360.2 805.46h-45.1v-38.92h-290.74" stroke="#000" stroke-width="3" fill="none"/><path d="M1342.77 815.64l17.2-10.18-17.2-10.18" stroke="#000" stroke-width="3" fill="none"/><path d="M1024.4 768.04h-1.97l.45-1.4-.27-1.6h1.8"/><path d="M1073.87 942.94h-55.4M1056.43 953.12l17.22-10.18-17.22-10.2" stroke="#000" stroke-width="3" fill="none"/><path d="M1018.5 944.44h-1.54v-3h1.54"/><path d="M1071.96 130.03c0-3.3 2.7-6 6-6h88c3.32 0 6 2.7 6 6v28c0 3.32-2.68 6-6 6h-88c-3.3 0-6-2.68-6-6z" stroke="#000" stroke-opacity="0" stroke-width="3" fill="#fff" fill-opacity="0"/><use xlink:href="#d" transform="matrix(1,0,0,1,1076.9621357308386,129.03253692417314) translate(8.024691358024697 19.65277777777778)"/><path d="M1269.83 274.23c0-3.3 2.7-6 6-6h107.7c3.32 0 6 2.7 6 6v16.62c0 3.3-2.68 6-6 6h-107.7c-3.3 0-6-2.7-6-6z" stroke="#000" stroke-opacity="0" stroke-width="3" fill="#fff" fill-opacity="0"/><use xlink:href="#e" transform="matrix(1,0,0,1,1274.833488027897,273.2301096695334) translate(2.5308641975308532 17.77777777777778)"/><path d="M896.96 928.94c0-3.32 2.7-6 6-6h108c3.32 0 6 2.68 6 6v28c0 3.3-2.68 6-6 6h-108c-3.3 0-6-2.7-6-6z" stroke="#000" stroke-opacity="0" stroke-width="3" fill="#fff" fill-opacity="0"/><use xlink:href="#f" transform="matrix(1,0,0,1,901.9617235010688,927.9353580843544) translate(2.5308641975308532 19.65277777777778)"/><path d="M1134.8 852.5V815.5M1124.6 835.08l10.2 17.2 10.17-17.2" stroke="#000" stroke-width="3" fill="none"/><path d="M1136.3 815.52h-3v-1.54h3"/><path d="M1134.8 973.12v39.7s0 .02.02.02.03.02.03.03v38.47" stroke="#000" stroke-width="3" fill="none"/><path d="M1136.3 973.16h-3v-1.54h3"/><path d="M1124.67 1033.9l10.18 17.22 10.18-17.22" stroke="#000" stroke-width="3" fill="none"/><path d="M1095.85 1060.06c0-3.3 2.7-6 6-6h66c3.3 0 6 2.7 6 6v29.18c0 3.32-2.7 6-6 6h-66c-3.3 0-6-2.68-6-6z" stroke="#000" stroke-opacity="0" stroke-width="3" fill="#fff" fill-opacity="0"/><use xlink:href="#g" transform="matrix(1,0,0,1,1100.8500218274085,1059.0632163822156) translate(3.1111111111111143 19.77777777777778)"/><path d="M1124.8 791.98c0-3.3 2.7-6 6-6h8c3.3 0 6 2.7 6 6v16c0 3.3-2.7 6-6 6h-8c-3.3 0-6-2.7-6-6z" stroke="#000" stroke-opacity="0" stroke-width="3" fill="#fff" fill-opacity="0"/><use xlink:href="#h" transform="matrix(1,0,0,1,1129.7988008307511,790.9804407432399) translate(-1.1728395061728394 17.77777777777778)"/><path d="M629.96 1060.73c0-3.3 2.68-6 6-6h66c3.3 0 6 2.7 6 6v28c0 3.3-2.7 6-6 6h-66c-3.32 0-6-2.7-6-6z" stroke="#000" stroke-opacity="0" stroke-width="3" fill="#fff" fill-opacity="0"/><use xlink:href="#i" transform="matrix(1,0,0,1,634.9587019037218,1059.7298830488821) translate(4.932098765432102 19.65277777777778)"/><path d="M1338.1 1045.52c0-3.3 2.68-6 6-6h108c3.3 0 6 2.7 6 6v29.18c0 3.32-2.7 6-6 6h-108c-3.32 0-6-2.68-6-6z" stroke="#000" stroke-opacity="0" stroke-width="3" fill="#fff" fill-opacity="0"/><use xlink:href="#j" transform="matrix(1,0,0,1,1343.0944824606695,1044.5219733751073) translate(-53.91975308641973 20.444444444444443)"/><path d="M1398.12 957.4v39.7h-.03v40.92" stroke="#000" stroke-width="3" fill="none"/><path d="M1408.3 974.84l-10.18-17.2-10.18 17.2" stroke="#000" stroke-width="3" fill="none"/><path d="M1399.6 1039.52h-3v-1.54h3"/><path d="M1016.3 758.48V737.5c0-.17.15-.32.33-.32.18 0 .33-.15.33-.33v-20.97" stroke="#000" stroke-width="3" fill="none"/><path d="M1017.8 760.4l-1.4-.44-1.6.27v-1.8h3M1018.46 715.92h-3v-1.54h3"/><path d="M1073.87 885.15h-57.57V774.6" stroke="#000" stroke-width="3" fill="none"/><path d="M1056.43 895.33l17.22-10.18-17.22-10.18" stroke="#000" stroke-width="3" fill="none"/><path d="M1016.18 773.12l1.62-.27v1.8h-3v-1.98"/><path d="M1021.34 546.54c0 2.78-2.26 5.04-5.04 5.04-2.8 0-5.04-2.26-5.04-5.04 0-2.78 2.25-5.04 5.04-5.04 2.78 0 5.04 2.26 5.04 5.04zM1021.34 766.54c0 2.78-2.26 5.04-5.04 5.04-2.8 0-5.04-2.26-5.04-5.04 0-2.78 2.25-5.04 5.04-5.04 2.78 0 5.04 2.26 5.04 5.04z" stroke="#000" stroke-width="3"/><path d="M789.96 820.38h-240l48 72h144z" stroke="#000" stroke-width="3" fill="#fff"/><path d="M789.96 796.38v120h-240v-120z" fill="none"/><path d="M669.96 892.38v24M573.96 856.38h-24M723.96 820.38v-24zM615.96 820.38v-24z" stroke="#000" stroke-width="3" fill="#fff"/><path d="M669.96 917.88V1052" stroke="#000" stroke-width="3" fill="none"/><path d="M671.46 917.92h-3v-1.54h3"/><path d="M659.78 1034.57l10.18 17.2 10.18-17.2M724 819.4V684.33h.1v-137.8h284.14" stroke="#000" stroke-width="3" fill="none"/><path d="M713.82 801.97l10.18 17.2 10.18-17.2" stroke="#000" stroke-width="3" fill="none"/><path d="M1009.72 546.42l.27 1.62h-1.8v-3h1.97"/><path d="M615.94 818.9V779h.02v-41.12" stroke="#000" stroke-width="3" fill="none"/><path d="M605.76 801.47l10.18 17.2 10.18-17.2" stroke="#000" stroke-width="3" fill="none"/><path d="M617.46 737.92h-3v-1.54h3"/><path d="M283.1 843.94c0-3.3 2.7-6 6-6h233.16c3.3 0 6 2.7 6 6v24.8c0 3.32-2.7 6-6 6H289.1c-3.3 0-6-2.68-6-6z" stroke="#000" stroke-opacity="0" stroke-width="3" fill="#fff" fill-opacity="0"/><use xlink:href="#j" transform="matrix(1,0,0,1,288.10377576578685,842.9404917721084) translate(9.080246913580268 19.46527777777778)"/><path d="M572.48 856.34h-42.72M555.05 866.52l17.2-10.18-17.2-10.18" stroke="#000" stroke-width="3" fill="none"/><path d="M529.8 857.84h-1.54v-3h1.54"/><path d="M555.96 702.38c0-3.32 2.68-6 6-6h108c3.3 0 6 2.68 6 6v28c0 3.3-2.7 6-6 6h-108c-3.32 0-6-2.7-6-6z" stroke="#000" stroke-opacity="0" stroke-width="3" fill="#fff" fill-opacity="0"/><use xlink:href="#k" transform="matrix(1,0,0,1,560.9587019037215,701.378050401212) translate(2.5308641975308532 19.65277777777778)"/><path d="M1149.47 265.43c3.3 0 6 2.68 6 6V399.6c0 3.3-2.7 6-6 6h-18.67c-3.3 0-6-2.7-6-6V271.42c0-3.32 2.7-6 6-6z" stroke="#000" stroke-opacity="0" stroke-width="3" fill="#fff" fill-opacity="0"/><use xlink:href="#l" transform="matrix(6.123233995736766e-17,1,-1,6.123233995736766e-17,1150.4654674974179,270.42619576291554) translate(6.8580246913580325 17.77777777777778)"/><use xlink:href="#m" transform="matrix(6.123233995736766e-17,1,-1,6.123233995736766e-17,1150.4654674974179,270.42619576291554) translate(111.79629629629628 17.77777777777778)"/><use xlink:href="#n" transform="matrix(6.123233995736766e-17,1,-1,6.123233995736766e-17,1150.4654674974179,270.42619576291554) translate(40.870370370370374 44.44444444444444)"/><path d="M598.56 829.28c0-3.3 2.68-6 6-6h128.16c3.3 0 6 2.7 6 6v18.67c0 3.3-2.7 6-6 6H604.56c-3.32 0-6-2.7-6-6z" stroke="#000" stroke-opacity="0" stroke-width="3" fill="#fff" fill-opacity="0"/><use xlink:href="#o" transform="matrix(1,0,0,1,603.5553059148199,828.2845551203177) translate(6.8580246913580325 17.77777777777778)"/><use xlink:href="#p" transform="matrix(1,0,0,1,603.5553059148199,828.2845551203177) translate(111.79629629629628 17.77777777777778)"/><use xlink:href="#q" transform="matrix(1,0,0,1,603.5553059148199,828.2845551203177) translate(40.870370370370374 44.44444444444444)"/><path d="M1369.96 929.17c-3.3 0-6-2.68-6-6V795c0-3.3 2.7-6 6-6h18.67c3.3 0 6 2.7 6 6v128.17c0 3.32-2.7 6-6 6z" stroke="#000" stroke-opacity="0" stroke-width="3" fill="#fff" fill-opacity="0"/><use xlink:href="#o" transform="matrix(6.123233995736766e-17,-1,1,6.123233995736766e-17,1368.9625244897898,924.1746038531642) translate(6.8580246913580325 17.77777777777778)"/><use xlink:href="#p" transform="matrix(6.123233995736766e-17,-1,1,6.123233995736766e-17,1368.9625244897898,924.1746038531642) translate(111.79629629629628 17.77777777777778)"/><use xlink:href="#q" transform="matrix(6.123233995736766e-17,-1,1,6.123233995736766e-17,1368.9625244897898,924.1746038531642) translate(40.870370370370374 44.44444444444444)"/><path d="M875.46 681.46h-4.25v-.1h-32.1v371.2" stroke="#000" stroke-width="3" fill="none"/><path d="M898.48 681.46l-21.52 12.73v-25.46z" stroke="#000" stroke-width="3" fill="#fff"/><path d="M840.6 1054.06h-3v-1.54h3"/><path d="M717.63 644.64l10.83-21.8M717.65 644.6l-.7 1.38M728.44 622.88l.7-1.38M1011.34 749.3l10.83-21.8M1011.36 749.27l-.7 1.38M1022.16 727.54l.68-1.37M1272.15 923.27l10.83-21.8M1272.16 923.23l-.68 1.38M1282.96 901.5l.7-1.37M1011.17 612.1l10.83-21.8M1011.18 612.08l-.68 1.37M1021.98 590.35l.7-1.38M664.54 962.57l10.83-21.8M664.56 962.54l-.7 1.38M675.36 940.8l.68-1.37M1011.44 483.77l10.83-21.8M1011.45 483.73l-.68 1.38M1022.25 462l.7-1.37M1470.92 579.8l10.83-21.8M1470.93 579.76l-.68 1.38M1481.73 558.03l.7-1.37M1156.5 777.34l10.85-21.8M1156.53 777.3l-.68 1.38M1167.33 755.58l.68-1.38M1129.4 1011.54l10.84-21.8M1129.42 1011.5l-.68 1.38M1140.22 989.77l.7-1.37" stroke="#000" stroke-width="3" fill="none"/><path d="M1107.98 993.8c0-3.33 2.7-6 6-6h4.82c3.3 0 6 2.67 6 6v18.7c0 3.33-2.7 6-6 6h-4.82c-3.3 0-6-2.67-6-6z" stroke="#000" stroke-opacity="0" stroke-width="3" fill="#fff" fill-opacity="0"/><use xlink:href="#r" transform="matrix(1,0,0,1,1112.9842483817765,992.7871663622487) translate(-2.6728395061728394 17.77777777777778)"/><path d="M994.63 455.17c0-3.32 2.68-6 6-6h4.8c3.33 0 6 2.68 6 6v18.72c0 3.3-2.67 6-6 6h-4.8c-3.32 0-6-2.7-6-6z" stroke="#000" stroke-opacity="0" stroke-width="3" fill="#fff" fill-opacity="0"/><use xlink:href="#s" transform="matrix(1,0,0,1,999.6283901677355,454.16587025750647) translate(-2.6728395061728394 17.77777777777778)"/><path d="M702.26 617.03c0-3.3 2.7-6 6-6h4.82c3.3 0 6 2.7 6 6v18.73c0 3.3-2.7 6-6 6h-4.82c-3.3 0-6-2.7-6-6z" stroke="#000" stroke-opacity="0" stroke-width="3" fill="#fff" fill-opacity="0"/><use xlink:href="#t" transform="matrix(1,0,0,1,707.2632345815714,616.0303569675019) translate(-2.6728395061728394 17.77777777777778)"/><path d="M988.63 813.25c0-3.3 2.68-6 6-6h4.8c3.32 0 6 2.7 6 6v18.72c0 3.32-2.68 6-6 6h-4.8c-3.32 0-6-2.68-6-6z" stroke="#000" stroke-opacity="0" stroke-width="3" fill="#fff" fill-opacity="0"/><use xlink:href="#t" transform="matrix(1,0,0,1,993.6253685703884,812.2491326058919) translate(-2.6728395061728394 17.77777777777778)"/><path d="M1272.96 874.17c0-3.32 2.7-6 6-6h4.82c3.3 0 6 2.68 6 6v18.72c0 3.3-2.7 6-6 6h-4.82c-3.3 0-6-2.7-6-6z" stroke="#000" stroke-opacity="0" stroke-width="3" fill="#fff" fill-opacity="0"/><use xlink:href="#t" transform="matrix(1,0,0,1,1277.9617235010692,873.1658702575065) translate(-2.6728395061728394 17.77777777777778)"/><path d="M1145.46 743c0-3.3 2.7-6 6-6h4.82c3.3 0 6 2.7 6 6v18.73c0 3.3-2.7 6-6 6h-4.82c-3.3 0-6-2.7-6-6z" stroke="#000" stroke-opacity="0" stroke-width="3" fill="#fff" fill-opacity="0"/><g><use xlink:href="#t" transform="matrix(1,0,0,1,1150.4617235010687,741.9992035908398) translate(-2.6728395061728394 17.77777777777778)"/></g><path d="M1447.63 555.54c0-3.3 2.68-6 6-6h4.8c3.33 0 6 2.7 6 6v18.73c0 3.3-2.67 6-6 6h-4.8c-3.32 0-6-2.7-6-6z" stroke="#000" stroke-opacity="0" stroke-width="3" fill="#fff" fill-opacity="0"/><g><use xlink:href="#s" transform="matrix(1,0,0,1,1452.6283901677357,554.539886005538) translate(-2.6728395061728394 17.77777777777778)"/></g><path d="M1011.17 833.5l10.83-21.8M1011.18 833.46l-.68 1.37M1021.98 811.73l.7-1.38" stroke="#000" stroke-width="3" fill="none"/><path d="M651.42 937.27c0-3.32 2.68-6 6-6h4.8c3.33 0 6 2.68 6 6V956c0 3.3-2.67 6-6 6h-4.8c-3.32 0-6-2.7-6-6z" stroke="#000" stroke-opacity="0" stroke-width="3" fill="#fff" fill-opacity="0"/><g><use xlink:href="#t" transform="matrix(1,0,0,1,656.4183734136004,936.266330862469) translate(-2.6728395061728394 17.77777777777778)"/></g><path d="M988.63 727.5c0-3.3 2.68-6 6-6h4.8c3.32 0 6 2.7 6 6v18.73c0 3.3-2.68 6-6 6h-4.8c-3.32 0-6-2.7-6-6z" stroke="#000" stroke-opacity="0" stroke-width="3" fill="#fff" fill-opacity="0"/><g><use xlink:href="#s" transform="matrix(1,0,0,1,993.6253685703884,726.4992035908398) translate(-2.6728395061728394 17.77777777777778)"/></g><path d="M988.63 593.03c0-3.3 2.68-6 6-6h4.8c3.32 0 6 2.7 6 6v18.73c0 3.3-2.68 6-6 6h-4.8c-3.32 0-6-2.7-6-6z" stroke="#000" stroke-opacity="0" stroke-width="3" fill="#fff" fill-opacity="0"/><g><use xlink:href="#s" transform="matrix(1,0,0,1,993.6253685703884,592.0334534192294) translate(-2.6728395061728394 17.77777777777778)"/></g><path d="M1121.96 165.53v54.94c0 .02 0 .03-.03.03 0 0-.03 0-.03.03v17.8" stroke="#000" stroke-width="3" fill="none"/><path d="M1123.46 165.57h-3v-1.54h3"/><path d="M1111.72 220.9l10.18 17.22 10.2-17.22" stroke="#000" stroke-width="3" fill="none"/><defs><path d="M233-177c-1 41-23 64-60 70L243 0h-38l-65-103H63V0H30v-248c88 3 205-21 203 71zM63-129c60-2 137 13 137-47 0-61-80-42-137-45v92" id="u"/><path d="M30 0v-248h187v28H63v79h144v27H63v87h162V0H30" id="v"/><path d="M143 4C61 4 22-44 18-125c-5-107 100-154 193-111 17 8 29 25 37 43l-32 9c-13-25-37-40-76-40-61 0-88 39-88 99 0 61 29 100 91 101 35 0 62-11 79-27v-45h-74v-28h105v86C228-13 192 4 143 4" id="w"/><g id="a"><use transform="matrix(0.06172839506172839,0,0,0.06172839506172839,0,0)" xlink:href="#u"/><use transform="matrix(0.06172839506172839,0,0,0.06172839506172839,15.987654320987653,0)" xlink:href="#v"/><use transform="matrix(0.06172839506172839,0,0,0.06172839506172839,30.80246913580247,0)" xlink:href="#w"/></g><path d="M212-179c-10-28-35-45-73-45-59 0-87 40-87 99 0 60 29 101 89 101 43 0 62-24 78-52l27 14C228-24 195 4 139 4 59 4 22-46 18-125c-6-104 99-153 187-111 19 9 31 26 39 46" id="x"/><path d="M30 0v-248h33v221h125V0H30" id="y"/><path d="M194 0L95-120 63-95V0H30v-248h33v124l119-124h40L117-140 236 0h-42" id="z"/><g id="b"><use transform="matrix(0.06172839506172839,0,0,0.06172839506172839,0,0)" xlink:href="#x"/><use transform="matrix(0.06172839506172839,0,0,0.06172839506172839,15.987654320987653,0)" xlink:href="#y"/><use transform="matrix(0.06172839506172839,0,0,0.06172839506172839,28.333333333333332,0)" xlink:href="#z"/></g><path d="M118-107v75H92v-75H18v-26h74v-75h26v75h74v26h-74" id="A"/><use transform="matrix(0.25308641975308616,0,0,0.25308641975308616,0,0)" xlink:href="#A" id="c"/><path d="M185-189c-5-48-123-54-124 2 14 75 158 14 163 119 3 78-121 87-175 55-17-10-28-26-33-46l33-7c5 56 141 63 141-1 0-78-155-14-162-118-5-82 145-84 179-34 5 7 8 16 11 25" id="B"/><path d="M127-220V0H93v-220H8v-28h204v28h-85" id="C"/><g id="d"><use transform="matrix(0.06172839506172839,0,0,0.06172839506172839,0,0)" xlink:href="#u"/><use transform="matrix(0.06172839506172839,0,0,0.06172839506172839,15.987654320987653,0)" xlink:href="#v"/><use transform="matrix(0.06172839506172839,0,0,0.06172839506172839,30.80246913580247,0)" xlink:href="#B"/><use transform="matrix(0.06172839506172839,0,0,0.06172839506172839,45.61728395061728,0)" xlink:href="#v"/><use transform="matrix(0.06172839506172839,0,0,0.06172839506172839,60.43209876543209,0)" xlink:href="#C"/></g><path d="M101-251c68 0 85 55 85 127S166 4 100 4C33 4 14-52 14-124c0-73 17-127 87-127zm-1 229c47 0 54-49 54-102s-4-102-53-102c-51 0-55 48-55 102 0 53 5 102 54 102" id="D"/><path d="M33 0v-38h34V0H33" id="E"/><g id="e"><use transform="matrix(0.06172839506172839,0,0,0.06172839506172839,0,0)" xlink:href="#D"/><use transform="matrix(0.06172839506172839,0,0,0.06172839506172839,12.345679012345679,0)" xlink:href="#D"/><use transform="matrix(0.06172839506172839,0,0,0.06172839506172839,24.691358024691358,0)" xlink:href="#D"/><use transform="matrix(0.06172839506172839,0,0,0.06172839506172839,37.03703703703704,0)" xlink:href="#D"/><use transform="matrix(0.06172839506172839,0,0,0.06172839506172839,49.382716049382715,0)" xlink:href="#E"/><use transform="matrix(0.06172839506172839,0,0,0.06172839506172839,55.55555555555556,0)" xlink:href="#D"/><use transform="matrix(0.06172839506172839,0,0,0.06172839506172839,67.90123456790124,0)" xlink:href="#D"/><use transform="matrix(0.06172839506172839,0,0,0.06172839506172839,80.24691358024693,0)" xlink:href="#D"/><use transform="matrix(0.06172839506172839,0,0,0.06172839506172839,92.59259259259261,0)" xlink:href="#D"/></g><path d="M27 0v-27h64v-190l-56 39v-29l58-41h29v221h61V0H27" id="F"/><g id="f"><use transform="matrix(0.06172839506172839,0,0,0.06172839506172839,0,0)" xlink:href="#D"/><use transform="matrix(0.06172839506172839,0,0,0.06172839506172839,12.345679012345679,0)" xlink:href="#D"/><use transform="matrix(0.06172839506172839,0,0,0.06172839506172839,24.691358024691358,0)" xlink:href="#D"/><use transform="matrix(0.06172839506172839,0,0,0.06172839506172839,37.03703703703704,0)" xlink:href="#D"/><use transform="matrix(0.06172839506172839,0,0,0.06172839506172839,49.382716049382715,0)" xlink:href="#E"/><use transform="matrix(0.06172839506172839,0,0,0.06172839506172839,55.55555555555556,0)" xlink:href="#D"/><use transform="matrix(0.06172839506172839,0,0,0.06172839506172839,67.90123456790124,0)" xlink:href="#D"/><use transform="matrix(0.06172839506172839,0,0,0.06172839506172839,80.24691358024693,0)" xlink:href="#D"/><use transform="matrix(0.06172839506172839,0,0,0.06172839506172839,92.59259259259261,0)" xlink:href="#F"/></g><path d="M140-251c81 0 123 46 123 126C263-46 219 4 140 4 59 4 17-45 17-125s42-126 123-126zm0 227c63 0 89-41 89-101s-29-99-89-99c-61 0-89 39-89 99S79-25 140-24" id="G"/><path d="M232-93c-1 65-40 97-104 97C67 4 28-28 28-90v-158h33c8 89-33 224 67 224 102 0 64-133 71-224h33v155" id="H"/><g id="g"><use transform="matrix(0.06172839506172839,0,0,0.06172839506172839,0,0)" xlink:href="#x"/><use transform="matrix(0.06172839506172839,0,0,0.06172839506172839,15.987654320987653,0)" xlink:href="#G"/><use transform="matrix(0.06172839506172839,0,0,0.06172839506172839,33.2716049382716,0)" xlink:href="#H"/><use transform="matrix(0.06172839506172839,0,0,0.06172839506172839,49.25925925925925,0)" xlink:href="#C"/></g><use transform="matrix(0.06172839506172839,0,0,0.06172839506172839,0,0)" xlink:href="#D" id="h"/><path d="M190 0L58-211 59 0H30v-248h39L202-35l-2-213h31V0h-41" id="I"/><g id="i"><use transform="matrix(0.06172839506172839,0,0,0.06172839506172839,0,0)" xlink:href="#I"/><use transform="matrix(0.06172839506172839,0,0,0.06172839506172839,15.987654320987653,0)" xlink:href="#x"/><use transform="matrix(0.06172839506172839,0,0,0.06172839506172839,31.975308641975307,0)" xlink:href="#y"/><use transform="matrix(0.06172839506172839,0,0,0.06172839506172839,44.32098765432099,0)" xlink:href="#z"/></g><path d="M30-248c87 1 191-15 191 75 0 78-77 80-158 76V0H30v-248zm33 125c57 0 124 11 124-50 0-59-68-47-124-48v98" id="J"/><path d="M-5 72V49h209v23H-5" id="K"/><path d="M205 0l-28-72H64L36 0H1l101-248h38L239 0h-34zm-38-99l-47-123c-12 45-31 82-46 123h93" id="L"/><path d="M209 0H11v-25l151-195H24v-28h176v25L50-27h159V0" id="M"/><path d="M33 0v-248h34V0H33" id="N"/><g id="j"><use transform="matrix(0.06172839506172839,0,0,0.06172839506172839,0,0)" xlink:href="#B"/><use transform="matrix(0.06172839506172839,0,0,0.06172839506172839,14.814814814814813,0)" xlink:href="#C"/><use transform="matrix(0.06172839506172839,0,0,0.06172839506172839,27.901234567901234,0)" xlink:href="#G"/><use transform="matrix(0.06172839506172839,0,0,0.06172839506172839,45.18518518518518,0)" xlink:href="#J"/><use transform="matrix(0.06172839506172839,0,0,0.06172839506172839,60,0)" xlink:href="#K"/><use transform="matrix(0.06172839506172839,0,0,0.06172839506172839,72.34567901234568,0)" xlink:href="#G"/><use transform="matrix(0.06172839506172839,0,0,0.06172839506172839,89.62962962962963,0)" xlink:href="#J"/><use transform="matrix(0.06172839506172839,0,0,0.06172839506172839,104.44444444444444,0)" xlink:href="#v"/><use transform="matrix(0.06172839506172839,0,0,0.06172839506172839,119.25925925925925,0)" xlink:href="#u"/><use transform="matrix(0.06172839506172839,0,0,0.06172839506172839,135.2469135802469,0)" xlink:href="#L"/><use transform="matrix(0.06172839506172839,0,0,0.06172839506172839,150.06172839506172,0)" xlink:href="#M"/><use transform="matrix(0.06172839506172839,0,0,0.06172839506172839,163.58024691358023,0)" xlink:href="#N"/><use transform="matrix(0.06172839506172839,0,0,0.06172839506172839,169.75308641975306,0)" xlink:href="#G"/><use transform="matrix(0.06172839506172839,0,0,0.06172839506172839,187.037037037037,0)" xlink:href="#I"/><use transform="matrix(0.06172839506172839,0,0,0.06172839506172839,203.02469135802465,0)" xlink:href="#v"/></g><g id="k"><use transform="matrix(0.06172839506172839,0,0,0.06172839506172839,0,0)" xlink:href="#D"/><use transform="matrix(0.06172839506172839,0,0,0.06172839506172839,12.345679012345679,0)" xlink:href="#D"/><use transform="matrix(0.06172839506172839,0,0,0.06172839506172839,24.691358024691358,0)" xlink:href="#D"/><use transform="matrix(0.06172839506172839,0,0,0.06172839506172839,37.03703703703704,0)" xlink:href="#D"/><use transform="matrix(0.06172839506172839,0,0,0.06172839506172839,49.382716049382715,0)" xlink:href="#E"/><use transform="matrix(0.06172839506172839,0,0,0.06172839506172839,55.55555555555556,0)" xlink:href="#D"/><use transform="matrix(0.06172839506172839,0,0,0.06172839506172839,67.90123456790124,0)" xlink:href="#D"/><use transform="matrix(0.06172839506172839,0,0,0.06172839506172839,80.24691358024693,0)" xlink:href="#D"/><use transform="matrix(0.06172839506172839,0,0,0.06172839506172839,92.59259259259261,0)" xlink:href="#D"/></g><use transform="matrix(0.06172839506172839,0,0,0.06172839506172839,0,0)" xlink:href="#F" id="l"/><use transform="matrix(0.06172839506172839,0,0,0.06172839506172839,0,0)" xlink:href="#D" id="m"/><path d="M240 0l2-218c-23 76-54 145-80 218h-23L58-218 59 0H30v-248h44l77 211c21-75 51-140 76-211h43V0h-30" id="O"/><path d="M195 0l-74-108L45 0H8l94-129-87-119h37l69 98 67-98h37l-84 118L233 0h-38" id="P"/><g id="n"><use transform="matrix(0.06172839506172839,0,0,0.06172839506172839,0,0)" xlink:href="#O"/><use transform="matrix(0.06172839506172839,0,0,0.06172839506172839,18.456790123456788,0)" xlink:href="#H"/><use transform="matrix(0.06172839506172839,0,0,0.06172839506172839,34.44444444444444,0)" xlink:href="#P"/></g><use transform="matrix(0.06172839506172839,0,0,0.06172839506172839,0,0)" xlink:href="#D" id="o"/><use transform="matrix(0.06172839506172839,0,0,0.06172839506172839,0,0)" xlink:href="#F" id="p"/><g id="q"><use transform="matrix(0.06172839506172839,0,0,0.06172839506172839,0,0)" xlink:href="#O"/><use transform="matrix(0.06172839506172839,0,0,0.06172839506172839,18.456790123456788,0)" xlink:href="#H"/><use transform="matrix(0.06172839506172839,0,0,0.06172839506172839,34.44444444444444,0)" xlink:href="#P"/></g><use transform="matrix(0.06172839506172839,0,0,0.06172839506172839,0,0)" xlink:href="#F" id="r"/><path d="M134-131c28 9 52 24 51 62-1 50-34 73-85 73S17-19 16-69c0-36 21-54 49-61-75-25-45-126 34-121 46 3 78 18 79 63 0 33-17 51-44 57zm-34-11c31 1 46-15 46-44 0-28-17-43-47-42-29 0-46 13-45 42 1 28 16 44 46 44zm1 122c35 0 51-18 51-52 0-30-18-46-53-46-33 0-51 17-51 47 0 34 19 51 53 51" id="Q"/><use transform="matrix(0.06172839506172839,0,0,0.06172839506172839,0,0)" xlink:href="#Q" id="s"/><use transform="matrix(0.06172839506172839,0,0,0.06172839506172839,0,0)" xlink:href="#Q" id="t"/></defs></g></svg>