<svg xmlns="http://www.w3.org/2000/svg" xmlns:xlink="http://www.w3.org/1999/xlink" xmlns:lucid="lucid" width="1264.07" height="873.75"><g transform="translate(-86.14205226471802 -60)" lucid:page-tab-id="0_0"><path d="M0 0h1870.87v1322.83H0z" fill="#fff"/><path d="M700 471.38h280v60H700z" stroke="#000" stroke-width="3" fill="#fff"/><use xlink:href="#a" transform="matrix(1,0,0,1,712,483.3826766090939) translate(103.95679012345678 22.27777777777778)"/><path d="M623.13 878.56c0-3.3 2.7-6 6-6h66c3.32 0 6 2.7 6 6v28.67c0 3.3-2.68 6-6 6h-66c-3.3 0-6-2.7-6-6z" stroke="#000" stroke-opacity="0" stroke-width="3" fill="#fff" fill-opacity="0"/><use xlink:href="#b" transform="matrix(1,0,0,1,628.1327589596004,877.5640127913757) translate(12.925925925925927 19.71527777777778)"/><path d="M960 164H720l48 72h144z" stroke="#000" stroke-width="3" fill="#fff"/><path d="M960 140v120H720V140z" fill="none"/><path d="M840 236v24M744 200h-24M894 164v-24zM786 164v-24zM901.13 675.24h113.4v113.38h-113.4z" stroke="#000" stroke-width="3" fill="#fff"/><use xlink:href="#c" transform="matrix(1,0,0,1,906.1327589596006,680.2386428034624) translate(25.425925925925952 76.13888888888881)"/><path d="M1185.13 557.93v240l72-48v-144z" stroke="#000" stroke-width="3" fill="#fff"/><path d="M1161.13 557.93h120v240h-120z" fill="none"/><path d="M1257.13 677.93h24M1221.13 773.93v24M1185.13 623.93h-24zM1185.13 731.93h-24z" stroke="#000" stroke-width="3" fill="#fff"/><path d="M1017.52 731.93h142.11" stroke="#000" stroke-width="3" fill="none"/><path d="M1017.56 733.43h-1.54v-3h1.54M1161.13 733.43h-1.54v-3h1.53"/><path d="M661.5 200h57" stroke="#000" stroke-width="3" fill="none"/><path d="M661.54 201.5H660v-3h1.54M720 201.5h-1.54v-3H720"/><path d="M1282.63 677.93h17.25V110H894v28.5" stroke="#000" stroke-width="3" fill="none"/><path d="M1282.67 679.43h-1.54v-3h1.54M892.5 140v-1.54h3V140"/><path d="M786 138.5v-28.38" stroke="#000" stroke-width="3" fill="none"/><path d="M784.5 140v-1.54h3V140M787.5 110.16h-3v-1.54h3"/><path d="M839.33 373.1v47.3c0 .2.15.34.34.34.18 0 .33.15.33.33v47.3" stroke="#000" stroke-width="3" fill="none"/><path d="M839.22 371.62l1.6-.27v1.8h-3v-1.98M841.5 469.88h-3v-1.54h3"/><path d="M840 261.5v47.4c0 .2-.15.34-.33.34-.2 0-.34.15-.34.33v47.4" stroke="#000" stroke-width="3" fill="none"/><path d="M841.5 261.54h-3V260h3M840.83 358.9l-1.38-.44-1.62.27v-1.8h3"/><path d="M1159.63 623.93h-21.5v-38.9H847.4" stroke="#000" stroke-width="3" fill="none"/><path d="M1161.13 625.43h-1.54v-3h1.53M847.43 586.54h-1.97l.45-1.4-.26-1.6h1.8"/><path d="M896.9 761.44h-55.4M879.47 771.62l17.22-10.18-17.23-10.18" stroke="#000" stroke-width="3" fill="none"/><path d="M841.54 762.94H840v-3h1.54"/><path d="M560 186c0-3.3 2.7-6 6-6h88c3.3 0 6 2.7 6 6v28c0 3.3-2.7 6-6 6h-88c-3.3 0-6-2.7-6-6z" stroke="#000" stroke-opacity="0" stroke-width="3" fill="#fff" fill-opacity="0"/><use xlink:href="#d" transform="matrix(1,0,0,1,565,185) translate(8.024691358024697 19.65277777777778)"/><path d="M726.15 86c0-3.3 2.68-6 6-6h107.7c3.32 0 6 2.7 6 6v16.62c0 3.3-2.68 6-6 6h-107.7c-3.32 0-6-2.7-6-6z" stroke="#000" stroke-opacity="0" stroke-width="3" fill="#fff" fill-opacity="0"/><use xlink:href="#e" transform="matrix(1,0,0,1,731.1474627239312,85) translate(2.5308641975308603 17.77777777777778)"/><use xlink:href="#f" transform="matrix(1,0,0,1,731.1474627239312,85) translate(58.08641975308642 17.77777777777778)"/><path d="M720 747.44c0-3.32 2.7-6 6-6h108c3.3 0 6 2.68 6 6v28c0 3.3-2.7 6-6 6H726c-3.3 0-6-2.7-6-6z" stroke="#000" stroke-opacity="0" stroke-width="3" fill="#fff" fill-opacity="0"/><use xlink:href="#e" transform="matrix(1,0,0,1,725,746.4361544935147) translate(2.5308641975308603 19.65277777777778)"/><use xlink:href="#g" transform="matrix(1,0,0,1,725,746.4361544935147) translate(58.08641975308642 19.65277777777778)"/><path d="M957.83 671v-17.88-19.14M947.64 653.58l10.2 17.2L968 653.6" stroke="#000" stroke-width="3" fill="none"/><path d="M959.34 634.02h-3v-1.54h3"/><path d="M957.83 791.62v39.7s0 .02.03.02c0 0 .03.02.03.04v38.46" stroke="#000" stroke-width="3" fill="none"/><path d="M959.33 791.66h-3v-1.54h3"/><path d="M947.7 852.4l10.2 17.22 10.17-17.22" stroke="#000" stroke-width="3" fill="none"/><path d="M918.9 878.56c0-3.3 2.67-6 6-6h66c3.3 0 6 2.7 6 6v29.2c0 3.3-2.7 6-6 6h-66c-3.33 0-6-2.7-6-6z" stroke="#000" stroke-opacity="0" stroke-width="3" fill="#fff" fill-opacity="0"/><use xlink:href="#h" transform="matrix(1,0,0,1,923.8882983263396,877.5640127913757) translate(3.1111111111111143 19.77777777777778)"/><path d="M947.84 610.48c0-3.3 2.68-6 6-6h8c3.3 0 6 2.7 6 6v16c0 3.3-2.7 6-6 6h-8c-3.32 0-6-2.7-6-6z" stroke="#000" stroke-opacity="0" stroke-width="3" fill="#fff" fill-opacity="0"/><use xlink:href="#i" transform="matrix(1,0,0,1,952.8370773296822,609.4812371524001) translate(-1.1728395061728394 17.77777777777778)"/><path d="M453 879.23c0-3.3 2.68-6 6-6h66c3.3 0 6 2.7 6 6v28c0 3.3-2.7 6-6 6h-66c-3.32 0-6-2.7-6-6z" stroke="#000" stroke-opacity="0" stroke-width="3" fill="#fff" fill-opacity="0"/><use xlink:href="#j" transform="matrix(1,0,0,1,457.996978402653,878.2306794580422) translate(4.932098765432102 19.65277777777778)"/><path d="M1161.13 864.02c0-3.3 2.7-6 6-6h108c3.32 0 6 2.7 6 6v29.18c0 3.32-2.68 6-6 6h-108c-3.3 0-6-2.68-6-6z" stroke="#000" stroke-opacity="0" stroke-width="3" fill="#fff" fill-opacity="0"/><use xlink:href="#k" transform="matrix(1,0,0,1,1166.1327589596006,863.0227697842673) translate(-53.91975308641973 20.444444444444443)"/><path d="M1221.13 799.43v57.1" stroke="#000" stroke-width="3" fill="none"/><path d="M1222.63 799.47h-3v-1.54h3M1222.63 858.02h-3v-1.54h3"/><path d="M839.33 576.98V556c0-.17.15-.32.34-.32.18 0 .33-.15.33-.33v-20.97" stroke="#000" stroke-width="3" fill="none"/><path d="M840.83 578.9l-1.38-.44-1.62.27v-1.8h3M841.5 534.42h-3v-1.54h3"/><path d="M896.9 703.65h-57.57V593.1" stroke="#000" stroke-width="3" fill="none"/><path d="M879.47 713.83l17.22-10.18-17.23-10.18" stroke="#000" stroke-width="3" fill="none"/><path d="M839.22 591.62l1.6-.27v1.8h-3v-1.98"/><path d="M844.37 365.04c0 2.78-2.25 5.04-5.04 5.04-2.78 0-5.04-2.26-5.04-5.04 0-2.78 2.25-5.04 5.03-5.04 2.8 0 5.04 2.26 5.04 5.04zM844.37 585.04c0 2.78-2.25 5.04-5.04 5.04-2.78 0-5.04-2.26-5.04-5.04 0-2.78 2.25-5.04 5.03-5.04 2.8 0 5.04 2.26 5.04 5.04z" stroke="#000" stroke-width="3"/><path d="M613 638.88H373l48 72h144z" stroke="#000" stroke-width="3" fill="#fff"/><path d="M613 614.88v120H373v-120z" fill="none"/><path d="M493 710.88v24M397 674.88h-24M547 638.88v-24zM439 638.88v-24z" stroke="#000" stroke-width="3" fill="#fff"/><path d="M493 736.38V870.5" stroke="#000" stroke-width="3" fill="none"/><path d="M494.5 736.42h-3v-1.54h3"/><path d="M482.82 853.07l10.18 17.2 10.18-17.2M547 613.38V365.04h284.27" stroke="#000" stroke-width="3" fill="none"/><path d="M545.5 614.88v-1.54h3v1.54M832.76 364.92l.26 1.62h-1.78v-3h1.96"/><path d="M439 613.38v-57" stroke="#000" stroke-width="3" fill="none"/><path d="M437.5 614.88v-1.54h3v1.54M440.5 556.42h-3v-1.54h3"/><path d="M106.14 662.44c0-3.3 2.7-6 6-6H345.3c3.3 0 6 2.7 6 6v24.8c0 3.32-2.7 6-6 6H112.14c-3.3 0-6-2.68-6-6z" stroke="#000" stroke-opacity="0" stroke-width="3" fill="#fff" fill-opacity="0"/><use xlink:href="#k" transform="matrix(1,0,0,1,111.14205226471802,661.4412881812686) translate(9.080246913580268 19.46527777777778)"/><path d="M371.5 674.88h-9.33s-.02 0-.02-.02c0 0 0-.02-.02-.02h-9.33" stroke="#000" stroke-width="3" fill="none"/><path d="M373 676.38h-1.54v-3H373M352.84 676.34h-1.54v-3h1.54"/><path d="M379 520.88c0-3.3 2.68-6 6-6h108c3.3 0 6 2.7 6 6v28c0 3.3-2.7 6-6 6H385c-3.32 0-6-2.7-6-6z" stroke="#000" stroke-opacity="0" stroke-width="3" fill="#fff" fill-opacity="0"/><use xlink:href="#e" transform="matrix(1,0,0,1,383.9969784026527,519.8788468103722) translate(2.5308641975308603 19.65277777777778)"/><use xlink:href="#f" transform="matrix(1,0,0,1,383.9969784026527,519.8788468103722) translate(58.08641975308642 19.65277777777778)"/><path d="M770.92 170.85c0-3.3 2.7-6 6-6h128.16c3.32 0 6 2.7 6 6v18.67c0 3.32-2.68 6-6 6H776.92c-3.3 0-6-2.68-6-6z" stroke="#000" stroke-opacity="0" stroke-width="3" fill="#fff" fill-opacity="0"/><use xlink:href="#l" transform="matrix(1,0,0,1,775.9233852181565,169.8548378747362) translate(6.8580246913580325 17.77777777777778)"/><use xlink:href="#m" transform="matrix(1,0,0,1,775.9233852181565,169.8548378747362) translate(111.79629629629628 17.77777777777778)"/><use xlink:href="#n" transform="matrix(1,0,0,1,775.9233852181565,169.8548378747362) translate(40.870370370370374 44.44444444444444)"/><path d="M421.6 647.8c0-3.33 2.68-6 6-6h128.16c3.3 0 6 2.67 6 6v18.65c0 3.32-2.7 6-6 6H427.6c-3.32 0-6-2.68-6-6z" stroke="#000" stroke-opacity="0" stroke-width="3" fill="#fff" fill-opacity="0"/><use xlink:href="#o" transform="matrix(1,0,0,1,426.59358241375105,646.785351529478) translate(6.8580246913580325 17.77777777777778)"/><use xlink:href="#p" transform="matrix(1,0,0,1,426.59358241375105,646.785351529478) translate(111.79629629629628 17.77777777777778)"/><use xlink:href="#n" transform="matrix(1,0,0,1,426.59358241375105,646.785351529478) translate(40.870370370370374 44.44444444444444)"/><path d="M1193 747.68c-3.3 0-6-2.7-6-6V613.5c0-3.3 2.7-6 6-6h18.67c3.3 0 6 2.7 6 6V741.7c0 3.3-2.7 6-6 6z" stroke="#000" stroke-opacity="0" stroke-width="3" fill="#fff" fill-opacity="0"/><use xlink:href="#o" transform="matrix(6.123233995736766e-17,-1,1,6.123233995736766e-17,1192.000800988721,742.6754002623243) translate(6.8580246913580325 17.77777777777778)"/><use xlink:href="#p" transform="matrix(6.123233995736766e-17,-1,1,6.123233995736766e-17,1192.000800988721,742.6754002623243) translate(111.79629629629628 17.77777777777778)"/><use xlink:href="#n" transform="matrix(6.123233995736766e-17,-1,1,6.123233995736766e-17,1192.000800988721,742.6754002623243) translate(40.870370370370374 44.44444444444444)"/><path d="M698.5 499.96h-4.25v-.1h-32.12v371.2" stroke="#000" stroke-width="3" fill="none"/><path d="M721.52 499.96L700 512.7v-25.46z" stroke="#000" stroke-width="3" fill="#fff"/><path d="M663.63 872.56h-3v-1.53h3"/><path d="M540.67 463.14l10.83-21.8M540.68 463.1l-.68 1.38M551.48 441.38l.7-1.38M834.38 567.8L845.2 546M834.4 567.77l-.7 1.38M845.2 546.04l.68-1.37M1095.2 741.77l10.82-21.8M1095.2 741.74l-.68 1.37M1106 720l.7-1.37M834.2 430.6l10.84-21.8M834.22 430.58l-.68 1.37M845.02 408.85l.7-1.38M487.58 781.07l10.83-21.8M487.6 781.04l-.7 1.38M498.4 759.3l.68-1.37M834.48 302.27l10.83-21.8M834.5 302.23l-.7 1.38M845.3 280.5l.68-1.37M1293.95 398.3l10.84-21.8M1293.97 398.26l-.68 1.38M1304.77 376.53l.68-1.37M979.55 595.84l10.83-21.8M979.57 595.8l-.7 1.38M990.37 574.08l.68-1.38M952.45 830.04l10.83-21.8M952.46 830l-.68 1.38M963.26 808.28l.7-1.38" stroke="#000" stroke-width="3" fill="none"/><path d="M931.02 812.3c0-3.33 2.7-6 6-6h4.82c3.3 0 6 2.67 6 6V831c0 3.33-2.7 6-6 6h-4.82c-3.3 0-6-2.67-6-6z" stroke="#000" stroke-opacity="0" stroke-width="3" fill="#fff" fill-opacity="0"/><use xlink:href="#q" transform="matrix(1,0,0,1,936.0225248807075,811.287962771409) translate(-2.6728395061728394 17.77777777777778)"/><path d="M817.67 273.67c0-3.32 2.68-6 6-6h4.8c3.32 0 6 2.68 6 6v18.72c0 3.3-2.68 6-6 6h-4.8c-3.32 0-6-2.7-6-6z" stroke="#000" stroke-opacity="0" stroke-width="3" fill="#fff" fill-opacity="0"/><use xlink:href="#r" transform="matrix(1,0,0,1,822.6666666666666,272.6666666666667) translate(-2.6728395061728394 17.77777777777778)"/><path d="M525.3 435.53c0-3.3 2.7-6 6-6h4.82c3.3 0 6 2.7 6 6v18.73c0 3.3-2.7 6-6 6h-4.82c-3.3 0-6-2.7-6-6z" stroke="#000" stroke-opacity="0" stroke-width="3" fill="#fff" fill-opacity="0"/><g><use xlink:href="#r" transform="matrix(1,0,0,1,530.3015110805027,434.53115337666213) translate(-2.6728395061728394 17.77777777777778)"/></g><path d="M811.66 631.75c0-3.3 2.7-6 6-6h4.82c3.3 0 6 2.7 6 6v18.73c0 3.3-2.7 6-6 6h-4.82c-3.3 0-6-2.7-6-6z" stroke="#000" stroke-opacity="0" stroke-width="3" fill="#fff" fill-opacity="0"/><g><use xlink:href="#r" transform="matrix(1,0,0,1,816.6636450693197,630.7499290150521) translate(-2.6728395061728394 17.77777777777778)"/></g><path d="M1096 692.67c0-3.32 2.7-6 6-6h4.8c3.33 0 6 2.68 6 6v18.72c0 3.3-2.67 6-6 6h-4.8c-3.3 0-6-2.7-6-6z" stroke="#000" stroke-opacity="0" stroke-width="3" fill="#fff" fill-opacity="0"/><g><use xlink:href="#r" transform="matrix(1,0,0,1,1101.0000000000002,691.6666666666667) translate(-2.6728395061728394 17.77777777777778)"/></g><path d="M968.5 561.5c0-3.3 2.7-6 6-6h4.8c3.33 0 6 2.7 6 6v18.73c0 3.3-2.67 6-6 6h-4.8c-3.3 0-6-2.7-6-6z" stroke="#000" stroke-opacity="0" stroke-width="3" fill="#fff" fill-opacity="0"/><g><use xlink:href="#r" transform="matrix(1,0,0,1,973.5,560.5) translate(-2.6728395061728394 17.77777777777778)"/></g><path d="M1270.67 374.04c0-3.3 2.68-6 6-6h4.8c3.32 0 6 2.7 6 6v18.73c0 3.3-2.68 6-6 6h-4.8c-3.32 0-6-2.7-6-6z" stroke="#000" stroke-opacity="0" stroke-width="3" fill="#fff" fill-opacity="0"/><g><use xlink:href="#r" transform="matrix(1,0,0,1,1275.666666666667,373.04068241469827) translate(-2.6728395061728394 17.77777777777778)"/></g><path d="M834.2 652l10.84-21.8M834.22 651.96l-.68 1.37M845.02 630.23l.7-1.38" stroke="#000" stroke-width="3" fill="none"/><path d="M474.46 755.77c0-3.32 2.68-6 6-6h4.8c3.32 0 6 2.68 6 6v18.72c0 3.3-2.68 6-6 6h-4.8c-3.32 0-6-2.7-6-6z" stroke="#000" stroke-opacity="0" stroke-width="3" fill="#fff" fill-opacity="0"/><g><use xlink:href="#r" transform="matrix(1,0,0,1,479.4566499125316,754.7671272716292) translate(-2.6728395061728394 17.77777777777778)"/></g><path d="M811.66 546c0-3.3 2.7-6 6-6h4.82c3.3 0 6 2.7 6 6v18.73c0 3.3-2.7 6-6 6h-4.82c-3.3 0-6-2.7-6-6z" stroke="#000" stroke-opacity="0" stroke-width="3" fill="#fff" fill-opacity="0"/><g><use xlink:href="#r" transform="matrix(1,0,0,1,816.6636450693197,545) translate(-2.6728395061728394 17.77777777777778)"/></g><path d="M811.66 411.53c0-3.3 2.7-6 6-6h4.82c3.3 0 6 2.7 6 6v18.73c0 3.3-2.7 6-6 6h-4.82c-3.3 0-6-2.7-6-6z" stroke="#000" stroke-opacity="0" stroke-width="3" fill="#fff" fill-opacity="0"/><g><use xlink:href="#r" transform="matrix(1,0,0,1,816.6636450693197,410.53424982838965) translate(-2.6728395061728394 17.77777777777778)"/></g><defs><path d="M233-177c-1 41-23 64-60 70L243 0h-38l-65-103H63V0H30v-248c88 3 205-21 203 71zM63-129c60-2 137 13 137-47 0-61-80-42-137-45v92" id="s"/><path d="M30 0v-248h187v28H63v79h144v27H63v87h162V0H30" id="t"/><path d="M143 4C61 4 22-44 18-125c-5-107 100-154 193-111 17 8 29 25 37 43l-32 9c-13-25-37-40-76-40-61 0-88 39-88 99 0 61 29 100 91 101 35 0 62-11 79-27v-45h-74v-28h105v86C228-13 192 4 143 4" id="u"/><g id="a"><use transform="matrix(0.06172839506172839,0,0,0.06172839506172839,0,0)" xlink:href="#s"/><use transform="matrix(0.06172839506172839,0,0,0.06172839506172839,15.987654320987653,0)" xlink:href="#t"/><use transform="matrix(0.06172839506172839,0,0,0.06172839506172839,30.80246913580247,0)" xlink:href="#u"/></g><path d="M212-179c-10-28-35-45-73-45-59 0-87 40-87 99 0 60 29 101 89 101 43 0 62-24 78-52l27 14C228-24 195 4 139 4 59 4 22-46 18-125c-6-104 99-153 187-111 19 9 31 26 39 46" id="v"/><path d="M30 0v-248h33v221h125V0H30" id="w"/><path d="M194 0L95-120 63-95V0H30v-248h33v124l119-124h40L117-140 236 0h-42" id="x"/><g id="b"><use transform="matrix(0.06172839506172839,0,0,0.06172839506172839,0,0)" xlink:href="#v"/><use transform="matrix(0.06172839506172839,0,0,0.06172839506172839,15.987654320987653,0)" xlink:href="#w"/><use transform="matrix(0.06172839506172839,0,0,0.06172839506172839,28.333333333333332,0)" xlink:href="#x"/></g><path d="M118-107v75H92v-75H18v-26h74v-75h26v75h74v26h-74" id="y"/><use transform="matrix(0.25308641975308616,0,0,0.25308641975308616,0,0)" xlink:href="#y" id="c"/><path d="M185-189c-5-48-123-54-124 2 14 75 158 14 163 119 3 78-121 87-175 55-17-10-28-26-33-46l33-7c5 56 141 63 141-1 0-78-155-14-162-118-5-82 145-84 179-34 5 7 8 16 11 25" id="z"/><path d="M127-220V0H93v-220H8v-28h204v28h-85" id="A"/><g id="d"><use transform="matrix(0.06172839506172839,0,0,0.06172839506172839,0,0)" xlink:href="#s"/><use transform="matrix(0.06172839506172839,0,0,0.06172839506172839,15.987654320987653,0)" xlink:href="#t"/><use transform="matrix(0.06172839506172839,0,0,0.06172839506172839,30.80246913580247,0)" xlink:href="#z"/><use transform="matrix(0.06172839506172839,0,0,0.06172839506172839,45.61728395061728,0)" xlink:href="#t"/><use transform="matrix(0.06172839506172839,0,0,0.06172839506172839,60.43209876543209,0)" xlink:href="#A"/></g><path d="M101-251c68 0 85 55 85 127S166 4 100 4C33 4 14-52 14-124c0-73 17-127 87-127zm-1 229c47 0 54-49 54-102s-4-102-53-102c-51 0-55 48-55 102 0 53 5 102 54 102" id="B"/><g id="e"><use transform="matrix(0.06172839506172839,0,0,0.06172839506172839,0,0)" xlink:href="#B"/><use transform="matrix(0.06172839506172839,0,0,0.06172839506172839,12.345679012345679,0)" xlink:href="#B"/><use transform="matrix(0.06172839506172839,0,0,0.06172839506172839,24.691358024691358,0)" xlink:href="#B"/><use transform="matrix(0.06172839506172839,0,0,0.06172839506172839,37.03703703703704,0)" xlink:href="#B"/></g><g id="f"><use transform="matrix(0.06172839506172839,0,0,0.06172839506172839,0,0)" xlink:href="#B"/><use transform="matrix(0.06172839506172839,0,0,0.06172839506172839,12.345679012345679,0)" xlink:href="#B"/><use transform="matrix(0.06172839506172839,0,0,0.06172839506172839,24.691358024691358,0)" xlink:href="#B"/><use transform="matrix(0.06172839506172839,0,0,0.06172839506172839,37.03703703703704,0)" xlink:href="#B"/></g><path d="M27 0v-27h64v-190l-56 39v-29l58-41h29v221h61V0H27" id="C"/><g id="g"><use transform="matrix(0.06172839506172839,0,0,0.06172839506172839,0,0)" xlink:href="#B"/><use transform="matrix(0.06172839506172839,0,0,0.06172839506172839,12.345679012345679,0)" xlink:href="#B"/><use transform="matrix(0.06172839506172839,0,0,0.06172839506172839,24.691358024691358,0)" xlink:href="#B"/><use transform="matrix(0.06172839506172839,0,0,0.06172839506172839,37.03703703703704,0)" xlink:href="#C"/></g><path d="M140-251c81 0 123 46 123 126C263-46 219 4 140 4 59 4 17-45 17-125s42-126 123-126zm0 227c63 0 89-41 89-101s-29-99-89-99c-61 0-89 39-89 99S79-25 140-24" id="D"/><path d="M232-93c-1 65-40 97-104 97C67 4 28-28 28-90v-158h33c8 89-33 224 67 224 102 0 64-133 71-224h33v155" id="E"/><g id="h"><use transform="matrix(0.06172839506172839,0,0,0.06172839506172839,0,0)" xlink:href="#v"/><use transform="matrix(0.06172839506172839,0,0,0.06172839506172839,15.987654320987653,0)" xlink:href="#D"/><use transform="matrix(0.06172839506172839,0,0,0.06172839506172839,33.2716049382716,0)" xlink:href="#E"/><use transform="matrix(0.06172839506172839,0,0,0.06172839506172839,49.25925925925925,0)" xlink:href="#A"/></g><use transform="matrix(0.06172839506172839,0,0,0.06172839506172839,0,0)" xlink:href="#B" id="i"/><path d="M190 0L58-211 59 0H30v-248h39L202-35l-2-213h31V0h-41" id="F"/><g id="j"><use transform="matrix(0.06172839506172839,0,0,0.06172839506172839,0,0)" xlink:href="#F"/><use transform="matrix(0.06172839506172839,0,0,0.06172839506172839,15.987654320987653,0)" xlink:href="#v"/><use transform="matrix(0.06172839506172839,0,0,0.06172839506172839,31.975308641975307,0)" xlink:href="#w"/><use transform="matrix(0.06172839506172839,0,0,0.06172839506172839,44.32098765432099,0)" xlink:href="#x"/></g><path d="M30-248c87 1 191-15 191 75 0 78-77 80-158 76V0H30v-248zm33 125c57 0 124 11 124-50 0-59-68-47-124-48v98" id="G"/><path d="M-5 72V49h209v23H-5" id="H"/><path d="M205 0l-28-72H64L36 0H1l101-248h38L239 0h-34zm-38-99l-47-123c-12 45-31 82-46 123h93" id="I"/><path d="M209 0H11v-25l151-195H24v-28h176v25L50-27h159V0" id="J"/><path d="M33 0v-248h34V0H33" id="K"/><g id="k"><use transform="matrix(0.06172839506172839,0,0,0.06172839506172839,0,0)" xlink:href="#z"/><use transform="matrix(0.06172839506172839,0,0,0.06172839506172839,14.814814814814813,0)" xlink:href="#A"/><use transform="matrix(0.06172839506172839,0,0,0.06172839506172839,27.901234567901234,0)" xlink:href="#D"/><use transform="matrix(0.06172839506172839,0,0,0.06172839506172839,45.18518518518518,0)" xlink:href="#G"/><use transform="matrix(0.06172839506172839,0,0,0.06172839506172839,60,0)" xlink:href="#H"/><use transform="matrix(0.06172839506172839,0,0,0.06172839506172839,72.34567901234568,0)" xlink:href="#D"/><use transform="matrix(0.06172839506172839,0,0,0.06172839506172839,89.62962962962963,0)" xlink:href="#G"/><use transform="matrix(0.06172839506172839,0,0,0.06172839506172839,104.44444444444444,0)" xlink:href="#t"/><use transform="matrix(0.06172839506172839,0,0,0.06172839506172839,119.25925925925925,0)" xlink:href="#s"/><use transform="matrix(0.06172839506172839,0,0,0.06172839506172839,135.2469135802469,0)" xlink:href="#I"/><use transform="matrix(0.06172839506172839,0,0,0.06172839506172839,150.06172839506172,0)" xlink:href="#J"/><use transform="matrix(0.06172839506172839,0,0,0.06172839506172839,163.58024691358023,0)" xlink:href="#K"/><use transform="matrix(0.06172839506172839,0,0,0.06172839506172839,169.75308641975306,0)" xlink:href="#D"/><use transform="matrix(0.06172839506172839,0,0,0.06172839506172839,187.037037037037,0)" xlink:href="#F"/><use transform="matrix(0.06172839506172839,0,0,0.06172839506172839,203.02469135802465,0)" xlink:href="#t"/></g><use transform="matrix(0.06172839506172839,0,0,0.06172839506172839,0,0)" xlink:href="#C" id="l"/><use transform="matrix(0.06172839506172839,0,0,0.06172839506172839,0,0)" xlink:href="#B" id="m"/><path d="M240 0l2-218c-23 76-54 145-80 218h-23L58-218 59 0H30v-248h44l77 211c21-75 51-140 76-211h43V0h-30" id="L"/><path d="M195 0l-74-108L45 0H8l94-129-87-119h37l69 98 67-98h37l-84 118L233 0h-38" id="M"/><g id="n"><use transform="matrix(0.06172839506172839,0,0,0.06172839506172839,0,0)" xlink:href="#L"/><use transform="matrix(0.06172839506172839,0,0,0.06172839506172839,18.456790123456788,0)" xlink:href="#E"/><use transform="matrix(0.06172839506172839,0,0,0.06172839506172839,34.44444444444444,0)" xlink:href="#M"/></g><use transform="matrix(0.06172839506172839,0,0,0.06172839506172839,0,0)" xlink:href="#B" id="o"/><use transform="matrix(0.06172839506172839,0,0,0.06172839506172839,0,0)" xlink:href="#C" id="p"/><use transform="matrix(0.06172839506172839,0,0,0.06172839506172839,0,0)" xlink:href="#C" id="q"/><path d="M134-131c28 9 52 24 51 62-1 50-34 73-85 73S17-19 16-69c0-36 21-54 49-61-75-25-45-126 34-121 46 3 78 18 79 63 0 33-17 51-44 57zm-34-11c31 1 46-15 46-44 0-28-17-43-47-42-29 0-46 13-45 42 1 28 16 44 46 44zm1 122c35 0 51-18 51-52 0-30-18-46-53-46-33 0-51 17-51 47 0 34 19 51 53 51" id="N"/><use transform="matrix(0.06172839506172839,0,0,0.06172839506172839,0,0)" xlink:href="#N" id="r"/></defs></g></svg>