<svg xmlns="http://www.w3.org/2000/svg" xmlns:xlink="http://www.w3.org/1999/xlink" xmlns:lucid="lucid" width="399.11" height="247.17"><g transform="translate(-946.3031297262088 -308.8866106619891)" lucid:page-tab-id="0_0"><path d="M0 0h1870.87v1322.83H0z" fill="#fff"/><path d="M983.12 422.67h113.38v113.38H983.12z" stroke="#000" stroke-width="3" fill="#fff"/><use xlink:href="#a" transform="matrix(1,0,0,1,988.1176821751835,427.66666666666674) translate(26.722222222222225 72.58333333333333)"/><path d="M1098 479.36h117.67M1098.04 479.36h-1.54M1198.24 489.54l17.2-10.18-17.2-10.18M1086.85 368.64v49.8" stroke="#000" stroke-width="3" fill="none"/><path d="M1088.35 368.67h-3v-1.53h3"/><path d="M1076.67 401l10.18 17.22 10.18-17.2M990.58 359.83v58.6" stroke="#000" stroke-width="3" fill="none"/><path d="M992.08 359.87h-3v-1.54h3"/><path d="M980.4 401l10.18 17.22 10.18-17.2" stroke="#000" stroke-width="3" fill="none"/><path d="M1031.16 343.7c0-3.33 2.7-6 6-6h99.37c3.32 0 6 2.67 6 6v17.44c0 3.3-2.68 6-6 6h-99.37c-3.3 0-6-2.7-6-6z" stroke="#000" stroke-opacity="0" stroke-width="3" fill="#fff" fill-opacity="0"/><use xlink:href="#b" transform="matrix(1,0,0,1,1036.1628046327612,342.6882462633459) translate(0.19753086419752464 17.77777777777778)"/><path d="M1112.1 500.26c0-3.32 2.67-6 6-6h4.8c3.32 0 6 2.68 6 6v18.72c0 3.32-2.68 6-6 6h-4.8c-3.33 0-6-2.68-6-6z" stroke="#000" stroke-opacity="0" stroke-width="3" fill="#fff" fill-opacity="0"/><use xlink:href="#c" transform="matrix(1,0,0,1,1117.0870002166644,499.25829530247836) translate(-2.6728395061728394 17.77777777777778)"/><path d="M985.16 390.28l10.84-21.8M985.18 390.24l-.68 1.38M995.98 368.5l.68-1.36" stroke="#000" stroke-width="3" fill="none"/><path d="M969.5 334.9c0-3.33 2.7-6 6-6h30.15c3.3 0 6 2.67 6 6v17.43c0 3.32-2.7 6-6 6H975.5c-3.3 0-6-2.68-6-6z" stroke="#000" stroke-opacity="0" stroke-width="3" fill="#fff" fill-opacity="0"/><use xlink:href="#d" transform="matrix(1,0,0,1,974.5141862532275,333.8866106619891) translate(1.0987654320987659 17.77777777777778)"/><path d="M1141.8 490.26l10.84-21.8M1141.82 490.22l-.68 1.38M1152.62 468.5l.68-1.38" stroke="#000" stroke-width="3" fill="none"/><path d="M966.3 364.33c0-3.3 2.7-6 6-6h4.82c3.3 0 6 2.7 6 6v18.73c0 3.3-2.7 6-6 6h-4.82c-3.3 0-6-2.7-6-6z" stroke="#000" stroke-opacity="0" stroke-width="3" fill="#fff" fill-opacity="0"/><use xlink:href="#e" transform="matrix(1,0,0,1,971.3031297262088,363.3333871183123) translate(-2.6728395061728394 17.77777777777778)"/><path d="M1218.4 470.1c0-3.3 2.7-6 6-6h95.02c3.3 0 6 2.7 6 6v18.5c0 3.32-2.7 6-6 6h-95.02c-3.3 0-6-2.68-6-6z" stroke="#000" stroke-opacity="0" stroke-width="3" fill="#fff" fill-opacity="0"/><use xlink:href="#f" transform="matrix(1,0,0,1,1223.4015526656392,469.1095800524936) translate(1.5617283950617278 17.77777777777778)"/><defs><path d="M18-27v-27l151-64-151-65v-27l175 74v36" id="g"/><use transform="matrix(0.24074074074074073,0,0,0.24074074074074073,0,0)" xlink:href="#g" id="a"/><path d="M27 0v-27h64v-190l-56 39v-29l58-41h29v221h61V0H27" id="h"/><path d="M101-251c68 0 85 55 85 127S166 4 100 4C33 4 14-52 14-124c0-73 17-127 87-127zm-1 229c47 0 54-49 54-102s-4-102-53-102c-51 0-55 48-55 102 0 53 5 102 54 102" id="i"/><path d="M33 0v-38h34V0H33" id="j"/><g id="b"><use transform="matrix(0.06172839506172839,0,0,0.06172839506172839,0,0)" xlink:href="#h"/><use transform="matrix(0.06172839506172839,0,0,0.06172839506172839,10.679012345679013,0)" xlink:href="#h"/><use transform="matrix(0.06172839506172839,0,0,0.06172839506172839,21.358024691358025,0)" xlink:href="#h"/><use transform="matrix(0.06172839506172839,0,0,0.06172839506172839,33.7037037037037,0)" xlink:href="#i"/><use transform="matrix(0.06172839506172839,0,0,0.06172839506172839,46.04938271604938,0)" xlink:href="#j"/><use transform="matrix(0.06172839506172839,0,0,0.06172839506172839,52.22222222222222,0)" xlink:href="#i"/><use transform="matrix(0.06172839506172839,0,0,0.06172839506172839,64.5679012345679,0)" xlink:href="#i"/><use transform="matrix(0.06172839506172839,0,0,0.06172839506172839,76.91358024691358,0)" xlink:href="#i"/><use transform="matrix(0.06172839506172839,0,0,0.06172839506172839,89.25925925925927,0)" xlink:href="#i"/></g><use transform="matrix(0.06172839506172839,0,0,0.06172839506172839,0,0)" xlink:href="#h" id="c"/><path d="M30-248c87 1 191-15 191 75 0 78-77 80-158 76V0H30v-248zm33 125c57 0 124 11 124-50 0-59-68-47-124-48v98" id="k"/><path d="M197 0v-115H63V0H30v-248h33v105h134v-105h34V0h-34" id="l"/><g id="d"><use transform="matrix(0.06172839506172839,0,0,0.06172839506172839,0,0)" xlink:href="#k"/><use transform="matrix(0.06172839506172839,0,0,0.06172839506172839,14.814814814814813,0)" xlink:href="#l"/></g><path d="M134-131c28 9 52 24 51 62-1 50-34 73-85 73S17-19 16-69c0-36 21-54 49-61-75-25-45-126 34-121 46 3 78 18 79 63 0 33-17 51-44 57zm-34-11c31 1 46-15 46-44 0-28-17-43-47-42-29 0-46 13-45 42 1 28 16 44 46 44zm1 122c35 0 51-18 51-52 0-30-18-46-53-46-33 0-51 17-51 47 0 34 19 51 53 51" id="m"/><use transform="matrix(0.06172839506172839,0,0,0.06172839506172839,0,0)" xlink:href="#m" id="e"/><path fill="#333" d="M30 0v-248h187v28H63v79h144v27H63v87h162V0H30" id="n"/><path fill="#333" d="M233-177c-1 41-23 64-60 70L243 0h-38l-65-103H63V0H30v-248c88 3 205-21 203 71zM63-129c60-2 137 13 137-47 0-61-80-42-137-45v92" id="o"/><path fill="#333" d="M140-251c81 0 123 46 123 126C263-46 219 4 140 4 59 4 17-45 17-125s42-126 123-126zm0 227c63 0 89-41 89-101s-29-99-89-99c-61 0-89 39-89 99S79-25 140-24" id="p"/><g id="f"><use transform="matrix(0.06172839506172839,0,0,0.06172839506172839,0,0)" xlink:href="#n"/><use transform="matrix(0.06172839506172839,0,0,0.06172839506172839,14.814814814814813,0)" xlink:href="#o"/><use transform="matrix(0.06172839506172839,0,0,0.06172839506172839,30.80246913580247,0)" xlink:href="#o"/><use transform="matrix(0.06172839506172839,0,0,0.06172839506172839,46.79012345679012,0)" xlink:href="#p"/><use transform="matrix(0.06172839506172839,0,0,0.06172839506172839,64.07407407407408,0)" xlink:href="#o"/><use transform="matrix(0.06172839506172839,0,0,0.06172839506172839,80.06172839506173,0)" xlink:href="#n"/></g></defs></g></svg>