<svg xmlns="http://www.w3.org/2000/svg" xmlns:xlink="http://www.w3.org/1999/xlink" xmlns:lucid="lucid" width="388.32" height="238.36"><g transform="translate(-775.7010693836676 -314.7062942171359)" lucid:page-tab-id="0_0"><path d="M0 0h1870.87v1322.83H0z" fill="#fff"/><path d="M984.6 419.68H1098v113.4H984.6z" stroke="#000" stroke-width="3" fill="#fff"/><use xlink:href="#a" transform="matrix(1,0,0,1,989.6086581982887,424.6847146204568) translate(26.722222222222225 72.58333333333333)"/><path d="M981.6 476.38H905" stroke="#000" stroke-width="3" fill="none"/><path d="M983.1 477.88h-1.53v-3h1.54"/><path d="M922.55 466.03l-16.9 10.7 17.54 9.65M1088.34 365.65v49.8" stroke="#000" stroke-width="3" fill="none"/><path d="M1089.84 365.7h-3v-1.55h3"/><path d="M1078.16 398.02l10.18 17.22 10.18-17.22M992.07 365.65v49.82" stroke="#000" stroke-width="3" fill="none"/><path d="M993.57 365.7h-3v-1.55h3"/><path d="M981.9 398.02l10.17 17.22 10.18-17.22" stroke="#000" stroke-width="3" fill="none"/><path d="M1032.65 340.7c0-3.3 2.7-6 6-6h99.37c3.32 0 6 2.7 6 6v17.45c0 3.32-2.68 6-6 6h-99.37c-3.3 0-6-2.68-6-6z" stroke="#000" stroke-opacity="0" stroke-width="3" fill="#fff" fill-opacity="0"/><use xlink:href="#b" transform="matrix(1,0,0,1,1037.6537806558663,339.70629421713596) translate(0.19753086419752464 17.77777777777778)"/><path d="M940.88 444.53c0-3.32 2.7-6 6-6h4.82c3.3 0 6 2.68 6 6v18.72c0 3.32-2.7 6-6 6h-4.82c-3.3 0-6-2.68-6-6z" stroke="#000" stroke-opacity="0" stroke-width="3" fill="#fff" fill-opacity="0"/><use xlink:href="#c" transform="matrix(1,0,0,1,945.8833857455672,443.5268395271475) translate(-2.6728395061728394 17.77777777777778)"/><path d="M971 340.7c0-3.3 2.7-6 6-6h30.14c3.3 0 6 2.7 6 6v17.45c0 3.32-2.7 6-6 6H977c-3.3 0-6-2.68-6-6z" stroke="#000" stroke-opacity="0" stroke-width="3" fill="#fff" fill-opacity="0"/><use xlink:href="#d" transform="matrix(1,0,0,1,976.0051622763326,339.7062942171359) translate(1.0987654320987659 17.77777777777778)"/><path d="M942.9 487.98l10.84-21.8M942.92 487.95l-.68 1.38M953.72 466.22l.7-1.38" stroke="#000" stroke-width="3" fill="none"/><path d="M967.8 370.15c0-3.3 2.68-6 6-6h4.8c3.32 0 6 2.7 6 6v18.73c0 3.3-2.68 6-6 6h-4.8c-3.32 0-6-2.7-6-6z" stroke="#000" stroke-opacity="0" stroke-width="3" fill="#fff" fill-opacity="0"/><use xlink:href="#e" transform="matrix(1,0,0,1,972.794105749314,369.1530706734592) translate(-2.6728395061728394 17.77777777777778)"/><path d="M795.7 467.58c0-3.3 2.7-6 6-6h95.02c3.3 0 6 2.7 6 6v18.5c0 3.32-2.7 6-6 6H801.7c-3.3 0-6-2.68-6-6z" stroke="#000" stroke-opacity="0" stroke-width="3" fill="#fff" fill-opacity="0"/><use xlink:href="#f" transform="matrix(1,0,0,1,800.7010693836676,466.58276905704014) translate(1.5617283950617278 17.77777777777778)"/><path d="M986.58 393.02l10.84-21.8M986.6 393l-.68 1.37M997.4 371.26l.68-1.38" stroke="#000" stroke-width="3" fill="none"/><defs><path d="M18-27v-27l151-64-151-65v-27l175 74v36" id="g"/><use transform="matrix(0.24074074074074073,0,0,0.24074074074074073,0,0)" xlink:href="#g" id="a"/><path d="M27 0v-27h64v-190l-56 39v-29l58-41h29v221h61V0H27" id="h"/><path d="M101-251c68 0 85 55 85 127S166 4 100 4C33 4 14-52 14-124c0-73 17-127 87-127zm-1 229c47 0 54-49 54-102s-4-102-53-102c-51 0-55 48-55 102 0 53 5 102 54 102" id="i"/><path d="M33 0v-38h34V0H33" id="j"/><g id="b"><use transform="matrix(0.06172839506172839,0,0,0.06172839506172839,0,0)" xlink:href="#h"/><use transform="matrix(0.06172839506172839,0,0,0.06172839506172839,10.679012345679013,0)" xlink:href="#h"/><use transform="matrix(0.06172839506172839,0,0,0.06172839506172839,21.358024691358025,0)" xlink:href="#h"/><use transform="matrix(0.06172839506172839,0,0,0.06172839506172839,33.7037037037037,0)" xlink:href="#i"/><use transform="matrix(0.06172839506172839,0,0,0.06172839506172839,46.04938271604938,0)" xlink:href="#j"/><use transform="matrix(0.06172839506172839,0,0,0.06172839506172839,52.22222222222222,0)" xlink:href="#i"/><use transform="matrix(0.06172839506172839,0,0,0.06172839506172839,64.5679012345679,0)" xlink:href="#i"/><use transform="matrix(0.06172839506172839,0,0,0.06172839506172839,76.91358024691358,0)" xlink:href="#i"/><use transform="matrix(0.06172839506172839,0,0,0.06172839506172839,89.25925925925927,0)" xlink:href="#i"/></g><use transform="matrix(0.06172839506172839,0,0,0.06172839506172839,0,0)" xlink:href="#h" id="c"/><path d="M30-248c87 1 191-15 191 75 0 78-77 80-158 76V0H30v-248zm33 125c57 0 124 11 124-50 0-59-68-47-124-48v98" id="k"/><path d="M197 0v-115H63V0H30v-248h33v105h134v-105h34V0h-34" id="l"/><g id="d"><use transform="matrix(0.06172839506172839,0,0,0.06172839506172839,0,0)" xlink:href="#k"/><use transform="matrix(0.06172839506172839,0,0,0.06172839506172839,14.814814814814813,0)" xlink:href="#l"/></g><path d="M134-131c28 9 52 24 51 62-1 50-34 73-85 73S17-19 16-69c0-36 21-54 49-61-75-25-45-126 34-121 46 3 78 18 79 63 0 33-17 51-44 57zm-34-11c31 1 46-15 46-44 0-28-17-43-47-42-29 0-46 13-45 42 1 28 16 44 46 44zm1 122c35 0 51-18 51-52 0-30-18-46-53-46-33 0-51 17-51 47 0 34 19 51 53 51" id="m"/><use transform="matrix(0.06172839506172839,0,0,0.06172839506172839,0,0)" xlink:href="#m" id="e"/><path d="M30 0v-248h187v28H63v79h144v27H63v87h162V0H30" id="n"/><path d="M233-177c-1 41-23 64-60 70L243 0h-38l-65-103H63V0H30v-248c88 3 205-21 203 71zM63-129c60-2 137 13 137-47 0-61-80-42-137-45v92" id="o"/><path d="M140-251c81 0 123 46 123 126C263-46 219 4 140 4 59 4 17-45 17-125s42-126 123-126zm0 227c63 0 89-41 89-101s-29-99-89-99c-61 0-89 39-89 99S79-25 140-24" id="p"/><g id="f"><use transform="matrix(0.06172839506172839,0,0,0.06172839506172839,0,0)" xlink:href="#n"/><use transform="matrix(0.06172839506172839,0,0,0.06172839506172839,14.814814814814813,0)" xlink:href="#o"/><use transform="matrix(0.06172839506172839,0,0,0.06172839506172839,30.80246913580247,0)" xlink:href="#o"/><use transform="matrix(0.06172839506172839,0,0,0.06172839506172839,46.79012345679012,0)" xlink:href="#p"/><use transform="matrix(0.06172839506172839,0,0,0.06172839506172839,64.07407407407408,0)" xlink:href="#o"/><use transform="matrix(0.06172839506172839,0,0,0.06172839506172839,80.06172839506173,0)" xlink:href="#n"/></g></defs></g></svg>