<svg xmlns="http://www.w3.org/2000/svg" xmlns:xlink="http://www.w3.org/1999/xlink" xmlns:lucid="lucid" width="796.09" height="860.62"><g transform="translate(-536.9654068573882 -280)" lucid:page-tab-id="0_0"><path d="M0 0h1870.87v1322.83H0z" fill="#fff"/><path d="M1052.18 886.14h-240l48 72h144z" stroke="#000" stroke-width="3" fill="#fff"/><path d="M1052.18 862.14v120h-240v-120z" fill="none"/><path d="M932.18 958.14v24M836.18 922.14h-24M986.18 886.14v-24zM878.18 886.14v-24zM736.53 653.4h113.4v113.4h-113.4z" stroke="#000" stroke-width="3" fill="#fff"/><use xlink:href="#a" transform="matrix(1,0,0,1,741.5346528523835,658.4130036455755) translate(25.425925925925977 76.13888888888876)"/><path d="M1019.97 511.42h113.4V624.8h-113.4z" stroke="#000" stroke-width="3" fill="#fff"/><use xlink:href="#b" transform="matrix(1,0,0,1,1024.973210525297,516.4173228346456) translate(35.10493827160498 81.7777777777776)"/><path d="M1076.67 627.8v173.46h-90.52v83.17" stroke="#000" stroke-width="3" fill="none"/><path d="M1078.17 627.84h-3v-1.54h3"/><path d="M975.97 867l10.18 17.2 10.2-17.2M793.23 769.8v32.44h84.97v82.23" stroke="#000" stroke-width="3" fill="none"/><path d="M794.73 769.84h-3v-1.54h3"/><path d="M868.02 867.04l10.18 17.2 10.18-17.2" stroke="#000" stroke-width="3" fill="none"/><path d="M900.38 306c0-3.3 2.68-6 6-6h36.64c3.32 0 6 2.7 6 6v24.8c0 3.32-2.68 6-6 6h-36.64c-3.32 0-6-2.68-6-6z" stroke="#000" stroke-opacity="0" stroke-width="3" fill="#fff" fill-opacity="0"/><use xlink:href="#c" transform="matrix(1,0,0,1,905.3756879154419,305) translate(4.098765432098766 19.46527777777778)"/><path d="M917.7 398.9h-94.42v250.3" stroke="#000" stroke-width="3" fill="none"/><path d="M919.2 398.9l.63 1.5h-2.17v-3h2.17"/><path d="M813.1 631.75l10.18 17.22 10.18-17.22M771.78 922.14h62.94" stroke="#000" stroke-width="3" fill="none"/><path d="M771.8 923.64h-1.52v-3h1.53"/><path d="M817.28 932.32l17.22-10.18-17.22-10.18M932.18 983.64v94.25" stroke="#000" stroke-width="3" fill="none"/><path d="M933.68 983.68h-3v-1.54h3"/><path d="M922 1060.45l10.18 17.22 10.18-17.22M1107.43 463.73v43.45" stroke="#000" stroke-width="3" fill="none"/><path d="M1108.93 463.77h-3v-1.54h3"/><path d="M1097.25 489.75l10.18 17.22 10.2-17.22M771.6 574.9v74.3M771.6 574.95v-1.54M761.43 631.75l10.18 17.22 10.2-17.22" stroke="#000" stroke-width="3" fill="none"/><path d="M677.96 547.98c0-3.32 2.7-6 6-6h108c3.3 0 6 2.68 6 6v18.82c0 3.3-2.7 6-6 6h-108c-3.3 0-6-2.7-6-6z" stroke="#000" stroke-opacity="0" stroke-width="3" fill="#fff" fill-opacity="0"/><use xlink:href="#d" transform="matrix(1,0,0,1,682.9601973844857,546.9774360383279) translate(2.5308641975308532 17.77777777777778)"/><path d="M1080.87 437.42c0-3.32 2.68-6 6-6h102.56c3.32 0 6 2.68 6 6v18.8c0 3.33-2.68 6-6 6h-102.56c-3.32 0-6-2.67-6-6z" stroke="#000" stroke-opacity="0" stroke-width="3" fill="#fff" fill-opacity="0"/><use xlink:href="#e" transform="matrix(1,0,0,1,1085.8675990495503,436.4173228346456) translate(0.030864197530853232 17.77777777777778)"/><path d="M670.28 908.14c0-3.3 2.68-6 6-6h88c3.3 0 6 2.7 6 6v28c0 3.3-2.7 6-6 6h-88c-3.32 0-6-2.7-6-6z" stroke="#000" stroke-opacity="0" stroke-width="3" fill="#fff" fill-opacity="0"/><use xlink:href="#f" transform="matrix(1,0,0,1,675.2764860023076,907.1395836621214) translate(-2.4691358024691326 19.444444444444443)"/><path d="M912.18 1086.62c0-3.32 2.68-6 6-6h28c3.3 0 6 2.68 6 6v28c0 3.3-2.7 6-6 6h-28c-3.32 0-6-2.7-6-6z" stroke="#000" stroke-opacity="0" stroke-width="3" fill="#fff" fill-opacity="0"/><use xlink:href="#c" transform="matrix(1,0,0,1,917.1767484694992,1085.6157245468373) translate(-0.40123456790123413 19.444444444444443)"/><path d="M859.9 896.1c0-3.33 2.68-6 6-6h132.56c3.3 0 6 2.67 6 6v12.97c0 3.3-2.7 6-6 6H865.9c-3.32 0-6-2.7-6-6z" stroke="#000" stroke-opacity="0" stroke-width="3" fill="#fff" fill-opacity="0"/><use xlink:href="#g" transform="matrix(1,0,0,1,864.89328390257,895.0873144165473) translate(5.771604938271615 17.77777777777778)"/><use xlink:href="#h" transform="matrix(1,0,0,1,864.89328390257,895.0873144165473) translate(116.88271604938271 17.77777777777778)"/><use xlink:href="#i" transform="matrix(1,0,0,1,864.89328390257,895.0873144165473) translate(42.870370370370374 44.44444444444444)"/><path d="M928.57 398.9c0 2.08-1.73 3.77-3.87 3.77s-3.87-1.7-3.87-3.78c0-2.1 1.73-3.8 3.87-3.8s3.87 1.7 3.87 3.8z" stroke="#000" stroke-width="3"/><path d="M924.7 338.3V392" stroke="#000" stroke-width="3" fill="none"/><path d="M926.2 338.34h-3v-1.54h3M926.2 394.1l-1.5-.6-1.5.6v-2.14h3"/><path d="M1044.92 507.2V398.9H931.7" stroke="#000" stroke-width="3" fill="none"/><path d="M1034.74 489.76l10.18 17.2 10.18-17.2" stroke="#000" stroke-width="3" fill="none"/><path d="M931.74 400.4h-2.18l.64-1.5-.64-1.5h2.18"/><path d="M1026.96 815.74c0-3.3 2.7-6 6-6h4.82c3.3 0 6 2.7 6 6v16.4c0 3.3-2.7 6-6 6h-4.82c-3.3 0-6-2.7-6-6z" stroke="#000" stroke-opacity="0" stroke-width="3" fill="#fff" fill-opacity="0"/><use xlink:href="#j" transform="matrix(1,0,0,1,1031.96197773357,814.7440387539677) translate(-2.6728395061728394 17.77777777777778)"/><path d="M825.48 813.4c0-3.3 2.68-6 6-6h4.8c3.32 0 6 2.7 6 6v18.74c0 3.3-2.68 6-6 6h-4.8c-3.32 0-6-2.7-6-6z" stroke="#000" stroke-opacity="0" stroke-width="3" fill="#fff" fill-opacity="0"/><use xlink:href="#j" transform="matrix(1,0,0,1,830.4750543594025,812.4107054206344) translate(-2.6728395061728394 17.77777777777778)"/><path d="M904 1012.14c0-3.3 2.7-6 6-6h8.44c3.32 0 6 2.7 6 6v18.4c0 3.3-2.68 6-6 6H910c-3.3 0-6-2.7-6-6z" stroke="#000" stroke-opacity="0" stroke-width="3" fill="#fff" fill-opacity="0"/><use xlink:href="#j" transform="matrix(1,0,0,1,909.0131656113974,1011.1426512772895) translate(-0.6728395061728394 17.77777777777778)"/><path d="M904 353.77c0-3.32 2.7-6 6-6h4.83c3.3 0 6 2.68 6 6v18.72c0 3.3-2.7 6-6 6H910c-3.3 0-6-2.7-6-6z" stroke="#000" stroke-opacity="0" stroke-width="3" fill="#fff" fill-opacity="0"/><use xlink:href="#j" transform="matrix(1,0,0,1,909.0131656113974,352.76790580285905) translate(-2.6728395061728394 17.77777777777778)"/><path d="M1178.47 535.97c0-3.3 2.7-6 6-6h4.96c3.32 0 6 2.7 6 6V546c0 3.3-2.68 6-6 6h-4.96c-3.3 0-6-2.7-6-6z" stroke="#000" stroke-opacity="0" stroke-width="3" fill="#fff" fill-opacity="0"/><use xlink:href="#k" transform="matrix(1,0,0,1,1183.4691213260203,534.9705494602224) translate(-2.6728395061728394 17.77777777777778)"/><path d="M1136.36 569h89.44" stroke="#000" stroke-width="3" fill="none"/><path d="M1136.4 570.5h-1.54v-3h1.54"/><path d="M1208.37 579.18L1225.6 569l-17.23-10.18M733.53 710.1H644.2" stroke="#000" stroke-width="3" fill="none"/><path d="M735.03 711.6h-1.53v-3h1.53"/><path d="M661.65 699.93l-17.22 10.18 17.22 10.2M927.07 710.1h-72.92" stroke="#000" stroke-width="3" fill="none"/><path d="M928.57 711.6h-1.54v-3h1.54"/><path d="M871.58 699.93l-17.2 10.18 17.2 10.2" stroke="#000" stroke-width="3" fill="none"/><path d="M556.97 692.75c0-3.3 2.68-6 6-6h72.5c3.33 0 6 2.7 6 6v34.7c0 3.33-2.67 6-6 6h-72.5c-3.32 0-6-2.67-6-6z" stroke="#000" stroke-opacity="0" stroke-width="3" fill="#fff" fill-opacity="0"/><use xlink:href="#l" transform="matrix(1,0,0,1,561.9654068573882,691.7503880900094) translate(6.111111111111114 22.40277777777778)"/><path d="M928.57 692.75c0-3.3 2.7-6 6-6h16.9c3.3 0 6 2.7 6 6v34.7c0 3.33-2.7 6-6 6h-16.9c-3.3 0-6-2.67-6-6z" stroke="#000" stroke-opacity="0" stroke-width="3" fill="#fff" fill-opacity="0"/><use xlink:href="#m" transform="matrix(1,0,0,1,933.570865123371,691.7503880900094) translate(3.3271604938271606 22.40277777777778)"/><path d="M1228.53 551.64c0-3.3 2.7-6 6-6h72.52c3.32 0 6 2.7 6 6v34.7c0 3.33-2.68 6-6 6h-72.52c-3.3 0-6-2.67-6-6z" stroke="#000" stroke-opacity="0" stroke-width="3" fill="#fff" fill-opacity="0"/><use xlink:href="#n" transform="matrix(1,0,0,1,1233.5342056237262,550.6428514220762) translate(6.697530864197535 22.40277777777778)"/><path d="M942.7 568.1H1015.75" stroke="#000" stroke-width="3" fill="none"/><path d="M942.75 569.6h-1.54v-3h1.55"/><path d="M998.3 578.28l17.23-10.18-17.22-10.18" stroke="#000" stroke-width="3" fill="none"/><path d="M912.18 550.75c0-3.3 2.68-6 6-6h17.03c3.33 0 6 2.7 6 6v34.72c0 3.3-2.67 6-6 6H918.2c-3.32 0-6-2.7-6-6z" stroke="#000" stroke-opacity="0" stroke-width="3" fill="#fff" fill-opacity="0"/><use xlink:href="#m" transform="matrix(1,0,0,1,917.1767484694992,549.7547072790795) translate(3.8271604938271606 22.40277777777778)"/><path d="M689.32 721l10.84-21.8M689.34 720.97l-.68 1.38M700.14 699.24l.7-1.38M1175.53 579.9l10.83-21.8M1175.55 579.86l-.7 1.38M1186.35 558.13l.68-1.37M893.54 721l10.83-21.8M893.55 720.97l-.68 1.38M904.35 699.24l.7-1.38M1027.62 812.2l10.84-21.8M1027.64 812.15l-.68 1.38M1038.44 790.43l.68-1.38M828.93 811.72l10.83-21.8M828.95 811.68l-.7 1.38M839.75 789.95l.68-1.37M926.76 1031.68l10.83-21.8M926.78 1031.64l-.7 1.38M937.58 1009.9l.68-1.36M968.53 579l10.83-21.8M968.55 578.97l-.7 1.38M979.35 557.25l.68-1.38" stroke="#000" stroke-width="3" fill="none"/><path d="M691.32 676.35c0-3.3 2.7-6 6-6h4.97c3.3 0 6 2.7 6 6v10.03c0 3.32-2.7 6-6 6h-4.98c-3.3 0-6-2.68-6-6z" stroke="#000" stroke-opacity="0" stroke-width="3" fill="#fff" fill-opacity="0"/><use xlink:href="#k" transform="matrix(1,0,0,1,696.3215199938077,675.3520581137544) translate(-2.6728395061728394 17.77777777777778)"/><path d="M970.06 535.86c0-3.32 2.68-6 6-6h4.96c3.32 0 6 2.68 6 6v10.03c0 3.3-2.68 6-6 6h-4.96c-3.32 0-6-2.7-6-6z" stroke="#000" stroke-opacity="0" stroke-width="3" fill="#fff" fill-opacity="0"/><use xlink:href="#k" transform="matrix(1,0,0,1,975.0582911116699,534.8566274189727) translate(-2.6728395061728394 17.77777777777778)"/><path d="M895.2 676.35c0-3.3 2.7-6 6-6h4.98c3.3 0 6 2.7 6 6v10.03c0 3.32-2.7 6-6 6h-4.97c-3.3 0-6-2.68-6-6z" stroke="#000" stroke-opacity="0" stroke-width="3" fill="#fff" fill-opacity="0"/><use xlink:href="#k" transform="matrix(1,0,0,1,900.2113416121109,675.3520581137544) translate(-2.6728395061728394 17.77777777777778)"/><path d="M918.75 375.76l10.83-21.8M918.76 375.72l-.68 1.38M929.56 354l.7-1.38M1005.13 409.8l10.83-21.8M1005.14 409.76l-.68 1.37M1015.94 388.03l.7-1.38M848.4 409.8l10.83-21.8M848.4 409.76l-.67 1.37M859.2 388.03l.7-1.38" stroke="#000" stroke-width="3" fill="none"/><path d="M849.92 406.7c0-3.32 2.7-6 6-6h4.82c3.3 0 6 2.68 6 6v18.72c0 3.3-2.7 6-6 6h-4.82c-3.3 0-6-2.7-6-6z" stroke="#000" stroke-opacity="0" stroke-width="3" fill="#fff" fill-opacity="0"/><g><use xlink:href="#j" transform="matrix(1,0,0,1,854.9204796240371,405.6915122083267) translate(-2.6728395061728394 17.77777777777778)"/></g><path d="M1004.46 406.7c0-3.32 2.7-6 6-6h4.8c3.33 0 6 2.68 6 6v18.72c0 3.3-2.67 6-6 6h-4.8c-3.3 0-6-2.7-6-6z" stroke="#000" stroke-opacity="0" stroke-width="3" fill="#fff" fill-opacity="0"/><g><use xlink:href="#j" transform="matrix(1,0,0,1,1009.4602130364284,405.6915122083267) translate(-2.6728395061728394 17.77777777777778)"/></g><defs><path d="M118-107v75H92v-75H18v-26h74v-75h26v75h74v26h-74" id="o"/><use transform="matrix(0.25308641975308593,0,0,0.25308641975308593,0,0)" xlink:href="#o" id="a"/><path d="M16-82v-28h88v28H16" id="p"/><use transform="matrix(0.28395061728395,0,0,0.28395061728395,0,0)" xlink:href="#p" id="b"/><path d="M30-248c87 1 191-15 191 75 0 78-77 80-158 76V0H30v-248zm33 125c57 0 124 11 124-50 0-59-68-47-124-48v98" id="q"/><path d="M197 0v-115H63V0H30v-248h33v105h134v-105h34V0h-34" id="r"/><g id="c"><use transform="matrix(0.06172839506172839,0,0,0.06172839506172839,0,0)" xlink:href="#q"/><use transform="matrix(0.06172839506172839,0,0,0.06172839506172839,14.814814814814813,0)" xlink:href="#r"/></g><path d="M101-251c68 0 85 55 85 127S166 4 100 4C33 4 14-52 14-124c0-73 17-127 87-127zm-1 229c47 0 54-49 54-102s-4-102-53-102c-51 0-55 48-55 102 0 53 5 102 54 102" id="s"/><path d="M33 0v-38h34V0H33" id="t"/><path d="M27 0v-27h64v-190l-56 39v-29l58-41h29v221h61V0H27" id="u"/><g id="d"><use transform="matrix(0.06172839506172839,0,0,0.06172839506172839,0,0)" xlink:href="#s"/><use transform="matrix(0.06172839506172839,0,0,0.06172839506172839,12.345679012345679,0)" xlink:href="#s"/><use transform="matrix(0.06172839506172839,0,0,0.06172839506172839,24.691358024691358,0)" xlink:href="#s"/><use transform="matrix(0.06172839506172839,0,0,0.06172839506172839,37.03703703703704,0)" xlink:href="#s"/><use transform="matrix(0.06172839506172839,0,0,0.06172839506172839,49.382716049382715,0)" xlink:href="#t"/><use transform="matrix(0.06172839506172839,0,0,0.06172839506172839,55.55555555555556,0)" xlink:href="#u"/><use transform="matrix(0.06172839506172839,0,0,0.06172839506172839,67.90123456790124,0)" xlink:href="#s"/><use transform="matrix(0.06172839506172839,0,0,0.06172839506172839,80.24691358024693,0)" xlink:href="#s"/><use transform="matrix(0.06172839506172839,0,0,0.06172839506172839,92.59259259259261,0)" xlink:href="#s"/></g><g id="e"><use transform="matrix(0.06172839506172839,0,0,0.06172839506172839,0,0)" xlink:href="#s"/><use transform="matrix(0.06172839506172839,0,0,0.06172839506172839,12.345679012345679,0)" xlink:href="#s"/><use transform="matrix(0.06172839506172839,0,0,0.06172839506172839,24.691358024691358,0)" xlink:href="#s"/><use transform="matrix(0.06172839506172839,0,0,0.06172839506172839,37.03703703703704,0)" xlink:href="#s"/><use transform="matrix(0.06172839506172839,0,0,0.06172839506172839,49.382716049382715,0)" xlink:href="#t"/><use transform="matrix(0.06172839506172839,0,0,0.06172839506172839,55.55555555555556,0)" xlink:href="#s"/><use transform="matrix(0.06172839506172839,0,0,0.06172839506172839,67.90123456790124,0)" xlink:href="#u"/><use transform="matrix(0.06172839506172839,0,0,0.06172839506172839,80.24691358024693,0)" xlink:href="#s"/><use transform="matrix(0.06172839506172839,0,0,0.06172839506172839,92.59259259259261,0)" xlink:href="#s"/></g><path d="M127-220V0H93v-220H8v-28h204v28h-85" id="v"/><path d="M33 0v-248h34V0H33" id="w"/><path d="M140-251c81 0 123 46 123 126C263-46 219 4 140 4 59 4 17-45 17-125s42-126 123-126zm0 227c63 0 89-41 89-101s-29-99-89-99c-61 0-89 39-89 99S79-25 140-24" id="x"/><path d="M-5 72V49h209v23H-5" id="y"/><g id="f"><use transform="matrix(0.06172839506172839,0,0,0.06172839506172839,0,0)" xlink:href="#v"/><use transform="matrix(0.06172839506172839,0,0,0.06172839506172839,13.518518518518517,0)" xlink:href="#w"/><use transform="matrix(0.06172839506172839,0,0,0.06172839506172839,19.691358024691358,0)" xlink:href="#q"/><use transform="matrix(0.06172839506172839,0,0,0.06172839506172839,34.50617283950617,0)" xlink:href="#x"/><use transform="matrix(0.06172839506172839,0,0,0.06172839506172839,51.79012345679012,0)" xlink:href="#y"/><use transform="matrix(0.06172839506172839,0,0,0.06172839506172839,64.1358024691358,0)" xlink:href="#q"/><use transform="matrix(0.06172839506172839,0,0,0.06172839506172839,78.9506172839506,0)" xlink:href="#r"/></g><use transform="matrix(0.06172839506172839,0,0,0.06172839506172839,0,0)" xlink:href="#s" id="g"/><use transform="matrix(0.06172839506172839,0,0,0.06172839506172839,0,0)" xlink:href="#u" id="h"/><path d="M240 0l2-218c-23 76-54 145-80 218h-23L58-218 59 0H30v-248h44l77 211c21-75 51-140 76-211h43V0h-30" id="z"/><path d="M232-93c-1 65-40 97-104 97C67 4 28-28 28-90v-158h33c8 89-33 224 67 224 102 0 64-133 71-224h33v155" id="A"/><path d="M195 0l-74-108L45 0H8l94-129-87-119h37l69 98 67-98h37l-84 118L233 0h-38" id="B"/><g id="i"><use transform="matrix(0.06172839506172839,0,0,0.06172839506172839,0,0)" xlink:href="#z"/><use transform="matrix(0.06172839506172839,0,0,0.06172839506172839,18.456790123456788,0)" xlink:href="#A"/><use transform="matrix(0.06172839506172839,0,0,0.06172839506172839,34.44444444444444,0)" xlink:href="#B"/></g><path d="M134-131c28 9 52 24 51 62-1 50-34 73-85 73S17-19 16-69c0-36 21-54 49-61-75-25-45-126 34-121 46 3 78 18 79 63 0 33-17 51-44 57zm-34-11c31 1 46-15 46-44 0-28-17-43-47-42-29 0-46 13-45 42 1 28 16 44 46 44zm1 122c35 0 51-18 51-52 0-30-18-46-53-46-33 0-51 17-51 47 0 34 19 51 53 51" id="C"/><use transform="matrix(0.06172839506172839,0,0,0.06172839506172839,0,0)" xlink:href="#C" id="j"/><use transform="matrix(0.06172839506172839,0,0,0.06172839506172839,0,0)" xlink:href="#u" id="k"/><path d="M212-179c-10-28-35-45-73-45-59 0-87 40-87 99 0 60 29 101 89 101 43 0 62-24 78-52l27 14C228-24 195 4 139 4 59 4 22-46 18-125c-6-104 99-153 187-111 19 9 31 26 39 46" id="D"/><g id="l"><use transform="matrix(0.06172839506172839,0,0,0.06172839506172839,0,0)" xlink:href="#D"/><use transform="matrix(0.06172839506172839,0,0,0.06172839506172839,15.987654320987653,0)" xlink:href="#x"/><use transform="matrix(0.06172839506172839,0,0,0.06172839506172839,33.2716049382716,0)" xlink:href="#A"/><use transform="matrix(0.06172839506172839,0,0,0.06172839506172839,49.25925925925925,0)" xlink:href="#v"/></g><use transform="matrix(0.06172839506172839,0,0,0.06172839506172839,0,0)" xlink:href="#s" id="m"/><path d="M160-131c35 5 61 23 61 61C221 17 115-2 30 0v-248c76 3 177-17 177 60 0 33-19 50-47 57zm-97-11c50-1 110 9 110-42 0-47-63-36-110-37v79zm0 115c55-2 124 14 124-45 0-56-70-42-124-44v89" id="E"/><g id="n"><use transform="matrix(0.06172839506172839,0,0,0.06172839506172839,0,0)" xlink:href="#E"/><use transform="matrix(0.06172839506172839,0,0,0.06172839506172839,14.814814814814813,0)" xlink:href="#x"/><use transform="matrix(0.06172839506172839,0,0,0.06172839506172839,32.09876543209876,0)" xlink:href="#A"/><use transform="matrix(0.06172839506172839,0,0,0.06172839506172839,48.08641975308641,0)" xlink:href="#v"/></g></defs></g></svg>