<svg xmlns="http://www.w3.org/2000/svg" xmlns:xlink="http://www.w3.org/1999/xlink" xmlns:lucid="lucid" width="929.33" height="367.77"><g transform="translate(-210.66666666666666 -140)" lucid:page-tab-id="0_0"><path d="M0 0h1870.87v1322.83H0z" fill="#fff"/><path d="M560 360h113.4v113.4H560z" stroke="#000" stroke-width="3" fill="#fff"/><use xlink:href="#a" transform="matrix(1,0,0,1,565,365) translate(26.722222222222225 72.58333333333333)"/><path d="M560 160h113.4v113.4H560z" stroke="#000" stroke-width="3" fill="#fff"/><use xlink:href="#b" transform="matrix(1,0,0,1,565,165) translate(26.722222222222225 72.58333333333333)"/><path d="M740 240v160h48V240zM932 240v160h48V240z" fill="none"/><path d="M809.6 280H740m69.6 80H740zm129.6-40H980zm-141.36-64l4.8 7.84s13.68 22.4 13.68 56.16-13.68 56.16-13.68 56.16l-4.8 7.84h41.28c5.76 0 18.24 0 32.64-7.68 14.16-7.84 30-23.52 42.48-54.08v-4.48C889.52 256.64 850.4 256 839.12 256h-41.28zm141.36 64c0 7.07-5.37 12.8-12 12.8s-12-5.73-12-12.8 5.37-12.8 12-12.8 12 5.73 12 12.8" stroke="#000" stroke-width="3" fill="#fff"/><path d="M676.4 216.7H710V280h28.5" stroke="#000" stroke-width="3" fill="none"/><path d="M676.42 218.2h-1.53v-3h1.52M740 281.5h-1.54v-3H740"/><path d="M676.4 416.7H710V360h28.5" stroke="#000" stroke-width="3" fill="none"/><path d="M676.42 418.2h-1.53v-3h1.52M740 361.5h-1.54v-3H740"/><path d="M230.67 306c0-3.3 2.68-6 6-6h28c3.3 0 6 2.7 6 6v28c0 3.3-2.7 6-6 6h-28c-3.32 0-6-2.7-6-6z" stroke="#000" stroke-opacity="0" stroke-width="3" fill="#fff" fill-opacity="0"/><use xlink:href="#c" transform="matrix(1,0,0,1,235.66666666666666,305) translate(-0.40123456790123413 19.444444444444443)"/><path d="M494.9 389.33h60.87" stroke="#000" stroke-width="3" fill="none"/><path d="M494.92 390.83h-1.53v-3h1.52"/><path d="M538.34 399.5l17.2-10.17-17.2-10.18M494.9 188h60.87" stroke="#000" stroke-width="3" fill="none"/><path d="M494.92 189.5h-1.53v-3h1.52"/><path d="M538.34 198.18l17.2-10.18-17.2-10.18M330.12 313.16v-67.83h225.65" stroke="#000" stroke-width="3" fill="none"/><path d="M331.62 315.15l-1.36-.55-1.64.67v-2.15h3"/><path d="M538.34 255.5l17.2-10.17-17.2-10.18" stroke="#000" stroke-width="3" fill="none"/><path d="M376.05 174.67c0-3.32 2.7-6 6-6H487.4c3.3 0 6 2.68 6 6v26.66c0 3.32-2.7 6-6 6H382.04c-3.3 0-6-2.68-6-6z" stroke="#000" stroke-opacity="0" stroke-width="3" fill="#fff" fill-opacity="0"/><use xlink:href="#d" transform="matrix(1,0,0,1,381.05249343830087,173.6666666666667) translate(1.5308641975308532 19.59027777777778)"/><path d="M381.4 376.67c0-3.32 2.67-6 6-6h100c3.3 0 6 2.68 6 6V402c0 3.3-2.7 6-6 6h-100c-3.33 0-6-2.7-6-6z" stroke="#000" stroke-opacity="0" stroke-width="3" fill="#fff" fill-opacity="0"/><use xlink:href="#e" transform="matrix(1,0,0,1,386.38582677161475,375.6666666666667) translate(0.6975308641975246 19.52777777777778)"/><path d="M334.14 320c0 2.1-1.74 3.78-3.88 3.78-2.13 0-3.87-1.7-3.87-3.78 0-2.1 1.73-3.78 3.86-3.78 2.14 0 3.88 1.7 3.88 3.78z" stroke="#000" stroke-width="3"/><path d="M272.17 320h51.1" stroke="#000" stroke-width="3" fill="none"/><path d="M272.2 321.5h-1.53v-3h1.54M324.76 320l.64 1.5h-2.18v-3h2.18"/><path d="M555.77 443.27h-225.5V326.9" stroke="#000" stroke-width="3" fill="none"/><path d="M538.34 453.45l17.2-10.18-17.2-10.18" stroke="#000" stroke-width="3" fill="none"/><path d="M330.26 325.4l1.5-.6v2.14h-3v-2.15"/><path d="M434.14 463.05c0-3.32 2.7-6 6-6h4.82c3.3 0 6 2.68 6 6v18.72c0 3.32-2.7 6-6 6h-4.82c-3.3 0-6-2.68-6-6z" stroke="#000" stroke-opacity="0" stroke-width="3" fill="#fff" fill-opacity="0"/><use xlink:href="#f" transform="matrix(1,0,0,1,439.14296152268383,462.0474444739136) translate(-2.6728395061728394 17.77777777777778)"/><path d="M435.16 453.82l10.84-21.8M435.18 453.78l-.68 1.38M445.98 432.05l.68-1.37" stroke="#000" stroke-width="3" fill="none"/><path d="M434.14 262.14c0-3.3 2.7-6 6-6h4.82c3.3 0 6 2.7 6 6v18.73c0 3.3-2.7 6-6 6h-4.82c-3.3 0-6-2.7-6-6z" stroke="#000" stroke-opacity="0" stroke-width="3" fill="#fff" fill-opacity="0"/><use xlink:href="#f" transform="matrix(1,0,0,1,439.14296152268383,261.14481653186544) translate(-2.6728395061728394 17.77777777777778)"/><path d="M435.16 255.2L446 233.4M435.18 255.16l-.68 1.38M445.98 233.43l.68-1.38" stroke="#000" stroke-width="3" fill="none"/><path d="M291.7 335.27c0-3.3 2.7-6 6-6h4.82c3.3 0 6 2.7 6 6V354c0 3.3-2.7 6-6 6h-4.82c-3.3 0-6-2.7-6-6z" stroke="#000" stroke-opacity="0" stroke-width="3" fill="#fff" fill-opacity="0"/><use xlink:href="#f" transform="matrix(1,0,0,1,296.7048514357686,334.2741893736811) translate(-2.6728395061728394 17.77777777777778)"/><path d="M295.48 331.23l10.84-21.8M295.5 331.2l-.7 1.37M306.3 309.47l.68-1.38" stroke="#000" stroke-width="3" fill="none"/><path d="M750.57 244.88c0-3.32 2.7-6 6-6h4.82c3.3 0 6 2.68 6 6v18.72c0 3.3-2.7 6-6 6h-4.83c-3.3 0-6-2.7-6-6z" stroke="#000" stroke-opacity="0" stroke-width="3" fill="#fff" fill-opacity="0"/><use xlink:href="#g" transform="matrix(1,0,0,1,755.5712548616723,243.87539841897103) translate(-2.6728395061728394 17.77777777777778)"/><path d="M754.6 291.5l10.84-21.8M754.62 291.47l-.68 1.38M765.42 269.74l.68-1.38" stroke="#000" stroke-width="3" fill="none"/><path d="M749.57 378.6c0-3.32 2.68-6 6-6h4.8c3.32 0 6 2.68 6 6v18.72c0 3.32-2.68 6-6 6h-4.8c-3.32 0-6-2.68-6-6z" stroke="#000" stroke-opacity="0" stroke-width="3" fill="#fff" fill-opacity="0"/><use xlink:href="#g" transform="matrix(1,0,0,1,754.5660504158343,377.5959776422737) translate(-2.6728395061728394 17.77777777777778)"/><path d="M751.9 372.35l10.83-21.8M751.9 372.3l-.67 1.4M762.7 350.58l.7-1.38M981.5 320h-1.32" stroke="#000" stroke-width="3" fill="none"/><path d="M981.54 321.5H980v-3h1.54"/><path d="M995.15 320.6l-14.44 4.06.38-9.26z" stroke="#000" stroke-width="3"/><path d="M1000 301.8c0-3.3 2.7-6 6-6h108c3.3 0 6 2.7 6 6v38c0 3.32-2.7 6-6 6h-108c-3.3 0-6-2.68-6-6z" stroke="#000" stroke-opacity="0" stroke-width="3" fill="#fff" fill-opacity="0"/><use xlink:href="#h" transform="matrix(1,0,0,1,1005,300.8037169327362) translate(8.20987654320988 25.27777777777778)"/><path d="M954.64 332.18l10.83-21.8M954.66 332.15l-.7 1.37M965.46 310.42l.68-1.38" stroke="#000" stroke-width="3" fill="none"/><path d="M951.68 284.44c0-3.3 2.68-6 6-6h4.8c3.33 0 6 2.7 6 6v18.73c0 3.3-2.67 6-6 6h-4.8c-3.32 0-6-2.7-6-6z" stroke="#000" stroke-opacity="0" stroke-width="3" fill="#fff" fill-opacity="0"/><use xlink:href="#g" transform="matrix(1,0,0,1,956.6779483003857,283.4434659288751) translate(-2.6728395061728394 17.77777777777778)"/><defs><path d="M18-100v-36l175-74v27L42-118l151 64v27" id="i"/><use transform="matrix(0.24074074074074073,0,0,0.24074074074074073,0,0)" xlink:href="#i" id="a"/><path d="M18-27v-27l151-64-151-65v-27l175 74v36" id="j"/><use transform="matrix(0.24074074074074073,0,0,0.24074074074074073,0,0)" xlink:href="#j" id="b"/><path d="M30-248c87 1 191-15 191 75 0 78-77 80-158 76V0H30v-248zm33 125c57 0 124 11 124-50 0-59-68-47-124-48v98" id="k"/><path d="M197 0v-115H63V0H30v-248h33v105h134v-105h34V0h-34" id="l"/><g id="c"><use transform="matrix(0.06172839506172839,0,0,0.06172839506172839,0,0)" xlink:href="#k"/><use transform="matrix(0.06172839506172839,0,0,0.06172839506172839,14.814814814814813,0)" xlink:href="#l"/></g><path d="M27 0v-27h64v-190l-56 39v-29l58-41h29v221h61V0H27" id="m"/><path d="M101-251c68 0 85 55 85 127S166 4 100 4C33 4 14-52 14-124c0-73 17-127 87-127zm-1 229c47 0 54-49 54-102s-4-102-53-102c-51 0-55 48-55 102 0 53 5 102 54 102" id="n"/><path d="M33 0v-38h34V0H33" id="o"/><g id="d"><use transform="matrix(0.06172839506172839,0,0,0.06172839506172839,0,0)" xlink:href="#m"/><use transform="matrix(0.06172839506172839,0,0,0.06172839506172839,12.345679012345679,0)" xlink:href="#n"/><use transform="matrix(0.06172839506172839,0,0,0.06172839506172839,24.691358024691358,0)" xlink:href="#n"/><use transform="matrix(0.06172839506172839,0,0,0.06172839506172839,37.03703703703704,0)" xlink:href="#n"/><use transform="matrix(0.06172839506172839,0,0,0.06172839506172839,49.382716049382715,0)" xlink:href="#o"/><use transform="matrix(0.06172839506172839,0,0,0.06172839506172839,55.55555555555556,0)" xlink:href="#n"/><use transform="matrix(0.06172839506172839,0,0,0.06172839506172839,67.90123456790124,0)" xlink:href="#n"/><use transform="matrix(0.06172839506172839,0,0,0.06172839506172839,80.24691358024693,0)" xlink:href="#n"/><use transform="matrix(0.06172839506172839,0,0,0.06172839506172839,92.59259259259261,0)" xlink:href="#n"/></g><g id="e"><use transform="matrix(0.06172839506172839,0,0,0.06172839506172839,0,0)" xlink:href="#n"/><use transform="matrix(0.06172839506172839,0,0,0.06172839506172839,12.345679012345679,0)" xlink:href="#m"/><use transform="matrix(0.06172839506172839,0,0,0.06172839506172839,23.02469135802469,0)" xlink:href="#m"/><use transform="matrix(0.06172839506172839,0,0,0.06172839506172839,33.7037037037037,0)" xlink:href="#m"/><use transform="matrix(0.06172839506172839,0,0,0.06172839506172839,46.04938271604938,0)" xlink:href="#o"/><use transform="matrix(0.06172839506172839,0,0,0.06172839506172839,52.22222222222222,0)" xlink:href="#n"/><use transform="matrix(0.06172839506172839,0,0,0.06172839506172839,64.5679012345679,0)" xlink:href="#n"/><use transform="matrix(0.06172839506172839,0,0,0.06172839506172839,76.91358024691358,0)" xlink:href="#n"/><use transform="matrix(0.06172839506172839,0,0,0.06172839506172839,89.25925925925927,0)" xlink:href="#n"/></g><path d="M134-131c28 9 52 24 51 62-1 50-34 73-85 73S17-19 16-69c0-36 21-54 49-61-75-25-45-126 34-121 46 3 78 18 79 63 0 33-17 51-44 57zm-34-11c31 1 46-15 46-44 0-28-17-43-47-42-29 0-46 13-45 42 1 28 16 44 46 44zm1 122c35 0 51-18 51-52 0-30-18-46-53-46-33 0-51 17-51 47 0 34 19 51 53 51" id="p"/><use transform="matrix(0.06172839506172839,0,0,0.06172839506172839,0,0)" xlink:href="#p" id="f"/><use transform="matrix(0.06172839506172839,0,0,0.06172839506172839,0,0)" xlink:href="#m" id="g"/><path d="M190 0L58-211 59 0H30v-248h39L202-35l-2-213h31V0h-41" id="q"/><path d="M30 0v-248h187v28H63v79h144v27H63v87h162V0H30" id="r"/><path d="M232-93c-1 65-40 97-104 97C67 4 28-28 28-90v-158h33c8 89-33 224 67 224 102 0 64-133 71-224h33v155" id="s"/><path d="M127-220V0H93v-220H8v-28h204v28h-85" id="t"/><path d="M233-177c-1 41-23 64-60 70L243 0h-38l-65-103H63V0H30v-248c88 3 205-21 203 71zM63-129c60-2 137 13 137-47 0-61-80-42-137-45v92" id="u"/><path d="M140-251c81 0 123 46 123 126C263-46 219 4 140 4 59 4 17-45 17-125s42-126 123-126zm0 227c63 0 89-41 89-101s-29-99-89-99c-61 0-89 39-89 99S79-25 140-24" id="v"/><g id="h"><use transform="matrix(0.06172839506172839,0,0,0.06172839506172839,0,0)" xlink:href="#q"/><use transform="matrix(0.06172839506172839,0,0,0.06172839506172839,15.987654320987653,0)" xlink:href="#r"/><use transform="matrix(0.06172839506172839,0,0,0.06172839506172839,30.80246913580247,0)" xlink:href="#s"/><use transform="matrix(0.06172839506172839,0,0,0.06172839506172839,46.79012345679012,0)" xlink:href="#t"/><use transform="matrix(0.06172839506172839,0,0,0.06172839506172839,60.30864197530864,0)" xlink:href="#u"/><use transform="matrix(0.06172839506172839,0,0,0.06172839506172839,76.29629629629629,0)" xlink:href="#v"/></g></defs></g></svg>