<svg xmlns="http://www.w3.org/2000/svg" xmlns:xlink="http://www.w3.org/1999/xlink" xmlns:lucid="lucid" width="1388.5" height="801.63"><g transform="translate(-241.18411517181232 -263.68734335397767)" lucid:page-tab-id="0_0"><path d="M0 0h1870.87v1322.83H0z" fill="#fff"/><path d="M261.18 438.02c0-27.6 22.4-50 50-50h1248.5c27.62 0 50 22.4 50 50V815.2c0 27.6-22.38 50-50 50H311.18c-27.6 0-50-22.4-50-50z" stroke="#000" stroke-width="3" fill="#dfe3e8" opacity=".84"/><path d="M776.3 565.25H935.7v.02h140.32" stroke="#000" stroke-width="3" fill="none"/><path d="M776.33 566.75h-1.04l-.7-2.07-.42-.93h2.15z" stroke="#000" stroke-width=".05"/><path d="M1091.8 565.27l-14.26 4.63v-9.27z" stroke="#000" stroke-width="3"/><path d="M779.58 615.98h293.14" stroke="#000" stroke-width="3" fill="none"/><path d="M779.62 617.48h-1.54v-3h1.54z" stroke="#000" stroke-width=".05"/><path d="M1088.5 615.98l-14.28 4.64v-9.27z" stroke="#000" stroke-width="3"/><path d="M779.58 669.84h293.14" stroke="#000" stroke-width="3" fill="none"/><path d="M779.62 671.34h-1.54v-3h1.54z" stroke="#000" stroke-width=".05"/><path d="M1088.5 669.84l-14.28 4.63v-9.27z" stroke="#000" stroke-width="3"/><path d="M779.58 717.95h293.14" stroke="#000" stroke-width="3" fill="none"/><path d="M779.62 719.45h-1.54v-3h1.54z" stroke="#000" stroke-width=".05"/><path d="M1088.5 717.95l-14.28 4.63v-9.27z" stroke="#000" stroke-width="3"/><path d="M1095.25 774.8H935.7v-.02H795.23" stroke="#000" stroke-width="3" fill="none"/><path d="M1096.82 775l.58 1.3h-2.18v-3h1.04z" stroke="#000" stroke-width=".05"/><path d="M779.48 774.77l14.26-4.64v9.27z" stroke="#000" stroke-width="3"/><path d="M1094.84 583.34c0-27.62 22.38-50 50-50h334.58c27.62 0 50 22.38 50 50v173c0 27.6-22.38 50-50 50h-334.58c-27.62 0-50-22.4-50-50z" stroke="#000" stroke-width="3" fill="#aaa"/><use xlink:href="#a" transform="matrix(1,0,0,1,1106.8391595799462,545.3373201682149) translate(-6.549382716049195 141.38888888888886)"/><path d="M341.88 583.34c0-27.62 22.4-50 50-50h334.7c27.6 0 50 22.38 50 50v173c0 27.6-22.4 50-50 50h-334.7c-27.6 0-50-22.4-50-50z" stroke="#000" stroke-width="3" fill="#f6a355"/><use xlink:href="#b" transform="matrix(1,0,0,1,353.8824293631118,545.3372075597366) translate(116.59876543209884 137.5868055555555)"/><path d="M851.3 539.34c0-3.32 2.68-6 6-6h156.27c3.3 0 6 2.68 6 6v19.9c0 3.3-2.7 6-6 6H857.3c-3.32 0-6-2.7-6-6z" stroke="#000" stroke-opacity="0" stroke-width="3" fill="#fff" fill-opacity="0"/><use xlink:href="#c" transform="matrix(1,0,0,1,856.29838585528,538.3373201682149) translate(42.5246913580247 17.77777777777778)"/><path d="M794.73 591.18c0-3.3 2.7-6 6-6h269.4c3.32 0 6 2.7 6 6v19.9c0 3.3-2.68 6-6 6h-269.4c-3.3 0-6-2.7-6-6z" stroke="#000" stroke-opacity="0" stroke-width="3" fill="#fff" fill-opacity="0"/><use xlink:href="#d" transform="matrix(1,0,0,1,799.7331666647044,590.1827941492977) translate(23.839506172839535 17.77777777777778)"/><use xlink:href="#e" transform="matrix(1,0,0,1,799.7331666647044,590.1827941492977) translate(101.49382716049384 17.77777777777778)"/><path d="M851.3 689.85c0-3.3 2.68-6 6-6h156.27c3.3 0 6 2.7 6 6v20.26c0 3.33-2.7 6-6 6H857.3c-3.32 0-6-2.67-6-6z" stroke="#000" stroke-opacity="0" stroke-width="3" fill="#fff" fill-opacity="0"/><use xlink:href="#f" transform="matrix(1,0,0,1,856.29838585528,688.8505217162005) translate(34.617283950617285 17.77777777777778)"/><use xlink:href="#g" transform="matrix(1,0,0,1,856.29838585528,688.8505217162005) translate(92.58024691358025 17.77777777777778)"/><path d="M810.27 643.03c0-3.32 2.68-6 6-6h238.33c3.3 0 6 2.68 6 6V663c0 3.3-2.7 6-6 6H816.27c-3.32 0-6-2.7-6-6z" stroke="#000" stroke-opacity="0" stroke-width="3" fill="#fff" fill-opacity="0"/><use xlink:href="#h" transform="matrix(1,0,0,1,815.2660883702285,642.0282681303805) translate(18.833333333333357 17.77777777777778)"/><use xlink:href="#e" transform="matrix(1,0,0,1,815.2660883702285,642.0282681303805) translate(75.50000000000003 17.77777777777778)"/><path d="M851.57 780.07c0-3.3 2.7-6 6-6h156.27c3.32 0 6 2.7 6 6v20.26c0 3.32-2.68 6-6 6H857.57c-3.3 0-6-2.68-6-6z" stroke="#000" stroke-opacity="0" stroke-width="3" fill="#fff" fill-opacity="0"/><use xlink:href="#i" transform="matrix(1,0,0,1,856.5740457387267,779.0707604791783) translate(32.20987654320988 17.77777777777778)"/><path d="M433.24 328.3V511.2" stroke="#000" stroke-width="3" fill="none"/><path d="M434.74 328.33h-3v-1.54h3z" stroke="#000" stroke-width=".05"/><path d="M433.24 526.98l-4.64-14.26h9.27z" stroke="#000" stroke-width="3"/><path d="M559.23 328.3V511.2" stroke="#000" stroke-width="3" fill="none"/><path d="M560.73 328.33h-3v-1.54h3z" stroke="#000" stroke-width=".05"/><path d="M559.23 526.98l-4.63-14.26h9.27z" stroke="#000" stroke-width="3"/><path d="M930.18 419.7H685.52v91.52" stroke="#000" stroke-width="3" fill="none"/><path d="M931.68 419.7l.6 1.5h-2.13v-3h2.14z" stroke="#000" stroke-width=".05"/><path d="M685.52 526.98l-4.63-14.26h9.26z" stroke="#000" stroke-width="3"/><path d="M397.53 809.33v97.5" stroke="#000" stroke-width="3" fill="none"/><path d="M399.03 809.37h-3v-1.54h3z" stroke="#000" stroke-width=".05"/><path d="M397.53 922.6l-4.63-14.26h9.27z" stroke="#000" stroke-width="3"/><path d="M349.1 289.7c0-3.33 2.7-6 6-6h156.27c3.3 0 6 2.67 6 6v31.1c0 3.3-2.7 6-6 6H355.1c-3.3 0-6-2.7-6-6z" stroke="#000" stroke-opacity="0" stroke-width="3" fill="#fff" fill-opacity="0"/><use xlink:href="#j" transform="matrix(1,0,0,1,354.100577005423,288.68734335397767) translate(57.339506172839506 22.02777777777778)"/><path d="M475.1 289.7c0-3.33 2.68-6 6-6h156.27c3.3 0 6 2.67 6 6v31.1c0 3.3-2.7 6-6 6H481.1c-3.32 0-6-2.7-6-6z" stroke="#000" stroke-opacity="0" stroke-width="3" fill="#fff" fill-opacity="0"/><use xlink:href="#k" transform="matrix(1,0,0,1,480.0956806303094,288.68734335397767) translate(43.41975308641976 22.02777777777778)"/><path d="M852.7 289.7c0-3.33 2.7-6 6-6h156.27c3.3 0 6 2.67 6 6v31.1c0 3.3-2.7 6-6 6H858.7c-3.3 0-6-2.7-6-6z" stroke="#000" stroke-opacity="0" stroke-width="3" fill="#fff" fill-opacity="0"/><use xlink:href="#l" transform="matrix(1,0,0,1,857.7013360601723,288.68734335397767) translate(14.839506172839506 22.02777777777778)"/><use xlink:href="#m" transform="matrix(1,0,0,1,857.7013360601723,288.68734335397767) translate(51.81481481481482 22.02777777777778)"/><path d="M943.5 419.7h368.63v91.52" stroke="#000" stroke-width="3" fill="none"/><path d="M943.53 421.2h-2.15l.6-1.5-.6-1.5h2.15z" stroke="#000" stroke-width=".05"/><path d="M1312.13 526.98l-4.63-14.26h9.27z" stroke="#000" stroke-width="3"/><path d="M512.5 809.33v163.7" stroke="#000" stroke-width="3" fill="none"/><path d="M514 809.37h-3v-1.54h3z" stroke="#000" stroke-width=".05"/><path d="M512.5 988.8l-4.62-14.27h9.27z" stroke="#000" stroke-width="3"/><path d="M1229.46 809.33v97.5" stroke="#000" stroke-width="3" fill="none"/><path d="M1230.96 809.37h-3v-1.54h3z" stroke="#000" stroke-width=".05"/><path d="M1229.46 922.6l-4.64-14.26h9.27z" stroke="#000" stroke-width="3"/><path d="M622.23 809.33V906.85" stroke="#000" stroke-width="3" fill="none"/><path d="M623.73 809.37h-3v-1.54h3z" stroke="#000" stroke-width=".05"/><path d="M622.23 922.6l-4.64-14.26h9.26z" stroke="#000" stroke-width="3"/><path d="M734.45 808.7v164.32" stroke="#000" stroke-width="3" fill="none"/><path d="M735.95 808.74h-3v-1.36l2.44-.3.55-.12z" stroke="#000" stroke-width=".05"/><path d="M734.45 988.8l-4.63-14.27h9.27z" stroke="#000" stroke-width="3"/><path d="M1394.8 809.33v97.5" stroke="#000" stroke-width="3" fill="none"/><path d="M1396.3 809.37h-3v-1.54h3z" stroke="#000" stroke-width=".05"/><path d="M1394.8 922.6l-4.63-14.26h9.27z" stroke="#000" stroke-width="3"/><path d="M341.44 933.46c0-3.3 2.7-6 6-6h100.18c3.3 0 6 2.7 6 6v33.5c0 3.3-2.7 6-6 6H347.44c-3.3 0-6-2.7-6-6z" stroke="#000" stroke-opacity="0" stroke-width="3" fill="#fff" fill-opacity="0"/><use xlink:href="#n" transform="matrix(1,0,0,1,346.44152256867335,932.4611060946316) translate(26.25308641975309 17.77777777777778)"/><use xlink:href="#o" transform="matrix(1,0,0,1,346.44152256867335,932.4611060946316) translate(-21.833333333333314 44.44444444444444)"/><path d="M428.38 999.65c0-3.32 2.68-6 6-6h156.27c3.3 0 6 2.68 6 6v33.5c0 3.3-2.7 6-6 6H434.38c-3.32 0-6-2.7-6-6z" stroke="#000" stroke-opacity="0" stroke-width="3" fill="#fff" fill-opacity="0"/><use xlink:href="#p" transform="matrix(1,0,0,1,433.3781304884173,998.6479040000307) translate(32.06172839506173 17.77777777777778)"/><use xlink:href="#q" transform="matrix(1,0,0,1,433.3781304884173,998.6479040000307) translate(25.240740740740748 44.44444444444444)"/><path d="M579.52 933.46c0-3.3 2.7-6 6-6h73.4c3.33 0 6 2.7 6 6v33.5c0 3.3-2.67 6-6 6h-73.4c-3.3 0-6-2.7-6-6z" stroke="#000" stroke-opacity="0" stroke-width="3" fill="#fff" fill-opacity="0"/><use xlink:href="#r" transform="matrix(1,0,0,1,584.5235121812815,932.4611060946316) translate(-13.296296296296298 17.77777777777778)"/><use xlink:href="#s" transform="matrix(1,0,0,1,584.5235121812815,932.4611060946316) translate(2.290123456790127 44.44444444444444)"/><path d="M699.4 999.65c0-3.32 2.68-6 6-6h58.1c3.32 0 6 2.68 6 6v33.5c0 3.3-2.68 6-6 6h-58.1c-3.32 0-6-2.7-6-6z" stroke="#000" stroke-opacity="0" stroke-width="3" fill="#fff" fill-opacity="0"/><use xlink:href="#r" transform="matrix(1,0,0,1,704.3972132595724,998.6479040000307) translate(-20.796296296296298 17.77777777777778)"/><use xlink:href="#t" transform="matrix(1,0,0,1,704.3972132595724,998.6479040000307) translate(-12.617283950617285 44.44444444444444)"/><path d="M1187.4 933.46c0-3.3 2.68-6 6-6h72.12c3.32 0 6 2.7 6 6v33.5c0 3.3-2.68 6-6 6h-72.13c-3.32 0-6-2.7-6-6z" stroke="#000" stroke-opacity="0" stroke-width="3" fill="#fff" fill-opacity="0"/><g><use xlink:href="#u" transform="matrix(1,0,0,1,1192.3901179639881,932.4611060946316) translate(22.098765432098766 17.77777777777778)"/><use xlink:href="#v" transform="matrix(1,0,0,1,1192.3901179639881,932.4611060946316) translate(-2.499999999999993 44.44444444444444)"/></g><path d="M940.37 419.7c0 2-1.58 3.63-3.53 3.63-1.96 0-3.54-1.62-3.54-3.62 0-1.98 1.58-3.6 3.54-3.6 1.95 0 3.53 1.62 3.53 3.6z" stroke="#000" stroke-width="3"/><path d="M1364.14 933.46c0-3.3 2.7-6 6-6h49.33c3.32 0 6 2.7 6 6v33.5c0 3.3-2.68 6-6 6h-49.33c-3.3 0-6-2.7-6-6z" stroke="#000" stroke-opacity="0" stroke-width="3" fill="#fff" fill-opacity="0"/><g><use xlink:href="#w" transform="matrix(1,0,0,1,1369.140067010675,932.4611060946316) translate(-4.740740740740737 22.444444444444443)"/></g><path d="M936.84 328.3v84.66" stroke="#000" stroke-width="3" fill="none"/><path d="M938.34 328.33h-3v-1.54h3zM938.34 415.1l-1.5-.64-1.5.64v-2.17h3z" stroke="#000" stroke-width=".05"/><defs><path fill="#fff" d="M30-248c118-7 216 8 213 122C240-48 200 0 122 0H30v-248zM63-27c89 8 146-16 146-99s-60-101-146-95v194" id="x"/><path fill="#fff" d="M205 0l-28-72H64L36 0H1l101-248h38L239 0h-34zm-38-99l-47-123c-12 45-31 82-46 123h93" id="y"/><path fill="#fff" d="M127-220V0H93v-220H8v-28h204v28h-85" id="z"/><path fill="#fff" d="M30-248c87 1 191-15 191 75 0 78-77 80-158 76V0H30v-248zm33 125c57 0 124 11 124-50 0-59-68-47-124-48v98" id="A"/><path fill="#fff" d="M197 0v-115H63V0H30v-248h33v105h134v-105h34V0h-34" id="B"/><g id="a"><use transform="matrix(0.2345679012345677,0,0,0.2345679012345677,0,0)" xlink:href="#x"/><use transform="matrix(0.2345679012345677,0,0,0.2345679012345677,60.75308641975303,0)" xlink:href="#y"/><use transform="matrix(0.2345679012345677,0,0,0.2345679012345677,110.71604938271595,0)" xlink:href="#z"/><use transform="matrix(0.2345679012345677,0,0,0.2345679012345677,155.75308641975295,0)" xlink:href="#y"/><use transform="matrix(0.2345679012345677,0,0,0.2345679012345677,212.0493827160492,0)" xlink:href="#A"/><use transform="matrix(0.2345679012345677,0,0,0.2345679012345677,262.0123456790121,0)" xlink:href="#y"/><use transform="matrix(0.2345679012345677,0,0,0.2345679012345677,311.97530864197506,0)" xlink:href="#z"/><use transform="matrix(0.2345679012345677,0,0,0.2345679012345677,363.3456790123454,0)" xlink:href="#B"/></g><path fill="#fff" d="M63-220v92h138v28H63V0H30v-248h175v28H63" id="C"/><path fill="#fff" d="M185-189c-5-48-123-54-124 2 14 75 158 14 163 119 3 78-121 87-175 55-17-10-28-26-33-46l33-7c5 56 141 63 141-1 0-78-155-14-162-118-5-82 145-84 179-34 5 7 8 16 11 25" id="D"/><path fill="#fff" d="M240 0l2-218c-23 76-54 145-80 218h-23L58-218 59 0H30v-248h44l77 211c21-75 51-140 76-211h43V0h-30" id="E"/><g id="b"><use transform="matrix(0.2345679012345677,0,0,0.2345679012345677,0,0)" xlink:href="#C"/><use transform="matrix(0.2345679012345677,0,0,0.2345679012345677,51.370370370370324,0)" xlink:href="#D"/><use transform="matrix(0.2345679012345677,0,0,0.2345679012345677,107.66666666666657,0)" xlink:href="#E"/></g><path fill="#333" d="M240-174c0 40-23 61-54 70L253 0h-59l-57-94H76V0H24v-248c93 4 217-23 216 74zM76-134c48-2 112 12 112-38 0-48-66-32-112-35v73" id="F"/><path fill="#333" d="M24 0v-248h195v40H76v63h132v40H76v65h150V0H24" id="G"/><path fill="#333" d="M169-182c-1-43-94-46-97-3 18 66 151 10 154 114 3 95-165 93-204 36-6-8-10-19-12-30l50-8c3 46 112 56 116 5-17-69-150-10-154-114-4-87 153-88 188-35 5 8 8 18 10 28" id="H"/><path fill="#333" d="M136-208V0H84v-208H4v-40h212v40h-80" id="I"/><g id="c"><use transform="matrix(0.06172839506172839,0,0,0.06172839506172839,0,0)" xlink:href="#F"/><use transform="matrix(0.06172839506172839,0,0,0.06172839506172839,15.987654320987653,0)" xlink:href="#G"/><use transform="matrix(0.06172839506172839,0,0,0.06172839506172839,30.80246913580247,0)" xlink:href="#H"/><use transform="matrix(0.06172839506172839,0,0,0.06172839506172839,45.61728395061728,0)" xlink:href="#G"/><use transform="matrix(0.06172839506172839,0,0,0.06172839506172839,60.43209876543209,0)" xlink:href="#I"/></g><path fill="#333" d="M24 0v-248h52V0H24" id="J"/><path fill="#333" d="M175 0L67-191c6 58 2 128 3 191H24v-248h59L193-55c-6-58-2-129-3-193h46V0h-61" id="K"/><path fill="#333" d="M210 0H11v-37l134-170H24v-41h178v36L68-41h142V0" id="L"/><path fill="#333" d="M140-251c80 0 125 45 125 126S219 4 139 4C58 4 15-44 15-125s44-126 125-126zm-1 214c52 0 73-35 73-88 0-50-21-86-72-86-52 0-73 35-73 86s22 88 72 88" id="M"/><g id="d"><use transform="matrix(0.06172839506172839,0,0,0.06172839506172839,0,0)" xlink:href="#J"/><use transform="matrix(0.06172839506172839,0,0,0.06172839506172839,6.172839506172839,0)" xlink:href="#K"/><use transform="matrix(0.06172839506172839,0,0,0.06172839506172839,22.160493827160494,0)" xlink:href="#J"/><use transform="matrix(0.06172839506172839,0,0,0.06172839506172839,28.333333333333332,0)" xlink:href="#L"/><use transform="matrix(0.06172839506172839,0,0,0.06172839506172839,41.85185185185185,0)" xlink:href="#J"/><use transform="matrix(0.06172839506172839,0,0,0.06172839506172839,48.02469135802469,0)" xlink:href="#M"/></g><path fill="#333" d="M24-248c93 1 206-16 204 79-1 75-69 88-152 82V0H24v-248zm52 121c47 0 100 7 100-41 0-47-54-39-100-39v80" id="N"/><path fill="#333" d="M199 0l-22-63H83L61 0H9l90-248h61L250 0h-51zm-33-102l-36-108c-10 38-24 72-36 108h72" id="O"/><g id="e"><use transform="matrix(0.06172839506172839,0,0,0.06172839506172839,0,0)" xlink:href="#M"/><use transform="matrix(0.06172839506172839,0,0,0.06172839506172839,17.28395061728395,0)" xlink:href="#N"/><use transform="matrix(0.06172839506172839,0,0,0.06172839506172839,32.09876543209876,0)" xlink:href="#G"/><use transform="matrix(0.06172839506172839,0,0,0.06172839506172839,46.91358024691357,0)" xlink:href="#F"/><use transform="matrix(0.06172839506172839,0,0,0.06172839506172839,62.90123456790122,0)" xlink:href="#O"/><use transform="matrix(0.06172839506172839,0,0,0.06172839506172839,78.88888888888887,0)" xlink:href="#L"/><use transform="matrix(0.06172839506172839,0,0,0.06172839506172839,92.40740740740739,0)" xlink:href="#J"/><use transform="matrix(0.06172839506172839,0,0,0.06172839506172839,98.58024691358023,0)" xlink:href="#M"/><use transform="matrix(0.06172839506172839,0,0,0.06172839506172839,115.86419753086417,0)" xlink:href="#K"/><use transform="matrix(0.06172839506172839,0,0,0.06172839506172839,131.85185185185182,0)" xlink:href="#G"/></g><g id="f"><use transform="matrix(0.06172839506172839,0,0,0.06172839506172839,0,0)" xlink:href="#I"/><use transform="matrix(0.06172839506172839,0,0,0.06172839506172839,13.518518518518517,0)" xlink:href="#J"/><use transform="matrix(0.06172839506172839,0,0,0.06172839506172839,19.691358024691358,0)" xlink:href="#N"/><use transform="matrix(0.06172839506172839,0,0,0.06172839506172839,34.50617283950617,0)" xlink:href="#M"/></g><path fill="#333" d="M186 0v-106H76V0H24v-248h52v99h110v-99h50V0h-50" id="P"/><g id="g"><use transform="matrix(0.06172839506172839,0,0,0.06172839506172839,0,0)" xlink:href="#N"/><use transform="matrix(0.06172839506172839,0,0,0.06172839506172839,14.814814814814813,0)" xlink:href="#P"/></g><path fill="#333" d="M76-208v77h127v40H76V0H24v-248h183v40H76" id="Q"/><g id="h"><use transform="matrix(0.06172839506172839,0,0,0.06172839506172839,0,0)" xlink:href="#Q"/><use transform="matrix(0.06172839506172839,0,0,0.06172839506172839,13.518518518518517,0)" xlink:href="#J"/><use transform="matrix(0.06172839506172839,0,0,0.06172839506172839,19.691358024691358,0)" xlink:href="#K"/><use transform="matrix(0.06172839506172839,0,0,0.06172839506172839,35.67901234567901,0)" xlink:href="#G"/></g><path fill="#333" d="M238-95c0 69-44 99-111 99C63 4 22-25 22-93v-155h51v151c-1 38 19 59 55 60 90 1 49-130 58-211h52v153" id="R"/><g id="i"><use transform="matrix(0.06172839506172839,0,0,0.06172839506172839,0,0)" xlink:href="#K"/><use transform="matrix(0.06172839506172839,0,0,0.06172839506172839,15.987654320987653,0)" xlink:href="#G"/><use transform="matrix(0.06172839506172839,0,0,0.06172839506172839,30.80246913580247,0)" xlink:href="#R"/><use transform="matrix(0.06172839506172839,0,0,0.06172839506172839,46.79012345679012,0)" xlink:href="#I"/><use transform="matrix(0.06172839506172839,0,0,0.06172839506172839,60.30864197530864,0)" xlink:href="#F"/><use transform="matrix(0.06172839506172839,0,0,0.06172839506172839,76.29629629629629,0)" xlink:href="#M"/></g><g id="j"><use transform="matrix(0.06172839506172839,0,0,0.06172839506172839,0,0)" xlink:href="#F"/><use transform="matrix(0.06172839506172839,0,0,0.06172839506172839,15.987654320987653,0)" xlink:href="#H"/><use transform="matrix(0.06172839506172839,0,0,0.06172839506172839,30.80246913580247,0)" xlink:href="#I"/></g><g id="k"><use transform="matrix(0.06172839506172839,0,0,0.06172839506172839,0,0)" xlink:href="#H"/><use transform="matrix(0.06172839506172839,0,0,0.06172839506172839,14.814814814814813,0)" xlink:href="#I"/><use transform="matrix(0.06172839506172839,0,0,0.06172839506172839,26.666666666666664,0)" xlink:href="#O"/><use transform="matrix(0.06172839506172839,0,0,0.06172839506172839,42.654320987654316,0)" xlink:href="#F"/><use transform="matrix(0.06172839506172839,0,0,0.06172839506172839,58.64197530864197,0)" xlink:href="#I"/></g><g id="l"><use transform="matrix(0.06172839506172839,0,0,0.06172839506172839,0,0)" xlink:href="#N"/><use transform="matrix(0.06172839506172839,0,0,0.06172839506172839,14.814814814814813,0)" xlink:href="#P"/></g><path fill="#333" d="M24 0v-248h52v208h133V0H24" id="S"/><g id="m"><use transform="matrix(0.06172839506172839,0,0,0.06172839506172839,0,0)" xlink:href="#J"/><use transform="matrix(0.06172839506172839,0,0,0.06172839506172839,6.172839506172839,0)" xlink:href="#K"/><use transform="matrix(0.06172839506172839,0,0,0.06172839506172839,22.160493827160494,0)" xlink:href="#J"/><use transform="matrix(0.06172839506172839,0,0,0.06172839506172839,28.333333333333332,0)" xlink:href="#L"/><use transform="matrix(0.06172839506172839,0,0,0.06172839506172839,41.85185185185185,0)" xlink:href="#J"/><use transform="matrix(0.06172839506172839,0,0,0.06172839506172839,48.02469135802469,0)" xlink:href="#O"/><use transform="matrix(0.06172839506172839,0,0,0.06172839506172839,64.01234567901234,0)" xlink:href="#S"/><use transform="matrix(0.06172839506172839,0,0,0.06172839506172839,77.53086419753086,0)" xlink:href="#G"/></g><g id="n"><use transform="matrix(0.06172839506172839,0,0,0.06172839506172839,0,0)" xlink:href="#Q"/><use transform="matrix(0.06172839506172839,0,0,0.06172839506172839,13.518518518518517,0)" xlink:href="#J"/><use transform="matrix(0.06172839506172839,0,0,0.06172839506172839,19.691358024691358,0)" xlink:href="#K"/><use transform="matrix(0.06172839506172839,0,0,0.06172839506172839,35.67901234567901,0)" xlink:href="#G"/></g><g id="o"><use transform="matrix(0.06172839506172839,0,0,0.06172839506172839,0,0)" xlink:href="#M"/><use transform="matrix(0.06172839506172839,0,0,0.06172839506172839,17.28395061728395,0)" xlink:href="#N"/><use transform="matrix(0.06172839506172839,0,0,0.06172839506172839,32.09876543209876,0)" xlink:href="#G"/><use transform="matrix(0.06172839506172839,0,0,0.06172839506172839,46.91358024691357,0)" xlink:href="#F"/><use transform="matrix(0.06172839506172839,0,0,0.06172839506172839,62.90123456790122,0)" xlink:href="#O"/><use transform="matrix(0.06172839506172839,0,0,0.06172839506172839,78.88888888888887,0)" xlink:href="#L"/><use transform="matrix(0.06172839506172839,0,0,0.06172839506172839,92.40740740740739,0)" xlink:href="#J"/><use transform="matrix(0.06172839506172839,0,0,0.06172839506172839,98.58024691358023,0)" xlink:href="#M"/><use transform="matrix(0.06172839506172839,0,0,0.06172839506172839,115.86419753086417,0)" xlink:href="#K"/><use transform="matrix(0.06172839506172839,0,0,0.06172839506172839,131.85185185185182,0)" xlink:href="#G"/></g><g id="p"><use transform="matrix(0.06172839506172839,0,0,0.06172839506172839,0,0)" xlink:href="#G"/><use transform="matrix(0.06172839506172839,0,0,0.06172839506172839,14.814814814814813,0)" xlink:href="#F"/><use transform="matrix(0.06172839506172839,0,0,0.06172839506172839,30.80246913580247,0)" xlink:href="#F"/><use transform="matrix(0.06172839506172839,0,0,0.06172839506172839,46.79012345679012,0)" xlink:href="#M"/><use transform="matrix(0.06172839506172839,0,0,0.06172839506172839,64.07407407407408,0)" xlink:href="#F"/><use transform="matrix(0.06172839506172839,0,0,0.06172839506172839,80.06172839506173,0)" xlink:href="#G"/></g><g id="q"><use transform="matrix(0.06172839506172839,0,0,0.06172839506172839,0,0)" xlink:href="#H"/><use transform="matrix(0.06172839506172839,0,0,0.06172839506172839,14.814814814814813,0)" xlink:href="#G"/><use transform="matrix(0.06172839506172839,0,0,0.06172839506172839,29.629629629629626,0)" xlink:href="#K"/><use transform="matrix(0.06172839506172839,0,0,0.06172839506172839,45.61728395061728,0)" xlink:href="#H"/><use transform="matrix(0.06172839506172839,0,0,0.06172839506172839,60.43209876543209,0)" xlink:href="#M"/><use transform="matrix(0.06172839506172839,0,0,0.06172839506172839,77.71604938271604,0)" xlink:href="#F"/><use transform="matrix(0.06172839506172839,0,0,0.06172839506172839,93.7037037037037,0)" xlink:href="#G"/></g><path fill="#333" d="M147 0H94L2-248h55l64 206c17-72 42-137 63-206h54" id="T"/><g id="r"><use transform="matrix(0.06172839506172839,0,0,0.06172839506172839,0,0)" xlink:href="#T"/><use transform="matrix(0.06172839506172839,0,0,0.06172839506172839,13.148148148148147,0)" xlink:href="#O"/><use transform="matrix(0.06172839506172839,0,0,0.06172839506172839,29.1358024691358,0)" xlink:href="#S"/><use transform="matrix(0.06172839506172839,0,0,0.06172839506172839,40.98765432098765,0)" xlink:href="#T"/><use transform="matrix(0.06172839506172839,0,0,0.06172839506172839,55.80246913580247,0)" xlink:href="#M"/><use transform="matrix(0.06172839506172839,0,0,0.06172839506172839,73.08641975308642,0)" xlink:href="#S"/><use transform="matrix(0.06172839506172839,0,0,0.06172839506172839,86.60493827160494,0)" xlink:href="#O"/></g><path fill="#333" d="M67-125c0 53 21 87 73 88 37 1 54-22 65-47l45 17C233-25 199 4 140 4 58 4 20-42 15-125 8-235 124-281 211-232c18 10 29 29 36 50l-46 12c-8-25-30-41-62-41-52 0-71 34-72 86" id="U"/><path fill="#333" d="M24-248c120-7 223 5 221 122C244-46 201 0 124 0H24v-248zM76-40c74 7 117-18 117-86 0-67-45-88-117-82v168" id="V"/><g id="s"><use transform="matrix(0.06172839506172839,0,0,0.06172839506172839,0,0)" xlink:href="#O"/><use transform="matrix(0.06172839506172839,0,0,0.06172839506172839,15.987654320987653,0)" xlink:href="#U"/><use transform="matrix(0.06172839506172839,0,0,0.06172839506172839,31.975308641975307,0)" xlink:href="#J"/><use transform="matrix(0.06172839506172839,0,0,0.06172839506172839,38.148148148148145,0)" xlink:href="#V"/><use transform="matrix(0.06172839506172839,0,0,0.06172839506172839,54.1358024691358,0)" xlink:href="#M"/></g><path fill="#333" d="M182-130c37 4 62 22 62 59C244 23 116-4 24 0v-248c84 5 203-23 205 63 0 31-19 50-47 55zM76-148c40-3 101 13 101-30 0-44-60-28-101-31v61zm0 110c48-3 116 14 116-37 0-48-69-32-116-35v72" id="W"/><g id="t"><use transform="matrix(0.06172839506172839,0,0,0.06172839506172839,0,0)" xlink:href="#W"/><use transform="matrix(0.06172839506172839,0,0,0.06172839506172839,15.987654320987653,0)" xlink:href="#O"/><use transform="matrix(0.06172839506172839,0,0,0.06172839506172839,31.975308641975307,0)" xlink:href="#H"/><use transform="matrix(0.06172839506172839,0,0,0.06172839506172839,46.79012345679012,0)" xlink:href="#J"/><use transform="matrix(0.06172839506172839,0,0,0.06172839506172839,52.96296296296296,0)" xlink:href="#U"/><use transform="matrix(0.06172839506172839,0,0,0.06172839506172839,68.95061728395062,0)" xlink:href="#M"/></g><g id="u"><use transform="matrix(0.06172839506172839,0,0,0.06172839506172839,0,0)" xlink:href="#N"/><use transform="matrix(0.06172839506172839,0,0,0.06172839506172839,14.814814814814813,0)" xlink:href="#P"/></g><g id="v"><use transform="matrix(0.06172839506172839,0,0,0.06172839506172839,0,0)" xlink:href="#Q"/><use transform="matrix(0.06172839506172839,0,0,0.06172839506172839,13.518518518518517,0)" xlink:href="#J"/><use transform="matrix(0.06172839506172839,0,0,0.06172839506172839,19.691358024691358,0)" xlink:href="#K"/><use transform="matrix(0.06172839506172839,0,0,0.06172839506172839,35.67901234567901,0)" xlink:href="#O"/><use transform="matrix(0.06172839506172839,0,0,0.06172839506172839,51.666666666666664,0)" xlink:href="#S"/><use transform="matrix(0.06172839506172839,0,0,0.06172839506172839,65.18518518518518,0)" xlink:href="#G"/></g><path fill="#333" d="M195 0l-88-114-31 24V0H24v-248h52v113l112-113h60L142-143 257 0h-62" id="X"/><g id="w"><use transform="matrix(0.06172839506172839,0,0,0.06172839506172839,0,0)" xlink:href="#K"/><use transform="matrix(0.06172839506172839,0,0,0.06172839506172839,15.987654320987653,0)" xlink:href="#U"/><use transform="matrix(0.06172839506172839,0,0,0.06172839506172839,31.975308641975307,0)" xlink:href="#S"/><use transform="matrix(0.06172839506172839,0,0,0.06172839506172839,45.49382716049382,0)" xlink:href="#X"/></g></defs></g></svg>