<svg xmlns="http://www.w3.org/2000/svg" xmlns:xlink="http://www.w3.org/1999/xlink" xmlns:lucid="lucid" width="1720.36" height="1320.97"><g transform="translate(-136.93709590545043 3.3790971300661496)" lucid:page-tab-id="0_0"><path d="M0 0h1870.87v1322.83H0z" fill="#fff"/><path d="M597 717.2c0 34.8-28.2 63-63 63s-63-28.2-63-63 28.2-63 63-63 63 28.2 63 63z" stroke="#000" stroke-width="3" fill="#fff"/><use xlink:href="#a" transform="matrix(1,0,0,1,476.0079135659879,659.2053647593023) translate(24.72222222222223 63.125)"/><path d="M1559.7 983.73c0 34.8-28.2 63-63 63-34.78 0-62.98-28.2-62.98-63s28.2-63 63-63c34.78 0 62.98 28.2 62.98 63z" stroke="#000" stroke-width="3" fill="#fff"/><use xlink:href="#b" transform="matrix(1,0,0,1,1438.7169300086605,925.733520433703) translate(10.570987654321002 63.05555555555556)"/><path d="M976.54 288.75c0 34.8-28.2 63-63 63-34.78 0-62.98-28.2-62.98-63s28.2-63 63-63c34.78 0 62.98 28.2 62.98 63z" stroke="#000" stroke-width="3" fill="#fff"/><use xlink:href="#c" transform="matrix(1,0,0,1,855.5570379124329,230.75849627809674) translate(18.719135802469147 63.05555555555556)"/><path d="M1581.25 186.4c0 34.78-28.2 62.98-63 62.98-34.78 0-62.98-28.2-62.98-63 0-34.78 28.2-62.98 63-62.98 34.78 0 62.98 28.2 62.98 63z" stroke="#000" stroke-width="3" fill="#fff"/><use xlink:href="#d" transform="matrix(1,0,0,1,1460.2662966330458,128.3955903550874) translate(6.5308641975308745 63.05555555555556)"/><path d="M480.56 1234.6c0 34.8-28.2 63-63 63-34.78 0-63-28.2-63-63s28.22-63 63-63c34.8 0 63 28.2 63 63z" stroke="#000" stroke-width="3" fill="#fff"/><use xlink:href="#e" transform="matrix(1,0,0,1,359.574649359178,1176.6063008724038) translate(5.817901234567913 63.05555555555556)"/><path d="M179.7 886.67c0-3.3 2.68-6 6-6h194.2c3.3 0 6 2.7 6 6v198c0 3.32-2.7 6-6 6H185.7c-3.32 0-6-2.68-6-6z" stroke="#000" stroke-opacity="0" stroke-width="3" fill="#fff" fill-opacity="0"/><use xlink:href="#f" transform="matrix(1,0,0,1,184.6974615511977,885.6721019210543) translate(5.151475694444429 17.7734375)"/><use xlink:href="#g" transform="matrix(1,0,0,1,184.6974615511977,885.6721019210543) translate(31.82248263888887 17.7734375)"/><use xlink:href="#h" transform="matrix(1,0,0,1,184.6974615511977,885.6721019210543) translate(58.493489583333314 17.7734375)"/><use xlink:href="#i" transform="matrix(1,0,0,1,184.6974615511977,885.6721019210543) translate(178.51302083333334 17.7734375)"/><use xlink:href="#f" transform="matrix(1,0,0,1,184.6974615511977,885.6721019210543) translate(5.151475694444429 39.99565972222222)"/><use xlink:href="#g" transform="matrix(1,0,0,1,184.6974615511977,885.6721019210543) translate(31.82248263888887 39.99565972222222)"/><use xlink:href="#j" transform="matrix(1,0,0,1,184.6974615511977,885.6721019210543) translate(58.493489583333314 39.99565972222222)"/><use xlink:href="#i" transform="matrix(1,0,0,1,184.6974615511977,885.6721019210543) translate(178.51302083333334 39.99565972222222)"/><use xlink:href="#f" transform="matrix(1,0,0,1,184.6974615511977,885.6721019210543) translate(5.151475694444429 62.21788194444444)"/><use xlink:href="#g" transform="matrix(1,0,0,1,184.6974615511977,885.6721019210543) translate(31.82248263888887 62.21788194444444)"/><use xlink:href="#k" transform="matrix(1,0,0,1,184.6974615511977,885.6721019210543) translate(58.493489583333314 62.21788194444444)"/><use xlink:href="#l" transform="matrix(1,0,0,1,184.6974615511977,885.6721019210543) translate(178.51302083333334 62.21788194444444)"/><use xlink:href="#f" transform="matrix(1,0,0,1,184.6974615511977,885.6721019210543) translate(5.151475694444429 84.44010416666666)"/><use xlink:href="#g" transform="matrix(1,0,0,1,184.6974615511977,885.6721019210543) translate(31.82248263888887 84.44010416666666)"/><use xlink:href="#m" transform="matrix(1,0,0,1,184.6974615511977,885.6721019210543) translate(58.493489583333314 84.44010416666666)"/><use xlink:href="#i" transform="matrix(1,0,0,1,184.6974615511977,885.6721019210543) translate(178.51302083333334 84.44010416666666)"/><use xlink:href="#f" transform="matrix(1,0,0,1,184.6974615511977,885.6721019210543) translate(5.151475694444429 106.66232638888889)"/><use xlink:href="#g" transform="matrix(1,0,0,1,184.6974615511977,885.6721019210543) translate(31.82248263888887 106.66232638888889)"/><use xlink:href="#n" transform="matrix(1,0,0,1,184.6974615511977,885.6721019210543) translate(58.493489583333314 106.66232638888889)"/><use xlink:href="#i" transform="matrix(1,0,0,1,184.6974615511977,885.6721019210543) translate(178.51302083333334 106.66232638888889)"/><use xlink:href="#o" transform="matrix(1,0,0,1,184.6974615511977,885.6721019210543) translate(98.5 128.88454861111111)"/><use xlink:href="#p" transform="matrix(1,0,0,1,184.6974615511977,885.6721019210543) translate(91.83224826388889 151.10677083333334)"/><use xlink:href="#o" transform="matrix(1,0,0,1,184.6974615511977,885.6721019210543) translate(98.5 173.32899305555557)"/><use xlink:href="#f" transform="matrix(1,0,0,1,184.6974615511977,885.6721019210543) translate(11.819227430555543 195.5512152777778)"/><use xlink:href="#g" transform="matrix(1,0,0,1,184.6974615511977,885.6721019210543) translate(38.490234374999986 195.5512152777778)"/><use xlink:href="#q" transform="matrix(1,0,0,1,184.6974615511977,885.6721019210543) translate(65.16124131944443 195.5512152777778)"/><use xlink:href="#q" transform="matrix(1,0,0,1,184.6974615511977,885.6721019210543) translate(91.83224826388887 195.5512152777778)"/><use xlink:href="#q" transform="matrix(1,0,0,1,184.6974615511977,885.6721019210543) translate(118.50325520833331 195.5512152777778)"/><use xlink:href="#r" transform="matrix(1,0,0,1,184.6974615511977,885.6721019210543) translate(145.17426215277777 195.5512152777778)"/><use xlink:href="#s" transform="matrix(1,0,0,1,184.6974615511977,885.6721019210543) translate(171.84526909722223 195.5512152777778)"/><path d="M1257.36 738.17c0-3.3 2.68-6 6-6h213.8c3.3 0 6 2.7 6 6v103.7c0 3.32-2.7 6-6 6h-213.8c-3.32 0-6-2.68-6-6z" stroke="#000" stroke-opacity="0" stroke-width="3" fill="#fff" fill-opacity="0"/><use xlink:href="#t" transform="matrix(1,0,0,1,1262.3550827312968,737.1701075102958) translate(14.651475694444471 17.773437499999996)"/><use xlink:href="#u" transform="matrix(1,0,0,1,1262.3550827312968,737.1701075102958) translate(41.322482638888914 17.773437499999996)"/><use xlink:href="#v" transform="matrix(1,0,0,1,1262.3550827312968,737.1701075102958) translate(67.99348958333334 17.773437499999996)"/><use xlink:href="#w" transform="matrix(1,0,0,1,1262.3550827312968,737.1701075102958) translate(188.01302083333331 17.773437499999996)"/><use xlink:href="#x" transform="matrix(1,0,0,1,1262.3550827312968,737.1701075102958) translate(108 39.995659722222214)"/><use xlink:href="#y" transform="matrix(1,0,0,1,1262.3550827312968,737.1701075102958) translate(101.33224826388889 62.21788194444443)"/><use xlink:href="#x" transform="matrix(1,0,0,1,1262.3550827312968,737.1701075102958) translate(108 84.44010416666666)"/><use xlink:href="#z" transform="matrix(1,0,0,1,1262.3550827312968,737.1701075102958) translate(21.31922743055557 106.66232638888887)"/><use xlink:href="#A" transform="matrix(1,0,0,1,1262.3550827312968,737.1701075102958) translate(47.990234375000014 106.66232638888887)"/><use xlink:href="#B" transform="matrix(1,0,0,1,1262.3550827312968,737.1701075102958) translate(74.66124131944446 106.66232638888887)"/><use xlink:href="#B" transform="matrix(1,0,0,1,1262.3550827312968,737.1701075102958) translate(101.33224826388889 106.66232638888887)"/><use xlink:href="#C" transform="matrix(1,0,0,1,1262.3550827312968,737.1701075102958) translate(128.00325520833331 106.66232638888887)"/><use xlink:href="#B" transform="matrix(1,0,0,1,1262.3550827312968,737.1701075102958) translate(154.67426215277777 106.66232638888887)"/><use xlink:href="#D" transform="matrix(1,0,0,1,1262.3550827312968,737.1701075102958) translate(181.3452690972222 106.66232638888887)"/><path d="M815.3 455.72c0-3.3 2.68-6 6-6h196.05c3.32 0 6 2.7 6 6v153.56c0 3.3-2.68 6-6 6H821.3c-3.32 0-6-2.7-6-6z" stroke="#000" stroke-opacity="0" stroke-width="3" fill="#fff" fill-opacity="0"/><use xlink:href="#z" transform="matrix(1,0,0,1,820.2983352678576,454.72126162808974) translate(6.151475694444471 17.773437499999996)"/><use xlink:href="#E" transform="matrix(1,0,0,1,820.2983352678576,454.72126162808974) translate(32.822482638888914 17.773437499999996)"/><use xlink:href="#F" transform="matrix(1,0,0,1,820.2983352678576,454.72126162808974) translate(59.49348958333335 17.773437499999996)"/><use xlink:href="#w" transform="matrix(1,0,0,1,820.2983352678576,454.72126162808974) translate(179.51302083333331 17.773437499999996)"/><use xlink:href="#z" transform="matrix(1,0,0,1,820.2983352678576,454.72126162808974) translate(6.151475694444471 39.995659722222214)"/><use xlink:href="#E" transform="matrix(1,0,0,1,820.2983352678576,454.72126162808974) translate(32.822482638888914 39.995659722222214)"/><use xlink:href="#G" transform="matrix(1,0,0,1,820.2983352678576,454.72126162808974) translate(59.49348958333335 39.995659722222214)"/><use xlink:href="#w" transform="matrix(1,0,0,1,820.2983352678576,454.72126162808974) translate(179.51302083333331 39.995659722222214)"/><use xlink:href="#z" transform="matrix(1,0,0,1,820.2983352678576,454.72126162808974) translate(6.151475694444471 62.21788194444443)"/><use xlink:href="#E" transform="matrix(1,0,0,1,820.2983352678576,454.72126162808974) translate(32.822482638888914 62.21788194444443)"/><use xlink:href="#H" transform="matrix(1,0,0,1,820.2983352678576,454.72126162808974) translate(59.49348958333335 62.21788194444443)"/><use xlink:href="#w" transform="matrix(1,0,0,1,820.2983352678576,454.72126162808974) translate(179.51302083333331 62.21788194444443)"/><use xlink:href="#x" transform="matrix(1,0,0,1,820.2983352678576,454.72126162808974) translate(99.5 84.44010416666666)"/><use xlink:href="#y" transform="matrix(1,0,0,1,820.2983352678576,454.72126162808974) translate(92.83224826388889 106.66232638888887)"/><use xlink:href="#x" transform="matrix(1,0,0,1,820.2983352678576,454.72126162808974) translate(99.5 128.8845486111111)"/><use xlink:href="#z" transform="matrix(1,0,0,1,820.2983352678576,454.72126162808974) translate(12.819227430555571 151.10677083333331)"/><use xlink:href="#A" transform="matrix(1,0,0,1,820.2983352678576,454.72126162808974) translate(39.490234375000014 151.10677083333331)"/><use xlink:href="#B" transform="matrix(1,0,0,1,820.2983352678576,454.72126162808974) translate(66.16124131944446 151.10677083333331)"/><use xlink:href="#C" transform="matrix(1,0,0,1,820.2983352678576,454.72126162808974) translate(92.83224826388889 151.10677083333331)"/><use xlink:href="#B" transform="matrix(1,0,0,1,820.2983352678576,454.72126162808974) translate(119.50325520833333 151.10677083333331)"/><use xlink:href="#C" transform="matrix(1,0,0,1,820.2983352678576,454.72126162808974) translate(146.17426215277777 151.10677083333331)"/><use xlink:href="#I" transform="matrix(1,0,0,1,820.2983352678576,454.72126162808974) translate(172.8452690972222 151.10677083333331)"/><path d="M532.2 927.42c0-3.32 2.7-6 6-6h219.95c3.3 0 6 2.68 6 6v109.1c0 3.32-2.7 6-6 6H538.2c-3.3 0-6-2.68-6-6z" stroke="#000" stroke-opacity="0" stroke-width="3" fill="#fff" fill-opacity="0"/><use xlink:href="#t" transform="matrix(1,0,0,1,537.207572869371,926.4157367454669) translate(17.65147569444447 17.773437499999996)"/><use xlink:href="#u" transform="matrix(1,0,0,1,537.207572869371,926.4157367454669) translate(44.322482638888914 17.773437499999996)"/><use xlink:href="#v" transform="matrix(1,0,0,1,537.207572869371,926.4157367454669) translate(70.99348958333334 17.773437499999996)"/><use xlink:href="#w" transform="matrix(1,0,0,1,537.207572869371,926.4157367454669) translate(191.01302083333331 17.773437499999996)"/><use xlink:href="#x" transform="matrix(1,0,0,1,537.207572869371,926.4157367454669) translate(111 39.995659722222214)"/><use xlink:href="#y" transform="matrix(1,0,0,1,537.207572869371,926.4157367454669) translate(104.33224826388889 62.21788194444443)"/><use xlink:href="#x" transform="matrix(1,0,0,1,537.207572869371,926.4157367454669) translate(111 84.44010416666666)"/><use xlink:href="#z" transform="matrix(1,0,0,1,537.207572869371,926.4157367454669) translate(24.31922743055557 106.66232638888887)"/><use xlink:href="#A" transform="matrix(1,0,0,1,537.207572869371,926.4157367454669) translate(50.990234375000014 106.66232638888887)"/><use xlink:href="#B" transform="matrix(1,0,0,1,537.207572869371,926.4157367454669) translate(77.66124131944446 106.66232638888887)"/><use xlink:href="#B" transform="matrix(1,0,0,1,537.207572869371,926.4157367454669) translate(104.33224826388889 106.66232638888887)"/><use xlink:href="#C" transform="matrix(1,0,0,1,537.207572869371,926.4157367454669) translate(131.00325520833331 106.66232638888887)"/><use xlink:href="#B" transform="matrix(1,0,0,1,537.207572869371,926.4157367454669) translate(157.67426215277777 106.66232638888887)"/><use xlink:href="#D" transform="matrix(1,0,0,1,537.207572869371,926.4157367454669) translate(184.3452690972222 106.66232638888887)"/><path d="M156.94 542.68c0-3.3 2.68-6 6-6H388.6c3.3 0 6 2.7 6 6v148c0 3.32-2.7 6-6 6H162.94c-3.32 0-6-2.68-6-6z" stroke="#000" stroke-opacity="0" stroke-width="3" fill="#fff" fill-opacity="0"/><g><use xlink:href="#z" transform="matrix(1,0,0,1,161.93709590545043,541.6839759831479) translate(20.65147569444447 27.148437499999996)"/><use xlink:href="#A" transform="matrix(1,0,0,1,161.93709590545043,541.6839759831479) translate(47.322482638888914 27.148437499999996)"/><use xlink:href="#v" transform="matrix(1,0,0,1,161.93709590545043,541.6839759831479) translate(73.99348958333334 27.148437499999996)"/><use xlink:href="#w" transform="matrix(1,0,0,1,161.93709590545043,541.6839759831479) translate(194.01302083333331 27.148437499999996)"/><use xlink:href="#t" transform="matrix(1,0,0,1,161.93709590545043,541.6839759831479) translate(20.65147569444447 49.370659722222214)"/><use xlink:href="#u" transform="matrix(1,0,0,1,161.93709590545043,541.6839759831479) translate(47.322482638888914 49.370659722222214)"/><use xlink:href="#v" transform="matrix(1,0,0,1,161.93709590545043,541.6839759831479) translate(73.99348958333334 49.370659722222214)"/><use xlink:href="#w" transform="matrix(1,0,0,1,161.93709590545043,541.6839759831479) translate(194.01302083333331 49.370659722222214)"/><use xlink:href="#x" transform="matrix(1,0,0,1,161.93709590545043,541.6839759831479) translate(114 71.59288194444443)"/><use xlink:href="#y" transform="matrix(1,0,0,1,161.93709590545043,541.6839759831479) translate(107.33224826388889 93.81510416666666)"/><use xlink:href="#x" transform="matrix(1,0,0,1,161.93709590545043,541.6839759831479) translate(114 116.03732638888887)"/><use xlink:href="#z" transform="matrix(1,0,0,1,161.93709590545043,541.6839759831479) translate(27.31922743055557 138.2595486111111)"/><use xlink:href="#A" transform="matrix(1,0,0,1,161.93709590545043,541.6839759831479) translate(53.990234375000014 138.2595486111111)"/><use xlink:href="#B" transform="matrix(1,0,0,1,161.93709590545043,541.6839759831479) translate(80.66124131944446 138.2595486111111)"/><use xlink:href="#B" transform="matrix(1,0,0,1,161.93709590545043,541.6839759831479) translate(107.33224826388889 138.2595486111111)"/><use xlink:href="#C" transform="matrix(1,0,0,1,161.93709590545043,541.6839759831479) translate(134.00325520833331 138.2595486111111)"/><use xlink:href="#B" transform="matrix(1,0,0,1,161.93709590545043,541.6839759831479) translate(160.67426215277777 138.2595486111111)"/><use xlink:href="#D" transform="matrix(1,0,0,1,161.93709590545043,541.6839759831479) translate(187.3452690972222 138.2595486111111)"/></g><path d="M938.34 968.8c0-3.3 2.7-6 6-6h187.96c3.3 0 6 2.7 6 6v264.67c0 3.3-2.7 6-6 6H944.34c-3.3 0-6-2.7-6-6z" stroke="#000" stroke-opacity="0" stroke-width="3" fill="#fff" fill-opacity="0"/><g><use xlink:href="#z" transform="matrix(1,0,0,1,943.3421419707684,967.802387409476) translate(1.6514756944444713 17.773437499999996)"/><use xlink:href="#E" transform="matrix(1,0,0,1,943.3421419707684,967.802387409476) translate(28.32248263888891 17.773437499999996)"/><use xlink:href="#J" transform="matrix(1,0,0,1,943.3421419707684,967.802387409476) translate(54.99348958333335 17.773437499999996)"/><use xlink:href="#K" transform="matrix(1,0,0,1,943.3421419707684,967.802387409476) translate(175.01302083333331 17.773437499999996)"/><use xlink:href="#z" transform="matrix(1,0,0,1,943.3421419707684,967.802387409476) translate(1.6514756944444713 39.995659722222214)"/><use xlink:href="#E" transform="matrix(1,0,0,1,943.3421419707684,967.802387409476) translate(28.32248263888891 39.995659722222214)"/><use xlink:href="#L" transform="matrix(1,0,0,1,943.3421419707684,967.802387409476) translate(54.99348958333335 39.995659722222214)"/><use xlink:href="#K" transform="matrix(1,0,0,1,943.3421419707684,967.802387409476) translate(175.01302083333331 39.995659722222214)"/><use xlink:href="#z" transform="matrix(1,0,0,1,943.3421419707684,967.802387409476) translate(1.6514756944444713 62.21788194444443)"/><use xlink:href="#E" transform="matrix(1,0,0,1,943.3421419707684,967.802387409476) translate(28.32248263888891 62.21788194444443)"/><use xlink:href="#M" transform="matrix(1,0,0,1,943.3421419707684,967.802387409476) translate(54.99348958333335 62.21788194444443)"/><use xlink:href="#w" transform="matrix(1,0,0,1,943.3421419707684,967.802387409476) translate(175.01302083333331 62.21788194444443)"/><use xlink:href="#z" transform="matrix(1,0,0,1,943.3421419707684,967.802387409476) translate(1.6514756944444713 84.44010416666666)"/><use xlink:href="#E" transform="matrix(1,0,0,1,943.3421419707684,967.802387409476) translate(28.32248263888891 84.44010416666666)"/><use xlink:href="#N" transform="matrix(1,0,0,1,943.3421419707684,967.802387409476) translate(54.99348958333335 84.44010416666666)"/><use xlink:href="#K" transform="matrix(1,0,0,1,943.3421419707684,967.802387409476) translate(175.01302083333331 84.44010416666666)"/><use xlink:href="#z" transform="matrix(1,0,0,1,943.3421419707684,967.802387409476) translate(1.6514756944444713 106.66232638888887)"/><use xlink:href="#E" transform="matrix(1,0,0,1,943.3421419707684,967.802387409476) translate(28.32248263888891 106.66232638888887)"/><use xlink:href="#O" transform="matrix(1,0,0,1,943.3421419707684,967.802387409476) translate(54.99348958333335 106.66232638888887)"/><use xlink:href="#K" transform="matrix(1,0,0,1,943.3421419707684,967.802387409476) translate(175.01302083333331 106.66232638888887)"/><use xlink:href="#z" transform="matrix(1,0,0,1,943.3421419707684,967.802387409476) translate(1.6514756944444713 128.8845486111111)"/><use xlink:href="#E" transform="matrix(1,0,0,1,943.3421419707684,967.802387409476) translate(28.32248263888891 128.8845486111111)"/><use xlink:href="#P" transform="matrix(1,0,0,1,943.3421419707684,967.802387409476) translate(54.99348958333335 128.8845486111111)"/><use xlink:href="#w" transform="matrix(1,0,0,1,943.3421419707684,967.802387409476) translate(175.01302083333331 128.8845486111111)"/><use xlink:href="#z" transform="matrix(1,0,0,1,943.3421419707684,967.802387409476) translate(1.6514756944444713 151.10677083333331)"/><use xlink:href="#E" transform="matrix(1,0,0,1,943.3421419707684,967.802387409476) translate(28.32248263888891 151.10677083333331)"/><use xlink:href="#Q" transform="matrix(1,0,0,1,943.3421419707684,967.802387409476) translate(54.99348958333335 151.10677083333331)"/><use xlink:href="#K" transform="matrix(1,0,0,1,943.3421419707684,967.802387409476) translate(175.01302083333331 151.10677083333331)"/><use xlink:href="#z" transform="matrix(1,0,0,1,943.3421419707684,967.802387409476) translate(1.6514756944444713 173.32899305555554)"/><use xlink:href="#E" transform="matrix(1,0,0,1,943.3421419707684,967.802387409476) translate(28.32248263888891 173.32899305555554)"/><use xlink:href="#R" transform="matrix(1,0,0,1,943.3421419707684,967.802387409476) translate(54.99348958333335 173.32899305555554)"/><use xlink:href="#w" transform="matrix(1,0,0,1,943.3421419707684,967.802387409476) translate(175.01302083333331 173.32899305555554)"/><use xlink:href="#x" transform="matrix(1,0,0,1,943.3421419707684,967.802387409476) translate(95 195.55121527777777)"/><use xlink:href="#y" transform="matrix(1,0,0,1,943.3421419707684,967.802387409476) translate(88.33224826388889 217.7734375)"/><use xlink:href="#x" transform="matrix(1,0,0,1,943.3421419707684,967.802387409476) translate(95 239.99565972222223)"/><use xlink:href="#z" transform="matrix(1,0,0,1,943.3421419707684,967.802387409476) translate(8.319227430555571 262.21788194444446)"/><use xlink:href="#A" transform="matrix(1,0,0,1,943.3421419707684,967.802387409476) translate(34.990234375000014 262.21788194444446)"/><use xlink:href="#C" transform="matrix(1,0,0,1,943.3421419707684,967.802387409476) translate(61.66124131944445 262.21788194444446)"/><use xlink:href="#B" transform="matrix(1,0,0,1,943.3421419707684,967.802387409476) translate(88.33224826388889 262.21788194444446)"/><use xlink:href="#B" transform="matrix(1,0,0,1,943.3421419707684,967.802387409476) translate(115.00325520833333 262.21788194444446)"/><use xlink:href="#C" transform="matrix(1,0,0,1,943.3421419707684,967.802387409476) translate(141.67426215277777 262.21788194444446)"/><use xlink:href="#S" transform="matrix(1,0,0,1,943.3421419707684,967.802387409476) translate(168.3452690972222 262.21788194444446)"/></g><path d="M789.57 52.6c0-3.3 2.7-6 6-6h237.15c3.3 0 6 2.7 6 6v109.1c0 3.32-2.7 6-6 6H795.57c-3.3 0-6-2.68-6-6z" stroke="#000" stroke-opacity="0" stroke-width="3" fill="#fff" fill-opacity="0"/><g><use xlink:href="#z" transform="matrix(1,0,0,1,794.5748506198041,51.59907610437244) translate(26.65147569444447 17.773437499999996)"/><use xlink:href="#u" transform="matrix(1,0,0,1,794.5748506198041,51.59907610437244) translate(53.322482638888914 17.773437499999996)"/><use xlink:href="#v" transform="matrix(1,0,0,1,794.5748506198041,51.59907610437244) translate(79.99348958333334 17.773437499999996)"/><use xlink:href="#T" transform="matrix(1,0,0,1,794.5748506198041,51.59907610437244) translate(200.01302083333331 17.773437499999996)"/><use xlink:href="#x" transform="matrix(1,0,0,1,794.5748506198041,51.59907610437244) translate(120 39.995659722222214)"/><use xlink:href="#y" transform="matrix(1,0,0,1,794.5748506198041,51.59907610437244) translate(113.33224826388889 62.21788194444443)"/><use xlink:href="#x" transform="matrix(1,0,0,1,794.5748506198041,51.59907610437244) translate(120 84.44010416666666)"/><use xlink:href="#z" transform="matrix(1,0,0,1,794.5748506198041,51.59907610437244) translate(33.31922743055557 106.66232638888887)"/><use xlink:href="#A" transform="matrix(1,0,0,1,794.5748506198041,51.59907610437244) translate(59.990234375000014 106.66232638888887)"/><use xlink:href="#B" transform="matrix(1,0,0,1,794.5748506198041,51.59907610437244) translate(86.66124131944446 106.66232638888887)"/><use xlink:href="#C" transform="matrix(1,0,0,1,794.5748506198041,51.59907610437244) translate(113.33224826388889 106.66232638888887)"/><use xlink:href="#B" transform="matrix(1,0,0,1,794.5748506198041,51.59907610437244) translate(140.00325520833331 106.66232638888887)"/><use xlink:href="#B" transform="matrix(1,0,0,1,794.5748506198041,51.59907610437244) translate(166.67426215277777 106.66232638888887)"/><use xlink:href="#I" transform="matrix(1,0,0,1,794.5748506198041,51.59907610437244) translate(193.3452690972222 106.66232638888887)"/></g><path d="M1384.37 1110.53c0-3.3 2.7-6 6-6h224.36c3.3 0 6 2.7 6 6v109.1c0 3.33-2.7 6-6 6h-224.36c-3.3 0-6-2.67-6-6z" stroke="#000" stroke-opacity="0" stroke-width="3" fill="#fff" fill-opacity="0"/><g><use xlink:href="#z" transform="matrix(1,0,0,1,1389.3718516677518,1109.533518749436) translate(20.15147569444447 17.773437499999996)"/><use xlink:href="#u" transform="matrix(1,0,0,1,1389.3718516677518,1109.533518749436) translate(46.822482638888914 17.773437499999996)"/><use xlink:href="#v" transform="matrix(1,0,0,1,1389.3718516677518,1109.533518749436) translate(73.49348958333334 17.773437499999996)"/><use xlink:href="#T" transform="matrix(1,0,0,1,1389.3718516677518,1109.533518749436) translate(193.51302083333331 17.773437499999996)"/><use xlink:href="#x" transform="matrix(1,0,0,1,1389.3718516677518,1109.533518749436) translate(113.5 39.995659722222214)"/><use xlink:href="#y" transform="matrix(1,0,0,1,1389.3718516677518,1109.533518749436) translate(106.83224826388889 62.21788194444443)"/><use xlink:href="#x" transform="matrix(1,0,0,1,1389.3718516677518,1109.533518749436) translate(113.5 84.44010416666666)"/><use xlink:href="#z" transform="matrix(1,0,0,1,1389.3718516677518,1109.533518749436) translate(26.81922743055557 106.66232638888887)"/><use xlink:href="#A" transform="matrix(1,0,0,1,1389.3718516677518,1109.533518749436) translate(53.490234375000014 106.66232638888887)"/><use xlink:href="#C" transform="matrix(1,0,0,1,1389.3718516677518,1109.533518749436) translate(80.16124131944446 106.66232638888887)"/><use xlink:href="#B" transform="matrix(1,0,0,1,1389.3718516677518,1109.533518749436) translate(106.83224826388889 106.66232638888887)"/><use xlink:href="#B" transform="matrix(1,0,0,1,1389.3718516677518,1109.533518749436) translate(133.50325520833331 106.66232638888887)"/><use xlink:href="#B" transform="matrix(1,0,0,1,1389.3718516677518,1109.533518749436) translate(160.17426215277777 106.66232638888887)"/><use xlink:href="#S" transform="matrix(1,0,0,1,1389.3718516677518,1109.533518749436) translate(186.8452690972222 106.66232638888887)"/></g><path d="M1117.14 209.44c0-3.3 2.68-6 6-6h221.66c3.32 0 6 2.7 6 6v109.1c0 3.32-2.68 6-6 6h-221.66c-3.32 0-6-2.68-6-6z" stroke="#000" stroke-opacity="0" stroke-width="3" fill="#fff" fill-opacity="0"/><g><use xlink:href="#z" transform="matrix(1,0,0,1,1122.135292814301,208.43949250227774) translate(18.65147569444447 17.773437499999996)"/><use xlink:href="#u" transform="matrix(1,0,0,1,1122.135292814301,208.43949250227774) translate(45.322482638888914 17.773437499999996)"/><use xlink:href="#v" transform="matrix(1,0,0,1,1122.135292814301,208.43949250227774) translate(71.99348958333334 17.773437499999996)"/><use xlink:href="#U" transform="matrix(1,0,0,1,1122.135292814301,208.43949250227774) translate(192.01302083333331 17.773437499999996)"/><use xlink:href="#x" transform="matrix(1,0,0,1,1122.135292814301,208.43949250227774) translate(112 39.995659722222214)"/><use xlink:href="#y" transform="matrix(1,0,0,1,1122.135292814301,208.43949250227774) translate(105.33224826388889 62.21788194444443)"/><use xlink:href="#x" transform="matrix(1,0,0,1,1122.135292814301,208.43949250227774) translate(112 84.44010416666666)"/><use xlink:href="#t" transform="matrix(1,0,0,1,1122.135292814301,208.43949250227774) translate(25.31922743055557 106.66232638888887)"/><use xlink:href="#A" transform="matrix(1,0,0,1,1122.135292814301,208.43949250227774) translate(51.990234375000014 106.66232638888887)"/><use xlink:href="#B" transform="matrix(1,0,0,1,1122.135292814301,208.43949250227774) translate(78.66124131944446 106.66232638888887)"/><use xlink:href="#B" transform="matrix(1,0,0,1,1122.135292814301,208.43949250227774) translate(105.33224826388889 106.66232638888887)"/><use xlink:href="#B" transform="matrix(1,0,0,1,1122.135292814301,208.43949250227774) translate(132.00325520833331 106.66232638888887)"/><use xlink:href="#B" transform="matrix(1,0,0,1,1122.135292814301,208.43949250227774) translate(158.67426215277777 106.66232638888887)"/><use xlink:href="#I" transform="matrix(1,0,0,1,1122.135292814301,208.43949250227774) translate(185.3452690972222 106.66232638888887)"/></g><path d="M1609 518.27c0-3.3 2.7-6 6-6h212.87c3.32 0 6 2.7 6 6v104.9c0 3.32-2.68 6-6 6H1615c-3.3 0-6-2.68-6-6z" stroke="#000" stroke-opacity="0" stroke-width="3" fill="#fff" fill-opacity="0"/><g><use xlink:href="#z" transform="matrix(1,0,0,1,1614.002070786016,517.2728901624063) translate(14.151475694444471 17.773437499999996)"/><use xlink:href="#u" transform="matrix(1,0,0,1,1614.002070786016,517.2728901624063) translate(40.822482638888914 17.773437499999996)"/><use xlink:href="#v" transform="matrix(1,0,0,1,1614.002070786016,517.2728901624063) translate(67.49348958333334 17.773437499999996)"/><use xlink:href="#U" transform="matrix(1,0,0,1,1614.002070786016,517.2728901624063) translate(187.51302083333331 17.773437499999996)"/><use xlink:href="#x" transform="matrix(1,0,0,1,1614.002070786016,517.2728901624063) translate(107.5 39.995659722222214)"/><use xlink:href="#y" transform="matrix(1,0,0,1,1614.002070786016,517.2728901624063) translate(100.83224826388889 62.21788194444443)"/><use xlink:href="#x" transform="matrix(1,0,0,1,1614.002070786016,517.2728901624063) translate(107.5 84.44010416666666)"/><use xlink:href="#t" transform="matrix(1,0,0,1,1614.002070786016,517.2728901624063) translate(20.81922743055557 106.66232638888887)"/><use xlink:href="#A" transform="matrix(1,0,0,1,1614.002070786016,517.2728901624063) translate(47.490234375000014 106.66232638888887)"/><use xlink:href="#B" transform="matrix(1,0,0,1,1614.002070786016,517.2728901624063) translate(74.16124131944446 106.66232638888887)"/><use xlink:href="#B" transform="matrix(1,0,0,1,1614.002070786016,517.2728901624063) translate(100.83224826388889 106.66232638888887)"/><use xlink:href="#B" transform="matrix(1,0,0,1,1614.002070786016,517.2728901624063) translate(127.50325520833333 106.66232638888887)"/><use xlink:href="#B" transform="matrix(1,0,0,1,1614.002070786016,517.2728901624063) translate(154.17426215277777 106.66232638888887)"/><use xlink:href="#S" transform="matrix(1,0,0,1,1614.002070786016,517.2728901624063) translate(180.8452690972222 106.66232638888887)"/></g><path d="M563.38 263.84c0-3.32 2.7-6 6-6H792.5c3.32 0 6 2.68 6 6v109.1c0 3.32-2.68 6-6 6H569.38c-3.3 0-6-2.68-6-6z" stroke="#000" stroke-opacity="0" stroke-width="3" fill="#fff" fill-opacity="0"/><g><use xlink:href="#t" transform="matrix(1,0,0,1,568.3801518247072,262.8385179073457) translate(19.65147569444447 17.773437499999996)"/><use xlink:href="#u" transform="matrix(1,0,0,1,568.3801518247072,262.8385179073457) translate(46.322482638888914 17.773437499999996)"/><use xlink:href="#v" transform="matrix(1,0,0,1,568.3801518247072,262.8385179073457) translate(72.99348958333334 17.773437499999996)"/><use xlink:href="#w" transform="matrix(1,0,0,1,568.3801518247072,262.8385179073457) translate(193.01302083333331 17.773437499999996)"/><use xlink:href="#x" transform="matrix(1,0,0,1,568.3801518247072,262.8385179073457) translate(113 39.995659722222214)"/><use xlink:href="#y" transform="matrix(1,0,0,1,568.3801518247072,262.8385179073457) translate(106.33224826388889 62.21788194444443)"/><use xlink:href="#x" transform="matrix(1,0,0,1,568.3801518247072,262.8385179073457) translate(113 84.44010416666666)"/><use xlink:href="#z" transform="matrix(1,0,0,1,568.3801518247072,262.8385179073457) translate(26.31922743055557 106.66232638888887)"/><use xlink:href="#A" transform="matrix(1,0,0,1,568.3801518247072,262.8385179073457) translate(52.990234375000014 106.66232638888887)"/><use xlink:href="#B" transform="matrix(1,0,0,1,568.3801518247072,262.8385179073457) translate(79.66124131944446 106.66232638888887)"/><use xlink:href="#B" transform="matrix(1,0,0,1,568.3801518247072,262.8385179073457) translate(106.33224826388889 106.66232638888887)"/><use xlink:href="#C" transform="matrix(1,0,0,1,568.3801518247072,262.8385179073457) translate(133.00325520833331 106.66232638888887)"/><use xlink:href="#B" transform="matrix(1,0,0,1,568.3801518247072,262.8385179073457) translate(159.67426215277777 106.66232638888887)"/><use xlink:href="#D" transform="matrix(1,0,0,1,568.3801518247072,262.8385179073457) translate(186.3452690972222 106.66232638888887)"/></g><path d="M279.38 91.7c0-3.3 2.7-6 6-6h252.04c3.32 0 6 2.7 6 6v109.12c0 3.32-2.68 6-6 6H285.38c-3.3 0-6-2.68-6-6z" stroke="#000" stroke-opacity="0" stroke-width="3" fill="#fff" fill-opacity="0"/><g><use xlink:href="#t" transform="matrix(1,0,0,1,284.384021268156,90.71078408303754) translate(34.15147569444447 17.773437499999996)"/><use xlink:href="#u" transform="matrix(1,0,0,1,284.384021268156,90.71078408303754) translate(60.822482638888914 17.773437499999996)"/><use xlink:href="#v" transform="matrix(1,0,0,1,284.384021268156,90.71078408303754) translate(87.49348958333334 17.773437499999996)"/><use xlink:href="#w" transform="matrix(1,0,0,1,284.384021268156,90.71078408303754) translate(207.51302083333331 17.773437499999996)"/><use xlink:href="#x" transform="matrix(1,0,0,1,284.384021268156,90.71078408303754) translate(127.5 39.995659722222214)"/><use xlink:href="#y" transform="matrix(1,0,0,1,284.384021268156,90.71078408303754) translate(120.83224826388889 62.21788194444443)"/><use xlink:href="#x" transform="matrix(1,0,0,1,284.384021268156,90.71078408303754) translate(127.5 84.44010416666666)"/><use xlink:href="#z" transform="matrix(1,0,0,1,284.384021268156,90.71078408303754) translate(40.81922743055557 106.66232638888887)"/><use xlink:href="#A" transform="matrix(1,0,0,1,284.384021268156,90.71078408303754) translate(67.49023437500001 106.66232638888887)"/><use xlink:href="#B" transform="matrix(1,0,0,1,284.384021268156,90.71078408303754) translate(94.16124131944446 106.66232638888887)"/><use xlink:href="#B" transform="matrix(1,0,0,1,284.384021268156,90.71078408303754) translate(120.83224826388889 106.66232638888887)"/><use xlink:href="#C" transform="matrix(1,0,0,1,284.384021268156,90.71078408303754) translate(147.50325520833331 106.66232638888887)"/><use xlink:href="#B" transform="matrix(1,0,0,1,284.384021268156,90.71078408303754) translate(174.17426215277777 106.66232638888887)"/><use xlink:href="#D" transform="matrix(1,0,0,1,284.384021268156,90.71078408303754) translate(200.8452690972222 106.66232638888887)"/></g><path d="M1611.52 30.75c0-3.3 2.7-6 6-6h213.78c3.3 0 6 2.7 6 6v109.1c0 3.33-2.7 6-6 6h-213.78c-3.3 0-6-2.67-6-6z" stroke="#000" stroke-opacity="0" stroke-width="3" fill="#fff" fill-opacity="0"/><g><use xlink:href="#f" transform="matrix(1,0,0,1,1616.5189650077673,29.75303168410484) translate(14.651475694444429 17.7734375)"/><use xlink:href="#V" transform="matrix(1,0,0,1,1616.5189650077673,29.75303168410484) translate(41.32248263888887 17.7734375)"/><use xlink:href="#W" transform="matrix(1,0,0,1,1616.5189650077673,29.75303168410484) translate(67.99348958333331 17.7734375)"/><use xlink:href="#i" transform="matrix(1,0,0,1,1616.5189650077673,29.75303168410484) translate(188.01302083333334 17.7734375)"/><use xlink:href="#o" transform="matrix(1,0,0,1,1616.5189650077673,29.75303168410484) translate(108 39.99565972222222)"/><use xlink:href="#p" transform="matrix(1,0,0,1,1616.5189650077673,29.75303168410484) translate(101.33224826388889 62.21788194444444)"/><use xlink:href="#o" transform="matrix(1,0,0,1,1616.5189650077673,29.75303168410484) translate(108 84.44010416666666)"/><use xlink:href="#X" transform="matrix(1,0,0,1,1616.5189650077673,29.75303168410484) translate(21.319227430555543 106.66232638888889)"/><use xlink:href="#Y" transform="matrix(1,0,0,1,1616.5189650077673,29.75303168410484) translate(47.990234374999986 106.66232638888889)"/><use xlink:href="#q" transform="matrix(1,0,0,1,1616.5189650077673,29.75303168410484) translate(74.66124131944443 106.66232638888889)"/><use xlink:href="#q" transform="matrix(1,0,0,1,1616.5189650077673,29.75303168410484) translate(101.33224826388887 106.66232638888889)"/><use xlink:href="#q" transform="matrix(1,0,0,1,1616.5189650077673,29.75303168410484) translate(128.00325520833331 106.66232638888889)"/><use xlink:href="#q" transform="matrix(1,0,0,1,1616.5189650077673,29.75303168410484) translate(154.67426215277777 106.66232638888889)"/><use xlink:href="#s" transform="matrix(1,0,0,1,1616.5189650077673,29.75303168410484) translate(181.34526909722223 106.66232638888889)"/></g><path d="M560 1177.23c0-3.32 2.7-6 6-6h194.34c3.3 0 6 2.68 6 6v109.1c0 3.32-2.7 6-6 6H566c-3.3 0-6-2.68-6-6z" stroke="#000" stroke-opacity="0" stroke-width="3" fill="#fff" fill-opacity="0"/><g><use xlink:href="#f" transform="matrix(1,0,0,1,565.011064638499,1176.2282718527347) translate(5.151475694444429 17.7734375)"/><use xlink:href="#V" transform="matrix(1,0,0,1,565.011064638499,1176.2282718527347) translate(31.82248263888887 17.7734375)"/><use xlink:href="#W" transform="matrix(1,0,0,1,565.011064638499,1176.2282718527347) translate(58.493489583333314 17.7734375)"/><use xlink:href="#i" transform="matrix(1,0,0,1,565.011064638499,1176.2282718527347) translate(178.51302083333334 17.7734375)"/><use xlink:href="#o" transform="matrix(1,0,0,1,565.011064638499,1176.2282718527347) translate(98.5 39.99565972222222)"/><use xlink:href="#p" transform="matrix(1,0,0,1,565.011064638499,1176.2282718527347) translate(91.83224826388889 62.21788194444444)"/><use xlink:href="#o" transform="matrix(1,0,0,1,565.011064638499,1176.2282718527347) translate(98.5 84.44010416666666)"/><use xlink:href="#f" transform="matrix(1,0,0,1,565.011064638499,1176.2282718527347) translate(11.819227430555543 106.66232638888889)"/><use xlink:href="#g" transform="matrix(1,0,0,1,565.011064638499,1176.2282718527347) translate(38.490234374999986 106.66232638888889)"/><use xlink:href="#q" transform="matrix(1,0,0,1,565.011064638499,1176.2282718527347) translate(65.16124131944443 106.66232638888889)"/><use xlink:href="#q" transform="matrix(1,0,0,1,565.011064638499,1176.2282718527347) translate(91.83224826388887 106.66232638888889)"/><use xlink:href="#q" transform="matrix(1,0,0,1,565.011064638499,1176.2282718527347) translate(118.50325520833331 106.66232638888889)"/><use xlink:href="#q" transform="matrix(1,0,0,1,565.011064638499,1176.2282718527347) translate(145.17426215277777 106.66232638888889)"/><use xlink:href="#s" transform="matrix(1,0,0,1,565.011064638499,1176.2282718527347) translate(171.84526909722223 106.66232638888889)"/></g><path d="M975.78 267.54l.94-1.07 1.26-1.32 1.55-1.5 1.92-1.7 2.4-1.95 3.04-2.27 3.86-2.64 5.02-3.14 6.54-3.7 8.62-4.42 11.4-5.25 15-6.17 19.53-7.1 24.8-7.83 30.38-8.22 35.52-8.04 39.6-7.25 42.2-5.92 43.32-4.23 43.17-2.4 42.14-.6 40.5 1.15 34.74 2.43" stroke="#000" stroke-width="3" fill="none"/><path d="M976.97 268.45l-1.6 1.98-.2-.8-.92-2.58.38-.48z" stroke="#000" stroke-width=".05"/><path d="M1448.93 185.93l-14.64 3.26.87-9.24z" stroke="#000" stroke-width="3"/><path d="M1517.42 921.06l16.1-33.23 15.07-34.78 13.4-34.85 11.73-34.8 10.1-34.7 8.5-34.52 6.96-34.32 5.4-34.1 3.96-33.9 2.5-33.7 1.07-33.5-.33-33.4-1.72-33.27-3.12-33.24-4.54-33.22-5.96-33.27-7.44-33.4-8.98-33.55-10.57-33.8-6.9-19.18" stroke="#000" stroke-width="3" fill="none"/><path d="M1518.78 921.68l-.6 1.25-1.32-.5-1.56-.43.78-1.63z" stroke="#000" stroke-width=".05"/><path d="M1557.27 243.54l9.25 11.8-8.7 3.2z" stroke="#000" stroke-width="3"/><path d="M581.3 671.24l25.9-14.65 22.2-13.85 19.45-13.27 17.86-13.33 17.1-13.92 16.98-15.05 17.5-16.88 18.84-19.75 21.33-24.35 26.02-32.37 35.93-48.8 54.28-80.8" stroke="#000" stroke-width="3" fill="none"/><path d="M582.07 672.53l-1.05.6-1.03-1.15-1.16-1.08 1.75-1z" stroke="#000" stroke-width=".05"/><path d="M883.47 351.14l-4.1 14.42-7.7-5.17z" stroke="#000" stroke-width="3"/><path d="M1454.04 933.45l-14.4-9.42-18.44-11-21.9-11.82-26.28-12.8-31.9-13.94-39.25-15.2-48.98-16.66-62.13-18.26-80.18-19.95-105.4-21.58-141.27-22.8-246.18-28.12" stroke="#000" stroke-width="3" fill="none"/><path d="M1456.56 933.3l-1.26.98-1.15 1.04-.96-.63 1.63-2.52z" stroke="#000" stroke-width=".05"/><path d="M602.08 730.1l14.7-2.97-1.05 9.2z" stroke="#000" stroke-width="3"/><path d="M1414.68 965.52l-25.2 1.7-50.3 1.24-54.78-.92-58.98-3.47-62.43-6.3-64.73-9.27-65.38-12.18-64.2-14.75-61.16-16.78-56.66-18.13-51.2-18.76-45.3-18.78-39.47-18.35-34.03-17.6-29.17-16.64-24.9-15.64-21.25-14.62-16.67-12.52" stroke="#000" stroke-width="3" fill="none"/><path d="M1430.4 964.46l-13.9 5.58-.63-9.25z" stroke="#000" stroke-width="3"/><path d="M589.82 752.6l-1.8 2.38-1.18-.88 1.7-2.48z" stroke="#000" stroke-width=".05"/><path d="M856.9 322.5l-2 .65-4.18 1.52-5.1 2.12-6.35 2.92-7.9 4.07-9.84 5.6-12.2 7.64-14.85 10.2-17.54 13.14-19.9 16.25-21.47 19.1-22.05 21.3-21.64 22.74-20.44 23.36-18.75 23.33-16.85 22.83-14.87 22.05-12.98 21.1-11.23 20.1-9.63 19.06-8.2 18.1-6.94 17.16-1.33 3.74" stroke="#000" stroke-width="3" fill="none"/><path d="M858.16 321.8l1 1.56-1.85.6-.9-2.87 1.17-.38z" stroke="#000" stroke-width=".05"/><path d="M565.54 655.5l.26-15 8.77 3.02z" stroke="#000" stroke-width="3"/><path d="M1469.94 1064l-.63 1.45-1.78 6.15-.76 4.87-.1 4.03.35 3.43.73 3 1.03 2.73 1.34 2.5 1.66 2.33 2.06 2.2 2.52 2.08 3.1 1.96 3.83 1.78 4.68 1.47 5.58 1 6.35.3 6.67-.53 6.4-1.34 5.62-1.96 4.65-2.33 3.7-2.48 2.9-2.55 2.24-2.55 1.72-2.56 1.3-2.6.92-2.67.57-2.8.23-2.97-.18-3.27-.68-3.7-1.4-4.28-2.43-5.16-4.15-6.48-7.2-8.53-1.1-1.12" stroke="#000" stroke-width="3" fill="none"/><path d="M1477.44 1050.2l-2.73 14.74-8.14-4.42z" stroke="#000" stroke-width="3"/><path d="M1520.75 1044.4l-2.14 2.1-1.56-1.6 3.12-1.1z" stroke="#000" stroke-width=".05"/><path d="M953 235.86l1.48-2.22 1.82-3.14 1.42-2.87 1.1-2.66.86-2.47.63-2.33.46-2.2.3-2.1.13-2v-1.93l-.1-1.88-.23-1.84-.34-1.8-.46-1.77-.58-1.77-.72-1.75-.84-1.75-.98-1.76-1.15-1.76-1.32-1.78-1.52-1.8-1.75-1.8-2-1.8-2.25-1.78-2.55-1.77-2.86-1.72-3.17-1.62-3.47-1.5-3.74-1.36-3.95-1.15-4.08-.9-4.13-.63-4.1-.36-3.97-.1-3.78.16-3.56.38-3.33.58-3.06.73-2.8.87-2.58 1-2.36 1.07-2.16 1.17-1.98 1.24-1.82 1.3-1.66 1.38-1.53 1.44-1.4 1.5-1.3 1.6-1.2 1.64-1.07 1.75-1 1.83-.9 1.96-.78 2.08-.7 2.24-.56 2.42-.46 2.63-.3 2.88-.12 3.18.1 3.54.05.65" stroke="#000" stroke-width="3" fill="none"/><path d="M954.26 236.66l-.93 1.4-1.56-1.26-.83-.57.83-1.24z" stroke="#000" stroke-width=".05"/><path d="M873.94 232.38l-7.5-12.98 9.06-1.94z" stroke="#000" stroke-width="3"/><path d="M1584.25 186.35l7.35-.2 6.88-.77 5.47-1.06 4.47-1.24 3.7-1.37 3.1-1.44 2.68-1.52 2.3-1.56 2-1.63 1.77-1.67 1.55-1.75 1.38-1.82 1.2-1.9 1.08-2.02.9-2.15.78-2.3.6-2.5.45-2.73.24-3v-3.3l-.33-3.66-.67-4.08-1.15-4.52-1.7-4.98-2.34-5.4-3.03-5.66-3.7-5.73-4.22-5.53-4.57-5.06-4.66-4.4-4.58-3.66-4.36-2.94-4.07-2.28-3.77-1.74-3.48-1.26-3.22-.88-2.98-.57-2.78-.3-2.6-.05-2.5.14-2.36.33-2.3.5-2.2.7-2.2.88-2.16 1.1-2.16 1.3-2.17 1.57-2.2 1.9-2.27 2.28-2.32 2.76-2.4 3.4-.88 1.45" stroke="#000" stroke-width="3" fill="none"/><path d="M1584.33 187.84l-1.64.05.05-1.5-.05-1.5 1.55-.05z" stroke="#000" stroke-width=".05"/><path d="M1539.5 120.4l1.45-14.92 8.5 3.7z" stroke="#000" stroke-width="3"/><path d="M493.9 769.56l-21.15 35.2-16.5 30.3-13.08 26.6-10.67 24.26-8.88 22.7-7.44 21.65-6.24 21.02-5.22 20.7-4.3 20.64-3.42 20.83-2.58 21.25-1.75 21.94-.85 22.88.12 24.15 1.2 25.8 2.07 23.32" stroke="#000" stroke-width="3" fill="none"/><path d="M495.78 769.15l.08.06-.7 1.16-2.56-1.54.9-1.5z" stroke="#000" stroke-width=".05"/><path d="M397 1168.48l-6.22-13.65 9.2-1.04z" stroke="#000" stroke-width="3"/><path d="M481.16 1251.6l18.95 16.67 12.14 6 8.6 1.72 6.9-.43 6.03-2 5.65-3.72 5.35-5.95 4.55-8.82 2.5-11.06-.3-10.63-2.37-8.17-3.44-5.73-4.1-4-4.85-2.73-6.1-1.57-8.37.06-13.25 3.65-9.43 5.56" stroke="#000" stroke-width="3" fill="none"/><path d="M482.18 1250.5l-1.98 2.25-.62-.55.66-2.34.2-.9z" stroke="#000" stroke-width=".05"/><path d="M486.1 1228.6l9.83-11.35 4.8 7.94z" stroke="#000" stroke-width="3"/><path d="M451.6 1178.16l2.03-1.86 3.27-3.3 3.43-3.74 3.62-4.3 3.83-4.95 4.05-5.72 4.3-6.66 4.57-7.78 4.87-9.13 5.17-10.75 5.47-12.72 5.75-15.1 5.97-17.86 6.06-21.07 6-24.62 5.6-28.25 4.94-31.57 3.86-34.04 2.5-35.14 1.04-34.63-.4-32.66-1.6-29.7-.04-.38" stroke="#000" stroke-width="3" fill="none"/><path d="M452.66 1179.24l-.8.74-.32-.2-2.4-1.37 1.48-1.37z" stroke="#000" stroke-width=".05"/><path d="M534.44 786.52l5.92 13.8-9.23.83z" stroke="#000" stroke-width="3"/><path d="M482.25 676.86L477.7 655l-5.2-13.3-5.02-8.33-4.78-5.56-4.64-3.85-4.63-2.7-4.8-1.78-5.1-1-5.64-.12-6.42.92-7.4 2.38-8.5 4.4-9.18 6.9-8.7 9.1-6.8 9.97-4.27 9.27-2.16 7.9-.65 6.58.37 5.52 1.14 4.77 1.8 4.24 2.5 3.9 3.34 3.67 4.5 3.54 6.3 3.42 9.28 3.17 14.8 2.4 21.78-.16" stroke="#000" stroke-width="3" fill="none"/><path d="M483.78 676.82l-1.73 2.16-.68 1-.6-2.85 2.94-.6z" stroke="#000" stroke-width=".05"/><path d="M465.32 708.8l-13.8 5.92-.83-9.24z" stroke="#000" stroke-width="3"/><path d="M590.7 717.2c0 31.3-25.4 56.7-56.7 56.7-31.3 0-56.7-25.4-56.7-56.7 0-31.3 25.4-56.7 56.7-56.7 31.3 0 56.7 25.4 56.7 56.7z" stroke="#000" stroke-width="3" fill="#fff"/><g><use xlink:href="#Z" transform="matrix(1,0,0,1,482.3071261644131,665.5045773577275) translate(7.629629629629633 57.08333333333333)"/></g><path d="M1485.07 129.73l-65.37-26.6-63.3-22.7-59.95-18.72-56.64-15.1-53.43-11.9-50.34-9-47.34-6.42-44.47-4.15L1002.5 13l-39.08-.38-36.6 1.2-34.26 2.55-32.04 3.74-29.95 4.8-28 5.67-26.17 6.45-24.46 7.14-22.87 7.73-21.4 8.22-20 8.7-18.7 9.06-17.5 9.42-16.4 9.72-15.37 10-14.4 10.25-13.47 10.5-12.64 10.7-11.84 10.9-11.1 11.12-10.37 11.3-9.72 11.52-9.07 11.73-8.46 11.94-7.88 12.16-7.3 12.4-6.78 12.66-6.22 12.93-5.7 13.22-5.18 13.53-4.64 13.87-4.12 14.23-3.57 14.64-3 15.06-2.45 15.53-1.84 16.05-1.2 16.6-.5 17.2.2 17.87 1 18.58 1.87 19.37 2.8 20.23 3.84 21.17 5 22.2 6.3 23.32 7.72 24.54 9.36 25.9 11.23 27.38 3.6 7.9" stroke="#000" stroke-width="3" fill="none"/><path d="M1488.18 129.38l-2.97 1.62-.38.25-.35-.15 1.13-2.77z" stroke="#000" stroke-width=".05"/><path d="M517.76 649.86l-10.15-11.04 8.43-3.86z" stroke="#000" stroke-width="3"/><path d="M598.84 705.22l285.6 1.27 98.33-4.43 69.6-6.1 54.03-7.03 43.9-7.6 36.7-7.95 31.32-8.18 27.14-8.32 23.82-8.4 21.1-8.46 18.9-8.5 17-8.54 15.44-8.57 14.08-8.6 12.9-8.67 11.9-8.72 11-8.8 10.23-8.9 9.5-9 8.9-9.16 8.3-9.32 7.8-9.52 7.34-9.74 6.88-10 6.47-10.3 6.07-10.63 5.7-11.02 5.32-11.46 4.96-11.97 4.6-12.53 4.2-13.18 3.83-13.9 3.4-14.77 2.92-15.73 2.4-16.84 1.82-18.12 1.14-19.62.35-21.36-.6-23.4-1.4-20.48" stroke="#000" stroke-width="3" fill="none"/><path d="M598.9 703.72l-.02 3h-1.27l-.54-3z" stroke="#000" stroke-width=".05"/><path d="M1500.3 253l5.92 13.8-9.24.83z" stroke="#000" stroke-width="3"/><path d="M1168.44 445.28c0-3.3 2.68-6 6-6h219.1c3.32 0 6 2.7 6 6v148c0 3.3-2.68 6-6 6h-219.1c-3.32 0-6-2.7-6-6z" stroke="#000" stroke-opacity="0" stroke-width="3" fill="#fff" fill-opacity="0"/><g><use xlink:href="#z" transform="matrix(1,0,0,1,1173.438340784072,444.27878761385705) translate(17.65147569444447 27.148437499999996)"/><use xlink:href="#E" transform="matrix(1,0,0,1,1173.438340784072,444.27878761385705) translate(44.322482638888914 27.148437499999996)"/><use xlink:href="#aa" transform="matrix(1,0,0,1,1173.438340784072,444.27878761385705) translate(70.99348958333334 27.148437499999996)"/><use xlink:href="#w" transform="matrix(1,0,0,1,1173.438340784072,444.27878761385705) translate(191.01302083333331 27.148437499999996)"/><use xlink:href="#z" transform="matrix(1,0,0,1,1173.438340784072,444.27878761385705) translate(17.65147569444447 49.370659722222214)"/><use xlink:href="#E" transform="matrix(1,0,0,1,1173.438340784072,444.27878761385705) translate(44.322482638888914 49.370659722222214)"/><use xlink:href="#ab" transform="matrix(1,0,0,1,1173.438340784072,444.27878761385705) translate(70.99348958333334 49.370659722222214)"/><use xlink:href="#w" transform="matrix(1,0,0,1,1173.438340784072,444.27878761385705) translate(191.01302083333331 49.370659722222214)"/><use xlink:href="#x" transform="matrix(1,0,0,1,1173.438340784072,444.27878761385705) translate(111 71.59288194444443)"/><use xlink:href="#y" transform="matrix(1,0,0,1,1173.438340784072,444.27878761385705) translate(104.33224826388889 93.81510416666666)"/><use xlink:href="#x" transform="matrix(1,0,0,1,1173.438340784072,444.27878761385705) translate(111 116.03732638888887)"/><use xlink:href="#t" transform="matrix(1,0,0,1,1173.438340784072,444.27878761385705) translate(24.31922743055557 138.2595486111111)"/><use xlink:href="#A" transform="matrix(1,0,0,1,1173.438340784072,444.27878761385705) translate(50.990234375000014 138.2595486111111)"/><use xlink:href="#B" transform="matrix(1,0,0,1,1173.438340784072,444.27878761385705) translate(77.66124131944446 138.2595486111111)"/><use xlink:href="#B" transform="matrix(1,0,0,1,1173.438340784072,444.27878761385705) translate(104.33224826388889 138.2595486111111)"/><use xlink:href="#B" transform="matrix(1,0,0,1,1173.438340784072,444.27878761385705) translate(131.00325520833331 138.2595486111111)"/><use xlink:href="#C" transform="matrix(1,0,0,1,1173.438340784072,444.27878761385705) translate(157.67426215277777 138.2595486111111)"/><use xlink:href="#D" transform="matrix(1,0,0,1,1173.438340784072,444.27878761385705) translate(184.3452690972222 138.2595486111111)"/></g><defs><path d="M240-174c0 40-23 61-54 70L253 0h-59l-57-94H76V0H24v-248c93 4 217-23 216 74zM76-134c48-2 112 12 112-38 0-48-66-32-112-35v73" id="ac"/><path d="M24 0v-248h195v40H76v63h132v40H76v65h150V0H24" id="ad"/><path d="M169-182c-1-43-94-46-97-3 18 66 151 10 154 114 3 95-165 93-204 36-6-8-10-19-12-30l50-8c3 46 112 56 116 5-17-69-150-10-154-114-4-87 153-88 188-35 5 8 8 18 10 28" id="ae"/><path d="M136-208V0H84v-208H4v-40h212v40h-80" id="af"/><g id="a"><use transform="matrix(0.055555555555555546,0,0,0.055555555555555546,0,0)" xlink:href="#ac"/><use transform="matrix(0.055555555555555546,0,0,0.055555555555555546,14.388888888888886,0)" xlink:href="#ad"/><use transform="matrix(0.055555555555555546,0,0,0.055555555555555546,27.722222222222214,0)" xlink:href="#ae"/><use transform="matrix(0.055555555555555546,0,0,0.055555555555555546,41.05555555555554,0)" xlink:href="#ad"/><use transform="matrix(0.055555555555555546,0,0,0.055555555555555546,54.38888888888887,0)" xlink:href="#af"/></g><path d="M182-130c37 4 62 22 62 59C244 23 116-4 24 0v-248c84 5 203-23 205 63 0 31-19 50-47 55zM76-148c40-3 101 13 101-30 0-44-60-28-101-31v61zm0 110c48-3 116 14 116-37 0-48-69-32-116-35v72" id="ag"/><path d="M199 0l-22-63H83L61 0H9l90-248h61L250 0h-51zm-33-102l-36-108c-10 38-24 72-36 108h72" id="ah"/><path d="M24 0v-248h52V0H24" id="ai"/><path d="M67-125c0 53 21 87 73 88 37 1 54-22 65-47l45 17C233-25 199 4 140 4 58 4 20-42 15-125 8-235 124-281 211-232c18 10 29 29 36 50l-46 12c-8-25-30-41-62-41-52 0-71 34-72 86" id="aj"/><path d="M140-251c80 0 125 45 125 126S219 4 139 4C58 4 15-44 15-125s44-126 125-126zm-1 214c52 0 73-35 73-88 0-50-21-86-72-86-52 0-73 35-73 86s22 88 72 88" id="ak"/><g id="b"><use transform="matrix(0.06790123456790122,0,0,0.06790123456790122,0,0)" xlink:href="#ag"/><use transform="matrix(0.06790123456790122,0,0,0.06790123456790122,17.586419753086414,0)" xlink:href="#ah"/><use transform="matrix(0.06790123456790122,0,0,0.06790123456790122,35.17283950617283,0)" xlink:href="#ae"/><use transform="matrix(0.06790123456790122,0,0,0.06790123456790122,51.46913580246911,0)" xlink:href="#ai"/><use transform="matrix(0.06790123456790122,0,0,0.06790123456790122,58.25925925925924,0)" xlink:href="#aj"/><use transform="matrix(0.06790123456790122,0,0,0.06790123456790122,75.84567901234566,0)" xlink:href="#ak"/></g><path d="M24-248c120-7 223 5 221 122C244-46 201 0 124 0H24v-248zM76-40c74 7 117-18 117-86 0-67-45-88-117-82v168" id="al"/><g id="c"><use transform="matrix(0.06790123456790122,0,0,0.06790123456790122,0,0)" xlink:href="#ah"/><use transform="matrix(0.06790123456790122,0,0,0.06790123456790122,17.586419753086414,0)" xlink:href="#aj"/><use transform="matrix(0.06790123456790122,0,0,0.06790123456790122,35.17283950617283,0)" xlink:href="#ai"/><use transform="matrix(0.06790123456790122,0,0,0.06790123456790122,41.96296296296295,0)" xlink:href="#al"/><use transform="matrix(0.06790123456790122,0,0,0.06790123456790122,59.549382716049365,0)" xlink:href="#ak"/></g><path d="M175 0L67-191c6 58 2 128 3 191H24v-248h59L193-55c-6-58-2-129-3-193h46V0h-61" id="am"/><path d="M238-95c0 69-44 99-111 99C63 4 22-25 22-93v-155h51v151c-1 38 19 59 55 60 90 1 49-130 58-211h52v153" id="an"/><g id="d"><use transform="matrix(0.06790123456790122,0,0,0.06790123456790122,0,0)" xlink:href="#am"/><use transform="matrix(0.06790123456790122,0,0,0.06790123456790122,17.586419753086414,0)" xlink:href="#ad"/><use transform="matrix(0.06790123456790122,0,0,0.06790123456790122,33.88271604938271,0)" xlink:href="#an"/><use transform="matrix(0.06790123456790122,0,0,0.06790123456790122,51.469135802469125,0)" xlink:href="#af"/><use transform="matrix(0.06790123456790122,0,0,0.06790123456790122,66.33950617283949,0)" xlink:href="#ac"/><use transform="matrix(0.06790123456790122,0,0,0.06790123456790122,83.92592592592591,0)" xlink:href="#ak"/></g><g id="e"><use transform="matrix(0.06790123456790122,0,0,0.06790123456790122,0,0)" xlink:href="#ad"/><use transform="matrix(0.06790123456790122,0,0,0.06790123456790122,16.29629629629629,0)" xlink:href="#ac"/><use transform="matrix(0.06790123456790122,0,0,0.06790123456790122,33.88271604938271,0)" xlink:href="#ac"/><use transform="matrix(0.06790123456790122,0,0,0.06790123456790122,51.469135802469125,0)" xlink:href="#ak"/><use transform="matrix(0.06790123456790122,0,0,0.06790123456790122,70.48148148148147,0)" xlink:href="#ac"/><use transform="matrix(0.06790123456790122,0,0,0.06790123456790122,88.06790123456788,0)" xlink:href="#ad"/></g><path d="M127-675c0-405 101-695 492-695 382 0 482 297 482 695 0 324-79 561-295 658-59 27-124 37-195 37-378 0-484-300-484-695zm580 451c143-96 121-451 101-680-12-138-46-246-191-246-149 0-184 107-199 248-19 180-21 469 36 598 29 67 72 101 159 103 37 0 69-6 94-23" id="ao"/><use transform="matrix(0.010850694444444444,0,0,0.010850694444444444,0,0)" xlink:href="#ao" id="f"/><path d="M138-1120c207-4 339-93 415-229h266v1140h323V0H149v-209h389v-891c-70 121-216 187-400 194v-214" id="ap"/><use transform="matrix(0.010850694444444444,0,0,0.010850694444444444,0,0)" xlink:href="#ap" id="g"/><path d="M324-409v-244h580v244H324" id="aq"/><g id="h"><use transform="matrix(0.010850694444444444,0,0,0.010850694444444444,0,0)" xlink:href="#ap"/><use transform="matrix(0.010850694444444444,0,0,0.010850694444444444,13.335503472222221,0)" xlink:href="#ap"/><use transform="matrix(0.010850694444444444,0,0,0.010850694444444444,26.671006944444443,0)" xlink:href="#ap"/><use transform="matrix(0.010850694444444444,0,0,0.010850694444444444,40.006510416666664,0)" xlink:href="#ao"/><use transform="matrix(0.010850694444444444,0,0,0.010850694444444444,53.342013888888886,0)" xlink:href="#aq"/><use transform="matrix(0.010850694444444444,0,0,0.010850694444444444,66.67751736111111,0)" xlink:href="#aq"/><use transform="matrix(0.010850694444444444,0,0,0.010850694444444444,80.01302083333334,0)" xlink:href="#aq"/><use transform="matrix(0.010850694444444444,0,0,0.010850694444444444,93.34852430555557,0)" xlink:href="#ap"/></g><use transform="matrix(0.010850694444444444,0,0,0.010850694444444444,0,0)" xlink:href="#aq" id="i"/><g id="j"><use transform="matrix(0.010850694444444444,0,0,0.010850694444444444,0,0)" xlink:href="#ap"/><use transform="matrix(0.010850694444444444,0,0,0.010850694444444444,13.335503472222221,0)" xlink:href="#ap"/><use transform="matrix(0.010850694444444444,0,0,0.010850694444444444,26.671006944444443,0)" xlink:href="#ap"/><use transform="matrix(0.010850694444444444,0,0,0.010850694444444444,40.006510416666664,0)" xlink:href="#ao"/><use transform="matrix(0.010850694444444444,0,0,0.010850694444444444,53.342013888888886,0)" xlink:href="#aq"/><use transform="matrix(0.010850694444444444,0,0,0.010850694444444444,66.67751736111111,0)" xlink:href="#aq"/><use transform="matrix(0.010850694444444444,0,0,0.010850694444444444,80.01302083333334,0)" xlink:href="#ap"/><use transform="matrix(0.010850694444444444,0,0,0.010850694444444444,93.34852430555557,0)" xlink:href="#aq"/></g><g id="k"><use transform="matrix(0.010850694444444444,0,0,0.010850694444444444,0,0)" xlink:href="#ap"/><use transform="matrix(0.010850694444444444,0,0,0.010850694444444444,13.335503472222221,0)" xlink:href="#ap"/><use transform="matrix(0.010850694444444444,0,0,0.010850694444444444,26.671006944444443,0)" xlink:href="#ap"/><use transform="matrix(0.010850694444444444,0,0,0.010850694444444444,40.006510416666664,0)" xlink:href="#ao"/><use transform="matrix(0.010850694444444444,0,0,0.010850694444444444,53.342013888888886,0)" xlink:href="#aq"/><use transform="matrix(0.010850694444444444,0,0,0.010850694444444444,66.67751736111111,0)" xlink:href="#ap"/><use transform="matrix(0.010850694444444444,0,0,0.010850694444444444,80.01302083333334,0)" xlink:href="#aq"/><use transform="matrix(0.010850694444444444,0,0,0.010850694444444444,93.34852430555557,0)" xlink:href="#aq"/></g><use transform="matrix(0.010850694444444444,0,0,0.010850694444444444,0,0)" xlink:href="#aq" id="l"/><g id="m"><use transform="matrix(0.010850694444444444,0,0,0.010850694444444444,0,0)" xlink:href="#ap"/><use transform="matrix(0.010850694444444444,0,0,0.010850694444444444,13.335503472222221,0)" xlink:href="#ap"/><use transform="matrix(0.010850694444444444,0,0,0.010850694444444444,26.671006944444443,0)" xlink:href="#ap"/><use transform="matrix(0.010850694444444444,0,0,0.010850694444444444,40.006510416666664,0)" xlink:href="#ao"/><use transform="matrix(0.010850694444444444,0,0,0.010850694444444444,53.342013888888886,0)" xlink:href="#ap"/><use transform="matrix(0.010850694444444444,0,0,0.010850694444444444,66.67751736111111,0)" xlink:href="#aq"/><use transform="matrix(0.010850694444444444,0,0,0.010850694444444444,80.01302083333334,0)" xlink:href="#aq"/><use transform="matrix(0.010850694444444444,0,0,0.010850694444444444,93.34852430555557,0)" xlink:href="#aq"/></g><g id="n"><use transform="matrix(0.010850694444444444,0,0,0.010850694444444444,0,0)" xlink:href="#ap"/><use transform="matrix(0.010850694444444444,0,0,0.010850694444444444,13.335503472222221,0)" xlink:href="#ap"/><use transform="matrix(0.010850694444444444,0,0,0.010850694444444444,26.671006944444443,0)" xlink:href="#ap"/><use transform="matrix(0.010850694444444444,0,0,0.010850694444444444,40.006510416666664,0)" xlink:href="#ap"/><use transform="matrix(0.010850694444444444,0,0,0.010850694444444444,53.342013888888886,0)" xlink:href="#aq"/><use transform="matrix(0.010850694444444444,0,0,0.010850694444444444,66.67751736111111,0)" xlink:href="#aq"/><use transform="matrix(0.010850694444444444,0,0,0.010850694444444444,80.01302083333334,0)" xlink:href="#aq"/><use transform="matrix(0.010850694444444444,0,0,0.010850694444444444,93.34852430555557,0)" xlink:href="#aq"/></g><path d="M89 20l821-1504h228L321 20H89" id="ar"/><use transform="matrix(0.010850694444444444,0,0,0.010850694444444444,0,0)" xlink:href="#ar" id="p"/><use transform="matrix(0.010850694444444444,0,0,0.010850694444444444,0,0)" xlink:href="#ao" id="q"/><use transform="matrix(0.010850694444444444,0,0,0.010850694444444444,0,0)" xlink:href="#ap" id="r"/><use transform="matrix(0.010850694444444444,0,0,0.010850694444444444,0,0)" xlink:href="#aq" id="s"/><use transform="matrix(0.010850694444444442,0,0,0.010850694444444442,0,0)" xlink:href="#ap" id="t"/><use transform="matrix(0.010850694444444442,0,0,0.010850694444444442,0,0)" xlink:href="#aq" id="u"/><g id="v"><use transform="matrix(0.010850694444444442,0,0,0.010850694444444442,0,0)" xlink:href="#aq"/><use transform="matrix(0.010850694444444442,0,0,0.010850694444444442,13.33550347222222,0)" xlink:href="#aq"/><use transform="matrix(0.010850694444444442,0,0,0.010850694444444442,26.67100694444444,0)" xlink:href="#aq"/><use transform="matrix(0.010850694444444442,0,0,0.010850694444444442,40.00651041666666,0)" xlink:href="#aq"/><use transform="matrix(0.010850694444444442,0,0,0.010850694444444442,53.34201388888888,0)" xlink:href="#aq"/><use transform="matrix(0.010850694444444442,0,0,0.010850694444444442,66.6775173611111,0)" xlink:href="#aq"/><use transform="matrix(0.010850694444444442,0,0,0.010850694444444442,80.01302083333331,0)" xlink:href="#aq"/><use transform="matrix(0.010850694444444442,0,0,0.010850694444444442,93.34852430555554,0)" xlink:href="#aq"/></g><use transform="matrix(0.010850694444444442,0,0,0.010850694444444442,0,0)" xlink:href="#aq" id="w"/><use transform="matrix(0.010850694444444442,0,0,0.010850694444444442,0,0)" xlink:href="#ar" id="y"/><use transform="matrix(0.010850694444444442,0,0,0.010850694444444442,0,0)" xlink:href="#ao" id="z"/><use transform="matrix(0.010850694444444442,0,0,0.010850694444444442,0,0)" xlink:href="#ao" id="A"/><use transform="matrix(0.010850694444444442,0,0,0.010850694444444442,0,0)" xlink:href="#ao" id="B"/><use transform="matrix(0.010850694444444442,0,0,0.010850694444444442,0,0)" xlink:href="#ap" id="C"/><use transform="matrix(0.010850694444444442,0,0,0.010850694444444442,0,0)" xlink:href="#aq" id="D"/><use transform="matrix(0.010850694444444442,0,0,0.010850694444444442,0,0)" xlink:href="#ap" id="E"/><g id="F"><use transform="matrix(0.010850694444444442,0,0,0.010850694444444442,0,0)" xlink:href="#ao"/><use transform="matrix(0.010850694444444442,0,0,0.010850694444444442,13.33550347222222,0)" xlink:href="#aq"/><use transform="matrix(0.010850694444444442,0,0,0.010850694444444442,26.67100694444444,0)" xlink:href="#aq"/><use transform="matrix(0.010850694444444442,0,0,0.010850694444444442,40.00651041666666,0)" xlink:href="#ao"/><use transform="matrix(0.010850694444444442,0,0,0.010850694444444442,53.34201388888888,0)" xlink:href="#aq"/><use transform="matrix(0.010850694444444442,0,0,0.010850694444444442,66.6775173611111,0)" xlink:href="#aq"/><use transform="matrix(0.010850694444444442,0,0,0.010850694444444442,80.01302083333331,0)" xlink:href="#aq"/><use transform="matrix(0.010850694444444442,0,0,0.010850694444444442,93.34852430555554,0)" xlink:href="#aq"/></g><g id="G"><use transform="matrix(0.010850694444444442,0,0,0.010850694444444442,0,0)" xlink:href="#ao"/><use transform="matrix(0.010850694444444442,0,0,0.010850694444444442,13.33550347222222,0)" xlink:href="#aq"/><use transform="matrix(0.010850694444444442,0,0,0.010850694444444442,26.67100694444444,0)" xlink:href="#ao"/><use transform="matrix(0.010850694444444442,0,0,0.010850694444444442,40.00651041666666,0)" xlink:href="#aq"/><use transform="matrix(0.010850694444444442,0,0,0.010850694444444442,53.34201388888888,0)" xlink:href="#aq"/><use transform="matrix(0.010850694444444442,0,0,0.010850694444444442,66.6775173611111,0)" xlink:href="#aq"/><use transform="matrix(0.010850694444444442,0,0,0.010850694444444442,80.01302083333331,0)" xlink:href="#aq"/><use transform="matrix(0.010850694444444442,0,0,0.010850694444444442,93.34852430555554,0)" xlink:href="#aq"/></g><g id="H"><use transform="matrix(0.010850694444444442,0,0,0.010850694444444442,0,0)" xlink:href="#ao"/><use transform="matrix(0.010850694444444442,0,0,0.010850694444444442,13.33550347222222,0)" xlink:href="#ao"/><use transform="matrix(0.010850694444444442,0,0,0.010850694444444442,26.67100694444444,0)" xlink:href="#aq"/><use transform="matrix(0.010850694444444442,0,0,0.010850694444444442,40.00651041666666,0)" xlink:href="#aq"/><use transform="matrix(0.010850694444444442,0,0,0.010850694444444442,53.34201388888888,0)" xlink:href="#aq"/><use transform="matrix(0.010850694444444442,0,0,0.010850694444444442,66.6775173611111,0)" xlink:href="#aq"/><use transform="matrix(0.010850694444444442,0,0,0.010850694444444442,80.01302083333331,0)" xlink:href="#aq"/><use transform="matrix(0.010850694444444442,0,0,0.010850694444444442,93.34852430555554,0)" xlink:href="#aq"/></g><use transform="matrix(0.010850694444444442,0,0,0.010850694444444442,0,0)" xlink:href="#ao" id="I"/><g id="J"><use transform="matrix(0.010850694444444442,0,0,0.010850694444444442,0,0)" xlink:href="#ap"/><use transform="matrix(0.010850694444444442,0,0,0.010850694444444442,13.33550347222222,0)" xlink:href="#ao"/><use transform="matrix(0.010850694444444442,0,0,0.010850694444444442,26.67100694444444,0)" xlink:href="#ao"/><use transform="matrix(0.010850694444444442,0,0,0.010850694444444442,40.00651041666666,0)" xlink:href="#ao"/><use transform="matrix(0.010850694444444442,0,0,0.010850694444444442,53.34201388888888,0)" xlink:href="#aq"/><use transform="matrix(0.010850694444444442,0,0,0.010850694444444442,66.6775173611111,0)" xlink:href="#aq"/><use transform="matrix(0.010850694444444442,0,0,0.010850694444444442,80.01302083333331,0)" xlink:href="#aq"/><use transform="matrix(0.010850694444444442,0,0,0.010850694444444442,93.34852430555554,0)" xlink:href="#ap"/></g><use transform="matrix(0.010850694444444442,0,0,0.010850694444444442,0,0)" xlink:href="#aq" id="K"/><g id="L"><use transform="matrix(0.010850694444444442,0,0,0.010850694444444442,0,0)" xlink:href="#ap"/><use transform="matrix(0.010850694444444442,0,0,0.010850694444444442,13.33550347222222,0)" xlink:href="#ao"/><use transform="matrix(0.010850694444444442,0,0,0.010850694444444442,26.67100694444444,0)" xlink:href="#ao"/><use transform="matrix(0.010850694444444442,0,0,0.010850694444444442,40.00651041666666,0)" xlink:href="#ao"/><use transform="matrix(0.010850694444444442,0,0,0.010850694444444442,53.34201388888888,0)" xlink:href="#aq"/><use transform="matrix(0.010850694444444442,0,0,0.010850694444444442,66.6775173611111,0)" xlink:href="#aq"/><use transform="matrix(0.010850694444444442,0,0,0.010850694444444442,80.01302083333331,0)" xlink:href="#ap"/><use transform="matrix(0.010850694444444442,0,0,0.010850694444444442,93.34852430555554,0)" xlink:href="#aq"/></g><g id="M"><use transform="matrix(0.010850694444444442,0,0,0.010850694444444442,0,0)" xlink:href="#ap"/><use transform="matrix(0.010850694444444442,0,0,0.010850694444444442,13.33550347222222,0)" xlink:href="#ao"/><use transform="matrix(0.010850694444444442,0,0,0.010850694444444442,26.67100694444444,0)" xlink:href="#ao"/><use transform="matrix(0.010850694444444442,0,0,0.010850694444444442,40.00651041666666,0)" xlink:href="#ao"/><use transform="matrix(0.010850694444444442,0,0,0.010850694444444442,53.34201388888888,0)" xlink:href="#aq"/><use transform="matrix(0.010850694444444442,0,0,0.010850694444444442,66.6775173611111,0)" xlink:href="#ap"/><use transform="matrix(0.010850694444444442,0,0,0.010850694444444442,80.01302083333331,0)" xlink:href="#aq"/><use transform="matrix(0.010850694444444442,0,0,0.010850694444444442,93.34852430555554,0)" xlink:href="#aq"/></g><g id="N"><use transform="matrix(0.010850694444444442,0,0,0.010850694444444442,0,0)" xlink:href="#ap"/><use transform="matrix(0.010850694444444442,0,0,0.010850694444444442,13.33550347222222,0)" xlink:href="#ao"/><use transform="matrix(0.010850694444444442,0,0,0.010850694444444442,26.67100694444444,0)" xlink:href="#ao"/><use transform="matrix(0.010850694444444442,0,0,0.010850694444444442,40.00651041666666,0)" xlink:href="#ao"/><use transform="matrix(0.010850694444444442,0,0,0.010850694444444442,53.34201388888888,0)" xlink:href="#ap"/><use transform="matrix(0.010850694444444442,0,0,0.010850694444444442,66.6775173611111,0)" xlink:href="#aq"/><use transform="matrix(0.010850694444444442,0,0,0.010850694444444442,80.01302083333331,0)" xlink:href="#aq"/><use transform="matrix(0.010850694444444442,0,0,0.010850694444444442,93.34852430555554,0)" xlink:href="#aq"/></g><g id="O"><use transform="matrix(0.010850694444444442,0,0,0.010850694444444442,0,0)" xlink:href="#ap"/><use transform="matrix(0.010850694444444442,0,0,0.010850694444444442,13.33550347222222,0)" xlink:href="#ao"/><use transform="matrix(0.010850694444444442,0,0,0.010850694444444442,26.67100694444444,0)" xlink:href="#ao"/><use transform="matrix(0.010850694444444442,0,0,0.010850694444444442,40.00651041666666,0)" xlink:href="#ap"/><use transform="matrix(0.010850694444444442,0,0,0.010850694444444442,53.34201388888888,0)" xlink:href="#aq"/><use transform="matrix(0.010850694444444442,0,0,0.010850694444444442,66.6775173611111,0)" xlink:href="#aq"/><use transform="matrix(0.010850694444444442,0,0,0.010850694444444442,80.01302083333331,0)" xlink:href="#aq"/><use transform="matrix(0.010850694444444442,0,0,0.010850694444444442,93.34852430555554,0)" xlink:href="#aq"/></g><g id="P"><use transform="matrix(0.010850694444444442,0,0,0.010850694444444442,0,0)" xlink:href="#ap"/><use transform="matrix(0.010850694444444442,0,0,0.010850694444444442,13.33550347222222,0)" xlink:href="#ao"/><use transform="matrix(0.010850694444444442,0,0,0.010850694444444442,26.67100694444444,0)" xlink:href="#ap"/><use transform="matrix(0.010850694444444442,0,0,0.010850694444444442,40.00651041666666,0)" xlink:href="#aq"/><use transform="matrix(0.010850694444444442,0,0,0.010850694444444442,53.34201388888888,0)" xlink:href="#aq"/><use transform="matrix(0.010850694444444442,0,0,0.010850694444444442,66.6775173611111,0)" xlink:href="#aq"/><use transform="matrix(0.010850694444444442,0,0,0.010850694444444442,80.01302083333331,0)" xlink:href="#aq"/><use transform="matrix(0.010850694444444442,0,0,0.010850694444444442,93.34852430555554,0)" xlink:href="#aq"/></g><g id="Q"><use transform="matrix(0.010850694444444442,0,0,0.010850694444444442,0,0)" xlink:href="#ap"/><use transform="matrix(0.010850694444444442,0,0,0.010850694444444442,13.33550347222222,0)" xlink:href="#ap"/><use transform="matrix(0.010850694444444442,0,0,0.010850694444444442,26.67100694444444,0)" xlink:href="#ao"/><use transform="matrix(0.010850694444444442,0,0,0.010850694444444442,40.00651041666666,0)" xlink:href="#aq"/><use transform="matrix(0.010850694444444442,0,0,0.010850694444444442,53.34201388888888,0)" xlink:href="#aq"/><use transform="matrix(0.010850694444444442,0,0,0.010850694444444442,66.6775173611111,0)" xlink:href="#aq"/><use transform="matrix(0.010850694444444442,0,0,0.010850694444444442,80.01302083333331,0)" xlink:href="#aq"/><use transform="matrix(0.010850694444444442,0,0,0.010850694444444442,93.34852430555554,0)" xlink:href="#aq"/></g><g id="R"><use transform="matrix(0.010850694444444442,0,0,0.010850694444444442,0,0)" xlink:href="#ap"/><use transform="matrix(0.010850694444444442,0,0,0.010850694444444442,13.33550347222222,0)" xlink:href="#ap"/><use transform="matrix(0.010850694444444442,0,0,0.010850694444444442,26.67100694444444,0)" xlink:href="#ap"/><use transform="matrix(0.010850694444444442,0,0,0.010850694444444442,40.00651041666666,0)" xlink:href="#ao"/><use transform="matrix(0.010850694444444442,0,0,0.010850694444444442,53.34201388888888,0)" xlink:href="#ao"/><use transform="matrix(0.010850694444444442,0,0,0.010850694444444442,66.6775173611111,0)" xlink:href="#ao"/><use transform="matrix(0.010850694444444442,0,0,0.010850694444444442,80.01302083333331,0)" xlink:href="#ao"/><use transform="matrix(0.010850694444444442,0,0,0.010850694444444442,93.34852430555554,0)" xlink:href="#ao"/></g><use transform="matrix(0.010850694444444442,0,0,0.010850694444444442,0,0)" xlink:href="#ap" id="S"/><use transform="matrix(0.010850694444444442,0,0,0.010850694444444442,0,0)" xlink:href="#ao" id="T"/><use transform="matrix(0.010850694444444442,0,0,0.010850694444444442,0,0)" xlink:href="#ap" id="U"/><use transform="matrix(0.010850694444444444,0,0,0.010850694444444444,0,0)" xlink:href="#aq" id="V"/><g id="W"><use transform="matrix(0.010850694444444444,0,0,0.010850694444444444,0,0)" xlink:href="#aq"/><use transform="matrix(0.010850694444444444,0,0,0.010850694444444444,13.335503472222221,0)" xlink:href="#aq"/><use transform="matrix(0.010850694444444444,0,0,0.010850694444444444,26.671006944444443,0)" xlink:href="#aq"/><use transform="matrix(0.010850694444444444,0,0,0.010850694444444444,40.006510416666664,0)" xlink:href="#aq"/><use transform="matrix(0.010850694444444444,0,0,0.010850694444444444,53.342013888888886,0)" xlink:href="#aq"/><use transform="matrix(0.010850694444444444,0,0,0.010850694444444444,66.67751736111111,0)" xlink:href="#aq"/><use transform="matrix(0.010850694444444444,0,0,0.010850694444444444,80.01302083333334,0)" xlink:href="#aq"/><use transform="matrix(0.010850694444444444,0,0,0.010850694444444444,93.34852430555557,0)" xlink:href="#aq"/></g><use transform="matrix(0.010850694444444444,0,0,0.010850694444444444,0,0)" xlink:href="#ap" id="X"/><use transform="matrix(0.010850694444444444,0,0,0.010850694444444444,0,0)" xlink:href="#ao" id="Y"/><g id="Z"><use transform="matrix(0.07407407407407407,0,0,0.07407407407407407,0,0)" xlink:href="#ac"/><use transform="matrix(0.07407407407407407,0,0,0.07407407407407407,19.185185185185183,0)" xlink:href="#ad"/><use transform="matrix(0.07407407407407407,0,0,0.07407407407407407,36.96296296296296,0)" xlink:href="#ae"/><use transform="matrix(0.07407407407407407,0,0,0.07407407407407407,54.74074074074074,0)" xlink:href="#ad"/><use transform="matrix(0.07407407407407407,0,0,0.07407407407407407,72.51851851851852,0)" xlink:href="#af"/></g><g id="aa"><use transform="matrix(0.010850694444444442,0,0,0.010850694444444442,0,0)" xlink:href="#ao"/><use transform="matrix(0.010850694444444442,0,0,0.010850694444444442,13.33550347222222,0)" xlink:href="#ap"/><use transform="matrix(0.010850694444444442,0,0,0.010850694444444442,26.67100694444444,0)" xlink:href="#ap"/><use transform="matrix(0.010850694444444442,0,0,0.010850694444444442,40.00651041666666,0)" xlink:href="#ap"/><use transform="matrix(0.010850694444444442,0,0,0.010850694444444442,53.34201388888888,0)" xlink:href="#aq"/><use transform="matrix(0.010850694444444442,0,0,0.010850694444444442,66.6775173611111,0)" xlink:href="#aq"/><use transform="matrix(0.010850694444444442,0,0,0.010850694444444442,80.01302083333331,0)" xlink:href="#aq"/><use transform="matrix(0.010850694444444442,0,0,0.010850694444444442,93.34852430555554,0)" xlink:href="#aq"/></g><g id="ab"><use transform="matrix(0.010850694444444442,0,0,0.010850694444444442,0,0)" xlink:href="#ap"/><use transform="matrix(0.010850694444444442,0,0,0.010850694444444442,13.33550347222222,0)" xlink:href="#ao"/><use transform="matrix(0.010850694444444442,0,0,0.010850694444444442,26.67100694444444,0)" xlink:href="#ao"/><use transform="matrix(0.010850694444444442,0,0,0.010850694444444442,40.00651041666666,0)" xlink:href="#ao"/><use transform="matrix(0.010850694444444442,0,0,0.010850694444444442,53.34201388888888,0)" xlink:href="#ao"/><use transform="matrix(0.010850694444444442,0,0,0.010850694444444442,66.6775173611111,0)" xlink:href="#ao"/><use transform="matrix(0.010850694444444442,0,0,0.010850694444444442,80.01302083333331,0)" xlink:href="#ao"/><use transform="matrix(0.010850694444444442,0,0,0.010850694444444442,93.34852430555554,0)" xlink:href="#ao"/></g></defs></g></svg>