<svg xmlns="http://www.w3.org/2000/svg" xmlns:xlink="http://www.w3.org/1999/xlink" xmlns:lucid="lucid" width="1859.31" height="1218.57"><g transform="translate(0 -68.54837874736215)" lucid:page-tab-id="0_0"><path d="M0 0h1870.87v1322.83H0z" fill="#fff"/><path d="M525.96 799.56c0 34.8-28.2 63-63 63-34.78 0-62.98-28.2-62.98-63s28.2-63 63-63c34.78 0 62.98 28.2 62.98 63z" stroke="#000" stroke-width="3" fill="#fff"/><use xlink:href="#a" transform="matrix(1,0,0,1,404.97609605548683,741.5666367617148) translate(24.72222222222223 63.125)"/><path d="M1353.32 934.94c0 34.78-28.2 63-63 63-34.78 0-62.98-28.22-62.98-63 0-34.8 28.2-63 63-63 34.78 0 62.98 28.2 62.98 63z" stroke="#000" stroke-width="3" fill="#fff"/><use xlink:href="#b" transform="matrix(1,0,0,1,1232.3355163098902,876.9431134375843) translate(10.570987654321002 63.05555555555556)"/><path d="M1008.8 377.96c0 34.8-28.2 63-63 63-34.78 0-62.98-28.2-62.98-63s28.2-63 63-63c34.78 0 62.98 28.2 62.98 63z" stroke="#000" stroke-width="3" fill="#fff"/><use xlink:href="#c" transform="matrix(1,0,0,1,887.8196476768439,319.971616970054) translate(18.719135802469147 63.05555555555556)"/><path d="M1509.88 556.96c0 34.8-28.2 63-63 63-34.78 0-62.98-28.2-62.98-63s28.2-63 63-63c34.78 0 62.98 28.2 62.98 63z" stroke="#000" stroke-width="3" fill="#fff"/><use xlink:href="#d" transform="matrix(1,0,0,1,1388.8960040770787,498.96918411448445) translate(6.5308641975308745 63.05555555555556)"/><path d="M345.98 1203c0 34.78-28.2 62.98-63 62.98-34.78 0-62.98-28.2-62.98-63 0-34.78 28.2-62.98 63-62.98 34.78 0 62.98 28.2 62.98 63z" stroke="#000" stroke-width="3" fill="#fff"/><use xlink:href="#e" transform="matrix(1,0,0,1,225,1145) translate(5.817901234567913 63.05555555555556)"/><path d="M24.44 976.97c0-3.3 2.7-6 6-6h282.18c3.3 0 6 2.7 6 6v85.3c0 3.3-2.7 6-6 6H30.44c-3.3 0-6-2.7-6-6z" stroke="#000" stroke-opacity="0" stroke-width="3" fill="#fff" fill-opacity="0"/><use xlink:href="#f" transform="matrix(1,0,0,1,29.441879497532682,975.9719439997494) translate(22.48046874999997 39.7734375)"/><use xlink:href="#g" transform="matrix(1,0,0,1,29.441879497532682,975.9719439997494) translate(49.151475694444414 39.7734375)"/><use xlink:href="#h" transform="matrix(1,0,0,1,29.441879497532682,975.9719439997494) translate(75.82248263888886 39.7734375)"/><use xlink:href="#i" transform="matrix(1,0,0,1,29.441879497532682,975.9719439997494) translate(195.84201388888889 39.7734375)"/><use xlink:href="#j" transform="matrix(1,0,0,1,29.441879497532682,975.9719439997494) translate(222.51302083333334 39.7734375)"/><use xlink:href="#k" transform="matrix(1,0,0,1,29.441879497532682,975.9719439997494) translate(249.1840277777778 39.7734375)"/><use xlink:href="#f" transform="matrix(1,0,0,1,29.441879497532682,975.9719439997494) translate(42.483723958333314 61.99565972222222)"/><use xlink:href="#g" transform="matrix(1,0,0,1,29.441879497532682,975.9719439997494) translate(69.15473090277776 61.99565972222222)"/><use xlink:href="#l" transform="matrix(1,0,0,1,29.441879497532682,975.9719439997494) translate(95.8257378472222 61.99565972222222)"/><use xlink:href="#l" transform="matrix(1,0,0,1,29.441879497532682,975.9719439997494) translate(122.49674479166664 61.99565972222222)"/><use xlink:href="#l" transform="matrix(1,0,0,1,29.441879497532682,975.9719439997494) translate(149.1677517361111 61.99565972222222)"/><use xlink:href="#i" transform="matrix(1,0,0,1,29.441879497532682,975.9719439997494) translate(175.83875868055554 61.99565972222222)"/><use xlink:href="#j" transform="matrix(1,0,0,1,29.441879497532682,975.9719439997494) translate(202.509765625 61.99565972222222)"/><use xlink:href="#m" transform="matrix(1,0,0,1,29.441879497532682,975.9719439997494) translate(229.18077256944446 61.99565972222222)"/><path d="M746.38 965.98c0-3.3 2.68-6 6-6h279.97c3.3 0 6 2.7 6 6v58.74c0 3.3-2.7 6-6 6H752.38c-3.32 0-6-2.7-6-6z" stroke="#000" stroke-opacity="0" stroke-width="3" fill="#fff" fill-opacity="0"/><use xlink:href="#n" transform="matrix(1,0,0,1,751.3764002809526,964.9790254749211) translate(20.980468750000043 25.398437499999996)"/><use xlink:href="#o" transform="matrix(1,0,0,1,751.3764002809526,964.9790254749211) translate(47.651475694444485 25.398437499999996)"/><use xlink:href="#p" transform="matrix(1,0,0,1,751.3764002809526,964.9790254749211) translate(74.32248263888891 25.398437499999996)"/><use xlink:href="#q" transform="matrix(1,0,0,1,751.3764002809526,964.9790254749211) translate(194.34201388888886 25.398437499999996)"/><use xlink:href="#q" transform="matrix(1,0,0,1,751.3764002809526,964.9790254749211) translate(221.01302083333331 25.398437499999996)"/><use xlink:href="#r" transform="matrix(1,0,0,1,751.3764002809526,964.9790254749211) translate(247.68402777777771 25.398437499999996)"/><use xlink:href="#s" transform="matrix(1,0,0,1,751.3764002809526,964.9790254749211) translate(40.98372395833336 47.620659722222214)"/><use xlink:href="#t" transform="matrix(1,0,0,1,751.3764002809526,964.9790254749211) translate(67.6547309027778 47.620659722222214)"/><use xlink:href="#u" transform="matrix(1,0,0,1,751.3764002809526,964.9790254749211) translate(94.32573784722223 47.620659722222214)"/><use xlink:href="#u" transform="matrix(1,0,0,1,751.3764002809526,964.9790254749211) translate(120.99674479166667 47.620659722222214)"/><use xlink:href="#v" transform="matrix(1,0,0,1,751.3764002809526,964.9790254749211) translate(147.66775173611111 47.620659722222214)"/><use xlink:href="#u" transform="matrix(1,0,0,1,751.3764002809526,964.9790254749211) translate(174.33875868055554 47.620659722222214)"/><use xlink:href="#q" transform="matrix(1,0,0,1,751.3764002809526,964.9790254749211) translate(201.009765625 47.620659722222214)"/><use xlink:href="#w" transform="matrix(1,0,0,1,751.3764002809526,964.9790254749211) translate(227.6807725694444 47.620659722222214)"/><path d="M791.6 565.16c0-3.3 2.7-6 6-6h275.65c3.32 0 6 2.7 6 6v50.13c0 3.3-2.68 6-6 6H797.6c-3.3 0-6-2.7-6-6z" stroke="#000" stroke-opacity="0" stroke-width="3" fill="#fff" fill-opacity="0"/><use xlink:href="#s" transform="matrix(1,0,0,1,796.6142050030958,564.1588139501698) translate(18.980468750000043 17.773437499999996)"/><use xlink:href="#x" transform="matrix(1,0,0,1,796.6142050030958,564.1588139501698) translate(45.651475694444485 17.773437499999996)"/><use xlink:href="#y" transform="matrix(1,0,0,1,796.6142050030958,564.1588139501698) translate(72.32248263888891 17.773437499999996)"/><use xlink:href="#u" transform="matrix(1,0,0,1,796.6142050030958,564.1588139501698) translate(192.34201388888886 17.773437499999996)"/><use xlink:href="#q" transform="matrix(1,0,0,1,796.6142050030958,564.1588139501698) translate(219.01302083333331 17.773437499999996)"/><use xlink:href="#r" transform="matrix(1,0,0,1,796.6142050030958,564.1588139501698) translate(245.68402777777771 17.773437499999996)"/><use xlink:href="#s" transform="matrix(1,0,0,1,796.6142050030958,564.1588139501698) translate(38.98372395833336 39.995659722222214)"/><use xlink:href="#t" transform="matrix(1,0,0,1,796.6142050030958,564.1588139501698) translate(65.6547309027778 39.995659722222214)"/><use xlink:href="#u" transform="matrix(1,0,0,1,796.6142050030958,564.1588139501698) translate(92.32573784722223 39.995659722222214)"/><use xlink:href="#v" transform="matrix(1,0,0,1,796.6142050030958,564.1588139501698) translate(118.99674479166667 39.995659722222214)"/><use xlink:href="#u" transform="matrix(1,0,0,1,796.6142050030958,564.1588139501698) translate(145.66775173611111 39.995659722222214)"/><use xlink:href="#v" transform="matrix(1,0,0,1,796.6142050030958,564.1588139501698) translate(172.33875868055554 39.995659722222214)"/><use xlink:href="#u" transform="matrix(1,0,0,1,796.6142050030958,564.1588139501698) translate(199.009765625 39.995659722222214)"/><use xlink:href="#w" transform="matrix(1,0,0,1,796.6142050030958,564.1588139501698) translate(225.6807725694444 39.995659722222214)"/><path d="M399.98 1036.72c0-3.32 2.68-6 6-6h273.9c3.32 0 6 2.68 6 6v65.1c0 3.32-2.68 6-6 6H406c-3.32 0-6-2.68-6-6z" stroke="#000" stroke-opacity="0" stroke-width="3" fill="#fff" fill-opacity="0"/><use xlink:href="#n" transform="matrix(1,0,0,1,404.97609605548683,1035.7150290957634) translate(17.980468750000043 30.523437499999996)"/><use xlink:href="#o" transform="matrix(1,0,0,1,404.97609605548683,1035.7150290957634) translate(44.651475694444485 30.523437499999996)"/><use xlink:href="#p" transform="matrix(1,0,0,1,404.97609605548683,1035.7150290957634) translate(71.32248263888891 30.523437499999996)"/><use xlink:href="#q" transform="matrix(1,0,0,1,404.97609605548683,1035.7150290957634) translate(191.34201388888886 30.523437499999996)"/><use xlink:href="#q" transform="matrix(1,0,0,1,404.97609605548683,1035.7150290957634) translate(218.01302083333331 30.523437499999996)"/><use xlink:href="#r" transform="matrix(1,0,0,1,404.97609605548683,1035.7150290957634) translate(244.68402777777771 30.523437499999996)"/><use xlink:href="#s" transform="matrix(1,0,0,1,404.97609605548683,1035.7150290957634) translate(37.98372395833336 52.745659722222214)"/><use xlink:href="#t" transform="matrix(1,0,0,1,404.97609605548683,1035.7150290957634) translate(64.6547309027778 52.745659722222214)"/><use xlink:href="#u" transform="matrix(1,0,0,1,404.97609605548683,1035.7150290957634) translate(91.32573784722223 52.745659722222214)"/><use xlink:href="#u" transform="matrix(1,0,0,1,404.97609605548683,1035.7150290957634) translate(117.99674479166667 52.745659722222214)"/><use xlink:href="#v" transform="matrix(1,0,0,1,404.97609605548683,1035.7150290957634) translate(144.66775173611111 52.745659722222214)"/><use xlink:href="#u" transform="matrix(1,0,0,1,404.97609605548683,1035.7150290957634) translate(171.33875868055554 52.745659722222214)"/><use xlink:href="#q" transform="matrix(1,0,0,1,404.97609605548683,1035.7150290957634) translate(198.009765625 52.745659722222214)"/><use xlink:href="#w" transform="matrix(1,0,0,1,404.97609605548683,1035.7150290957634) translate(224.6807725694444 52.745659722222214)"/><path d="M20 666c0-3.3 2.7-6 6-6h306.62c3.3 0 6 2.7 6 6v162.95c0 3.3-2.7 6-6 6H26c-3.3 0-6-2.7-6-6z" stroke="#000" stroke-opacity="0" stroke-width="3" fill="#fff" fill-opacity="0"/><use xlink:href="#n" transform="matrix(1,0,0,1,25,665) translate(34.48046875000004 43.5546875)"/><use xlink:href="#o" transform="matrix(1,0,0,1,25,665) translate(61.151475694444485 43.5546875)"/><use xlink:href="#p" transform="matrix(1,0,0,1,25,665) translate(87.82248263888891 43.5546875)"/><use xlink:href="#q" transform="matrix(1,0,0,1,25,665) translate(207.84201388888886 43.5546875)"/><use xlink:href="#q" transform="matrix(1,0,0,1,25,665) translate(234.51302083333331 43.5546875)"/><use xlink:href="#r" transform="matrix(1,0,0,1,25,665) translate(261.1840277777777 43.5546875)"/><use xlink:href="#s" transform="matrix(1,0,0,1,25,665) translate(54.48372395833336 65.77690972222221)"/><use xlink:href="#t" transform="matrix(1,0,0,1,25,665) translate(81.1547309027778 65.77690972222221)"/><use xlink:href="#u" transform="matrix(1,0,0,1,25,665) translate(107.82573784722223 65.77690972222221)"/><use xlink:href="#u" transform="matrix(1,0,0,1,25,665) translate(134.49674479166669 65.77690972222221)"/><use xlink:href="#v" transform="matrix(1,0,0,1,25,665) translate(161.16775173611111 65.77690972222221)"/><use xlink:href="#u" transform="matrix(1,0,0,1,25,665) translate(187.83875868055554 65.77690972222221)"/><use xlink:href="#q" transform="matrix(1,0,0,1,25,665) translate(214.509765625 65.77690972222221)"/><use xlink:href="#z" transform="matrix(1,0,0,1,25,665) translate(241.1807725694444 65.77690972222221)"/><use xlink:href="#A" transform="matrix(1,0,0,1,25,665) translate(154.5 87.99913194444443)"/><use xlink:href="#s" transform="matrix(1,0,0,1,25,665) translate(34.48046875000004 110.22135416666664)"/><use xlink:href="#t" transform="matrix(1,0,0,1,25,665) translate(61.151475694444485 110.22135416666664)"/><use xlink:href="#p" transform="matrix(1,0,0,1,25,665) translate(87.82248263888891 110.22135416666664)"/><use xlink:href="#q" transform="matrix(1,0,0,1,25,665) translate(207.84201388888886 110.22135416666664)"/><use xlink:href="#q" transform="matrix(1,0,0,1,25,665) translate(234.51302083333331 110.22135416666664)"/><use xlink:href="#r" transform="matrix(1,0,0,1,25,665) translate(261.1840277777777 110.22135416666664)"/><use xlink:href="#s" transform="matrix(1,0,0,1,25,665) translate(54.48372395833336 132.44357638888886)"/><use xlink:href="#t" transform="matrix(1,0,0,1,25,665) translate(81.1547309027778 132.44357638888886)"/><use xlink:href="#u" transform="matrix(1,0,0,1,25,665) translate(107.82573784722223 132.44357638888886)"/><use xlink:href="#u" transform="matrix(1,0,0,1,25,665) translate(134.49674479166669 132.44357638888886)"/><use xlink:href="#v" transform="matrix(1,0,0,1,25,665) translate(161.16775173611111 132.44357638888886)"/><use xlink:href="#u" transform="matrix(1,0,0,1,25,665) translate(187.83875868055554 132.44357638888886)"/><use xlink:href="#q" transform="matrix(1,0,0,1,25,665) translate(214.509765625 132.44357638888886)"/><use xlink:href="#w" transform="matrix(1,0,0,1,25,665) translate(241.1807725694444 132.44357638888886)"/><path d="M962.74 762.64c0-3.32 2.68-6 6-6h272.9c3.32 0 6 2.68 6 6v62.62c0 3.3-2.68 6-6 6h-272.9c-3.32 0-6-2.7-6-6z" stroke="#000" stroke-opacity="0" stroke-width="3" fill="#fff" fill-opacity="0"/><g><use xlink:href="#s" transform="matrix(1,0,0,1,967.7375163432506,761.635338201346) translate(17.480468750000043 27.929687499999996)"/><use xlink:href="#x" transform="matrix(1,0,0,1,967.7375163432506,761.635338201346) translate(44.151475694444485 27.929687499999996)"/><use xlink:href="#B" transform="matrix(1,0,0,1,967.7375163432506,761.635338201346) translate(70.82248263888891 27.929687499999996)"/><use xlink:href="#u" transform="matrix(1,0,0,1,967.7375163432506,761.635338201346) translate(190.84201388888886 27.929687499999996)"/><use xlink:href="#q" transform="matrix(1,0,0,1,967.7375163432506,761.635338201346) translate(217.51302083333331 27.929687499999996)"/><use xlink:href="#r" transform="matrix(1,0,0,1,967.7375163432506,761.635338201346) translate(244.18402777777771 27.929687499999996)"/><use xlink:href="#s" transform="matrix(1,0,0,1,967.7375163432506,761.635338201346) translate(37.48372395833336 50.151909722222214)"/><use xlink:href="#t" transform="matrix(1,0,0,1,967.7375163432506,761.635338201346) translate(64.1547309027778 50.151909722222214)"/><use xlink:href="#v" transform="matrix(1,0,0,1,967.7375163432506,761.635338201346) translate(90.82573784722223 50.151909722222214)"/><use xlink:href="#u" transform="matrix(1,0,0,1,967.7375163432506,761.635338201346) translate(117.49674479166667 50.151909722222214)"/><use xlink:href="#u" transform="matrix(1,0,0,1,967.7375163432506,761.635338201346) translate(144.16775173611111 50.151909722222214)"/><use xlink:href="#v" transform="matrix(1,0,0,1,967.7375163432506,761.635338201346) translate(170.83875868055554 50.151909722222214)"/><use xlink:href="#v" transform="matrix(1,0,0,1,967.7375163432506,761.635338201346) translate(197.509765625 50.151909722222214)"/><use xlink:href="#w" transform="matrix(1,0,0,1,967.7375163432506,761.635338201346) translate(224.1807725694444 50.151909722222214)"/></g><path d="M799.34 207.76c0-3.3 2.68-6 6-6h291.1c3.32 0 6 2.7 6 6v51.86c0 3.32-2.68 6-6 6h-291.1c-3.32 0-6-2.68-6-6z" stroke="#000" stroke-opacity="0" stroke-width="3" fill="#fff" fill-opacity="0"/><g><use xlink:href="#s" transform="matrix(1,0,0,1,804.3365110385464,206.7599978587081) translate(26.980468750000043 21.148437499999996)"/><use xlink:href="#o" transform="matrix(1,0,0,1,804.3365110385464,206.7599978587081) translate(53.651475694444485 21.148437499999996)"/><use xlink:href="#p" transform="matrix(1,0,0,1,804.3365110385464,206.7599978587081) translate(80.32248263888891 21.148437499999996)"/><use xlink:href="#q" transform="matrix(1,0,0,1,804.3365110385464,206.7599978587081) translate(200.34201388888886 21.148437499999996)"/><use xlink:href="#u" transform="matrix(1,0,0,1,804.3365110385464,206.7599978587081) translate(227.01302083333331 21.148437499999996)"/><use xlink:href="#r" transform="matrix(1,0,0,1,804.3365110385464,206.7599978587081) translate(253.68402777777771 21.148437499999996)"/><use xlink:href="#s" transform="matrix(1,0,0,1,804.3365110385464,206.7599978587081) translate(46.98372395833336 43.370659722222214)"/><use xlink:href="#t" transform="matrix(1,0,0,1,804.3365110385464,206.7599978587081) translate(73.6547309027778 43.370659722222214)"/><use xlink:href="#u" transform="matrix(1,0,0,1,804.3365110385464,206.7599978587081) translate(100.32573784722223 43.370659722222214)"/><use xlink:href="#v" transform="matrix(1,0,0,1,804.3365110385464,206.7599978587081) translate(126.99674479166667 43.370659722222214)"/><use xlink:href="#u" transform="matrix(1,0,0,1,804.3365110385464,206.7599978587081) translate(153.66775173611111 43.370659722222214)"/><use xlink:href="#u" transform="matrix(1,0,0,1,804.3365110385464,206.7599978587081) translate(180.33875868055554 43.370659722222214)"/><use xlink:href="#u" transform="matrix(1,0,0,1,804.3365110385464,206.7599978587081) translate(207.009765625 43.370659722222214)"/><use xlink:href="#w" transform="matrix(1,0,0,1,804.3365110385464,206.7599978587081) translate(233.6807725694444 43.370659722222214)"/></g><path d="M1160 1066c0-3.3 2.7-6 6-6h292.72c3.3 0 6 2.7 6 6v50.22c0 3.32-2.7 6-6 6H1166c-3.3 0-6-2.68-6-6z" stroke="#000" stroke-opacity="0" stroke-width="3" fill="#fff" fill-opacity="0"/><g><use xlink:href="#s" transform="matrix(1,0,0,1,1165,1065) translate(27.480468750000043 17.773437499999996)"/><use xlink:href="#o" transform="matrix(1,0,0,1,1165,1065) translate(54.151475694444485 17.773437499999996)"/><use xlink:href="#p" transform="matrix(1,0,0,1,1165,1065) translate(80.82248263888891 17.773437499999996)"/><use xlink:href="#q" transform="matrix(1,0,0,1,1165,1065) translate(200.84201388888886 17.773437499999996)"/><use xlink:href="#u" transform="matrix(1,0,0,1,1165,1065) translate(227.51302083333331 17.773437499999996)"/><use xlink:href="#r" transform="matrix(1,0,0,1,1165,1065) translate(254.18402777777771 17.773437499999996)"/><use xlink:href="#s" transform="matrix(1,0,0,1,1165,1065) translate(47.48372395833336 39.995659722222214)"/><use xlink:href="#t" transform="matrix(1,0,0,1,1165,1065) translate(74.1547309027778 39.995659722222214)"/><use xlink:href="#v" transform="matrix(1,0,0,1,1165,1065) translate(100.82573784722223 39.995659722222214)"/><use xlink:href="#u" transform="matrix(1,0,0,1,1165,1065) translate(127.49674479166667 39.995659722222214)"/><use xlink:href="#u" transform="matrix(1,0,0,1,1165,1065) translate(154.16775173611111 39.995659722222214)"/><use xlink:href="#u" transform="matrix(1,0,0,1,1165,1065) translate(180.83875868055554 39.995659722222214)"/><use xlink:href="#v" transform="matrix(1,0,0,1,1165,1065) translate(207.509765625 39.995659722222214)"/><use xlink:href="#w" transform="matrix(1,0,0,1,1165,1065) translate(234.1807725694444 39.995659722222214)"/></g><path d="M1087.9 342.82c0-3.32 2.67-6 6-6h275.62c3.32 0 6 2.68 6 6v43.85c0 3.3-2.68 6-6 6H1093.9c-3.33 0-6-2.7-6-6z" stroke="#000" stroke-opacity="0" stroke-width="3" fill="#fff" fill-opacity="0"/><g><use xlink:href="#s" transform="matrix(1,0,0,1,1092.8860869861296,341.8183874063672) translate(18.980468750000043 17.773437499999996)"/><use xlink:href="#o" transform="matrix(1,0,0,1,1092.8860869861296,341.8183874063672) translate(45.651475694444485 17.773437499999996)"/><use xlink:href="#p" transform="matrix(1,0,0,1,1092.8860869861296,341.8183874063672) translate(72.32248263888891 17.773437499999996)"/><use xlink:href="#q" transform="matrix(1,0,0,1,1092.8860869861296,341.8183874063672) translate(192.34201388888886 17.773437499999996)"/><use xlink:href="#v" transform="matrix(1,0,0,1,1092.8860869861296,341.8183874063672) translate(219.01302083333331 17.773437499999996)"/><use xlink:href="#r" transform="matrix(1,0,0,1,1092.8860869861296,341.8183874063672) translate(245.68402777777771 17.773437499999996)"/><use xlink:href="#n" transform="matrix(1,0,0,1,1092.8860869861296,341.8183874063672) translate(38.98372395833336 39.995659722222214)"/><use xlink:href="#t" transform="matrix(1,0,0,1,1092.8860869861296,341.8183874063672) translate(65.6547309027778 39.995659722222214)"/><use xlink:href="#u" transform="matrix(1,0,0,1,1092.8860869861296,341.8183874063672) translate(92.32573784722223 39.995659722222214)"/><use xlink:href="#u" transform="matrix(1,0,0,1,1092.8860869861296,341.8183874063672) translate(118.99674479166667 39.995659722222214)"/><use xlink:href="#u" transform="matrix(1,0,0,1,1092.8860869861296,341.8183874063672) translate(145.66775173611111 39.995659722222214)"/><use xlink:href="#u" transform="matrix(1,0,0,1,1092.8860869861296,341.8183874063672) translate(172.33875868055554 39.995659722222214)"/><use xlink:href="#u" transform="matrix(1,0,0,1,1092.8860869861296,341.8183874063672) translate(199.009765625 39.995659722222214)"/><use xlink:href="#C" transform="matrix(1,0,0,1,1092.8860869861296,341.8183874063672) translate(225.6807725694444 39.995659722222214)"/></g><path d="M1415 799.52c0-3.3 2.68-6 6-6h272.24c3.3 0 6 2.7 6 6v57.14c0 3.32-2.7 6-6 6H1421c-3.32 0-6-2.68-6-6z" stroke="#000" stroke-opacity="0" stroke-width="3" fill="#fff" fill-opacity="0"/><g><use xlink:href="#s" transform="matrix(1,0,0,1,1419.9961665373237,798.5206925569694) translate(17.480468750000043 25.273437499999996)"/><use xlink:href="#o" transform="matrix(1,0,0,1,1419.9961665373237,798.5206925569694) translate(44.151475694444485 25.273437499999996)"/><use xlink:href="#p" transform="matrix(1,0,0,1,1419.9961665373237,798.5206925569694) translate(70.82248263888891 25.273437499999996)"/><use xlink:href="#q" transform="matrix(1,0,0,1,1419.9961665373237,798.5206925569694) translate(190.84201388888886 25.273437499999996)"/><use xlink:href="#v" transform="matrix(1,0,0,1,1419.9961665373237,798.5206925569694) translate(217.51302083333331 25.273437499999996)"/><use xlink:href="#r" transform="matrix(1,0,0,1,1419.9961665373237,798.5206925569694) translate(244.18402777777771 25.273437499999996)"/><use xlink:href="#n" transform="matrix(1,0,0,1,1419.9961665373237,798.5206925569694) translate(37.48372395833336 47.495659722222214)"/><use xlink:href="#t" transform="matrix(1,0,0,1,1419.9961665373237,798.5206925569694) translate(64.1547309027778 47.495659722222214)"/><use xlink:href="#u" transform="matrix(1,0,0,1,1419.9961665373237,798.5206925569694) translate(90.82573784722223 47.495659722222214)"/><use xlink:href="#u" transform="matrix(1,0,0,1,1419.9961665373237,798.5206925569694) translate(117.49674479166667 47.495659722222214)"/><use xlink:href="#u" transform="matrix(1,0,0,1,1419.9961665373237,798.5206925569694) translate(144.16775173611111 47.495659722222214)"/><use xlink:href="#u" transform="matrix(1,0,0,1,1419.9961665373237,798.5206925569694) translate(170.83875868055554 47.495659722222214)"/><use xlink:href="#v" transform="matrix(1,0,0,1,1419.9961665373237,798.5206925569694) translate(197.509765625 47.495659722222214)"/><use xlink:href="#C" transform="matrix(1,0,0,1,1419.9961665373237,798.5206925569694) translate(224.1807725694444 47.495659722222214)"/></g><path d="M540 374.7c0-3.3 2.7-6 6-6h291.5c3.3 0 6 2.7 6 6v50.14c0 3.3-2.7 6-6 6H546c-3.3 0-6-2.7-6-6z" stroke="#000" stroke-opacity="0" stroke-width="3" fill="#fff" fill-opacity="0"/><g><use xlink:href="#n" transform="matrix(1,0,0,1,545,373.7058157572304) translate(26.980468750000043 17.773437499999996)"/><use xlink:href="#o" transform="matrix(1,0,0,1,545,373.7058157572304) translate(53.651475694444485 17.773437499999996)"/><use xlink:href="#p" transform="matrix(1,0,0,1,545,373.7058157572304) translate(80.32248263888891 17.773437499999996)"/><use xlink:href="#q" transform="matrix(1,0,0,1,545,373.7058157572304) translate(200.34201388888886 17.773437499999996)"/><use xlink:href="#q" transform="matrix(1,0,0,1,545,373.7058157572304) translate(227.01302083333331 17.773437499999996)"/><use xlink:href="#r" transform="matrix(1,0,0,1,545,373.7058157572304) translate(253.68402777777771 17.773437499999996)"/><use xlink:href="#s" transform="matrix(1,0,0,1,545,373.7058157572304) translate(46.98372395833336 39.995659722222214)"/><use xlink:href="#t" transform="matrix(1,0,0,1,545,373.7058157572304) translate(73.6547309027778 39.995659722222214)"/><use xlink:href="#u" transform="matrix(1,0,0,1,545,373.7058157572304) translate(100.32573784722223 39.995659722222214)"/><use xlink:href="#u" transform="matrix(1,0,0,1,545,373.7058157572304) translate(126.99674479166667 39.995659722222214)"/><use xlink:href="#v" transform="matrix(1,0,0,1,545,373.7058157572304) translate(153.66775173611111 39.995659722222214)"/><use xlink:href="#u" transform="matrix(1,0,0,1,545,373.7058157572304) translate(180.33875868055554 39.995659722222214)"/><use xlink:href="#q" transform="matrix(1,0,0,1,545,373.7058157572304) translate(207.009765625 39.995659722222214)"/><use xlink:href="#w" transform="matrix(1,0,0,1,545,373.7058157572304) translate(233.6807725694444 39.995659722222214)"/></g><path d="M885.54 94.55c0-3.32 2.7-6 6-6h288.02c3.32 0 6 2.68 6 6v51.86c0 3.33-2.68 6-6 6H891.54c-3.3 0-6-2.67-6-6z" stroke="#000" stroke-opacity="0" stroke-width="3" fill="#fff" fill-opacity="0"/><g><use xlink:href="#n" transform="matrix(1,0,0,1,890.5403113089391,93.54837874736215) translate(25.480468750000043 21.148437499999996)"/><use xlink:href="#o" transform="matrix(1,0,0,1,890.5403113089391,93.54837874736215) translate(52.151475694444485 21.148437499999996)"/><use xlink:href="#p" transform="matrix(1,0,0,1,890.5403113089391,93.54837874736215) translate(78.82248263888891 21.148437499999996)"/><use xlink:href="#q" transform="matrix(1,0,0,1,890.5403113089391,93.54837874736215) translate(198.84201388888886 21.148437499999996)"/><use xlink:href="#q" transform="matrix(1,0,0,1,890.5403113089391,93.54837874736215) translate(225.51302083333331 21.148437499999996)"/><use xlink:href="#r" transform="matrix(1,0,0,1,890.5403113089391,93.54837874736215) translate(252.18402777777771 21.148437499999996)"/><use xlink:href="#s" transform="matrix(1,0,0,1,890.5403113089391,93.54837874736215) translate(45.48372395833336 43.370659722222214)"/><use xlink:href="#t" transform="matrix(1,0,0,1,890.5403113089391,93.54837874736215) translate(72.1547309027778 43.370659722222214)"/><use xlink:href="#u" transform="matrix(1,0,0,1,890.5403113089391,93.54837874736215) translate(98.82573784722223 43.370659722222214)"/><use xlink:href="#u" transform="matrix(1,0,0,1,890.5403113089391,93.54837874736215) translate(125.49674479166667 43.370659722222214)"/><use xlink:href="#v" transform="matrix(1,0,0,1,890.5403113089391,93.54837874736215) translate(152.16775173611111 43.370659722222214)"/><use xlink:href="#u" transform="matrix(1,0,0,1,890.5403113089391,93.54837874736215) translate(178.83875868055554 43.370659722222214)"/><use xlink:href="#q" transform="matrix(1,0,0,1,890.5403113089391,93.54837874736215) translate(205.509765625 43.370659722222214)"/><use xlink:href="#w" transform="matrix(1,0,0,1,890.5403113089391,93.54837874736215) translate(232.1807725694444 43.370659722222214)"/></g><path d="M1552.37 524.7c0-3.32 2.68-6 6-6h274.94c3.32 0 6 2.68 6 6v64.53c0 3.3-2.68 6-6 6h-274.93c-3.32 0-6-2.7-6-6z" stroke="#000" stroke-opacity="0" stroke-width="3" fill="#fff" fill-opacity="0"/><g><use xlink:href="#f" transform="matrix(1,0,0,1,1557.3653393762258,523.6934004264094) translate(18.48046874999997 28.2421875)"/><use xlink:href="#D" transform="matrix(1,0,0,1,1557.3653393762258,523.6934004264094) translate(45.151475694444414 28.2421875)"/><use xlink:href="#h" transform="matrix(1,0,0,1,1557.3653393762258,523.6934004264094) translate(71.82248263888886 28.2421875)"/><use xlink:href="#j" transform="matrix(1,0,0,1,1557.3653393762258,523.6934004264094) translate(191.84201388888889 28.2421875)"/><use xlink:href="#j" transform="matrix(1,0,0,1,1557.3653393762258,523.6934004264094) translate(218.51302083333334 28.2421875)"/><use xlink:href="#k" transform="matrix(1,0,0,1,1557.3653393762258,523.6934004264094) translate(245.1840277777778 28.2421875)"/><use xlink:href="#E" transform="matrix(1,0,0,1,1557.3653393762258,523.6934004264094) translate(38.483723958333314 50.46440972222222)"/><use xlink:href="#F" transform="matrix(1,0,0,1,1557.3653393762258,523.6934004264094) translate(65.15473090277776 50.46440972222222)"/><use xlink:href="#l" transform="matrix(1,0,0,1,1557.3653393762258,523.6934004264094) translate(91.8257378472222 50.46440972222222)"/><use xlink:href="#l" transform="matrix(1,0,0,1,1557.3653393762258,523.6934004264094) translate(118.49674479166664 50.46440972222222)"/><use xlink:href="#l" transform="matrix(1,0,0,1,1557.3653393762258,523.6934004264094) translate(145.1677517361111 50.46440972222222)"/><use xlink:href="#l" transform="matrix(1,0,0,1,1557.3653393762258,523.6934004264094) translate(171.83875868055554 50.46440972222222)"/><use xlink:href="#j" transform="matrix(1,0,0,1,1557.3653393762258,523.6934004264094) translate(198.509765625 50.46440972222222)"/><use xlink:href="#G" transform="matrix(1,0,0,1,1557.3653393762258,523.6934004264094) translate(225.18077256944446 50.46440972222222)"/></g><path d="M406.28 1199.67c0-3.32 2.68-6 6-6h280.68c3.3 0 6 2.68 6 6v61.45c0 3.3-2.7 6-6 6H412.28c-3.32 0-6-2.7-6-6z" stroke="#000" stroke-opacity="0" stroke-width="3" fill="#fff" fill-opacity="0"/><g><use xlink:href="#f" transform="matrix(1,0,0,1,411.275308653912,1198.6671968191627) translate(21.48046874999997 25.7734375)"/><use xlink:href="#D" transform="matrix(1,0,0,1,411.275308653912,1198.6671968191627) translate(48.151475694444414 25.7734375)"/><use xlink:href="#h" transform="matrix(1,0,0,1,411.275308653912,1198.6671968191627) translate(74.82248263888886 25.7734375)"/><use xlink:href="#j" transform="matrix(1,0,0,1,411.275308653912,1198.6671968191627) translate(194.84201388888889 25.7734375)"/><use xlink:href="#j" transform="matrix(1,0,0,1,411.275308653912,1198.6671968191627) translate(221.51302083333334 25.7734375)"/><use xlink:href="#k" transform="matrix(1,0,0,1,411.275308653912,1198.6671968191627) translate(248.1840277777778 25.7734375)"/><use xlink:href="#f" transform="matrix(1,0,0,1,411.275308653912,1198.6671968191627) translate(41.483723958333314 47.99565972222222)"/><use xlink:href="#g" transform="matrix(1,0,0,1,411.275308653912,1198.6671968191627) translate(68.15473090277776 47.99565972222222)"/><use xlink:href="#l" transform="matrix(1,0,0,1,411.275308653912,1198.6671968191627) translate(94.8257378472222 47.99565972222222)"/><use xlink:href="#l" transform="matrix(1,0,0,1,411.275308653912,1198.6671968191627) translate(121.49674479166664 47.99565972222222)"/><use xlink:href="#l" transform="matrix(1,0,0,1,411.275308653912,1198.6671968191627) translate(148.1677517361111 47.99565972222222)"/><use xlink:href="#l" transform="matrix(1,0,0,1,411.275308653912,1198.6671968191627) translate(174.83875868055554 47.99565972222222)"/><use xlink:href="#j" transform="matrix(1,0,0,1,411.275308653912,1198.6671968191627) translate(201.509765625 47.99565972222222)"/><use xlink:href="#G" transform="matrix(1,0,0,1,411.275308653912,1198.6671968191627) translate(228.18077256944446 47.99565972222222)"/></g><path d="M1011.8 377.88l6.04-.35 10.83-.16 15.72.42 22.42 1.52 30.26 3.35 36.93 5.63 39.88 7.8 38.6 9.22 34.65 9.82 29.74 9.8 24.97 9.4 20.78 8.82 17.3 8.2 14.42 7.62 12.1 7.05 10.2 6.53 8.65 6.07 7.4 5.66 4.78 3.98" stroke="#000" stroke-width="3" fill="none"/><path d="M1011.93 379.37l-1.68.1.05-1.5-.04-1.5 1.5-.1"/><path d="M1408.85 499.18l-13.5-6.52 6.4-6.7z" stroke="#000" stroke-width="3"/><path d="M1356.25 934.48l.52-.17 1.96-.7 1.97-.8 2-.93 2-1.04 2.05-1.17 2.1-1.3 2.12-1.47 2.2-1.65 2.25-1.84 2.33-2.06 2.4-2.34 2.52-2.64 2.6-3 2.75-3.4 2.86-3.9 3.02-4.48 3.2-5.2 3.36-6.05 3.58-7.1 3.8-8.4 4.03-10 4.27-12.06 4.52-14.66 4.73-18 4.87-22.33 4.9-28.02 4.68-35.48 4.05-45.32 2.23-46.9" stroke="#000" stroke-width="3" fill="none"/><path d="M1356.74 935.9l-1.98.63.06-1.6-.05-1.55 1.06-.34"/><path d="M1446.7 626.3l4.1 14.43-9.25-.34z" stroke="#000" stroke-width="3"/><path d="M516.36 760.88l30.5-12.1 32.16-14.36 31.8-15.82 30.9-17.03 29.57-17.94L699.26 665l26.2-19.05 24.33-19.32 22.47-19.43 20.66-19.42 18.9-19.34 17.28-19.2 15.73-19.05 14.3-18.87 12.95-18.66 11.7-18.5 10.57-18.32 3.94-7.53" stroke="#000" stroke-width="3" fill="none"/><path d="M516.94 762.26l-1.07.43-.3-.48-1.57-2.02 1.84-.72"/><path d="M905.4 434.25l-2.3 14.82-8.27-4.18z" stroke="#000" stroke-width="3"/><path d="M1211.25 905.52l-.5-.34-19.12-11.56-20.7-11.36-22.47-11.14-24.48-10.88-26.75-10.58-29.3-10.18-32.2-9.7-35.4-9.07-39-8.25-42.92-7.23-47.02-5.92-51.1-4.26-54.57-2.26-56.42.02-55.08 2.32-48.66 4.07-37 4.63-23.65 3.96-13.4 2.8-3.82.96" stroke="#000" stroke-width="3" fill="none"/><path d="M1224.38 914.24l-14.45-4.03 5.13-7.7z" stroke="#000" stroke-width="3"/><path d="M528.08 813l-2.18.55.65-3.25.8-.2"/><path d="M1225.7 948.15l-15.84 2.48-23.1 2.63-31.13 2.22-41.9 1.25-55-.67-68.2-3.67-76.73-7.35-76.9-10.58-69.38-12.5-58.15-13-46.8-12.55-37.08-11.62-29.3-10.55-23.25-9.5-18.62-8.52-15.06-7.67-4.92-2.77" stroke="#000" stroke-width="3" fill="none"/><path d="M1227.4 949.16l.07.23-1.58.23-.48-2.96 1.5-.23"/><path d="M520.82 837.7l14.63 3.34-4.76 7.96z" stroke="#000" stroke-width="3"/><path d="M882.6 396.9l-22.97 5.43-23.15 6.5-22 7.2-21 7.85-20.05 8.48-19.22 9.1-18.45 9.7-17.77 10.3-17.13 10.9-16.53 11.55-16 12.2-15.45 12.84-14.97 13.53-14.5 14.25-14 15-13.56 15.75-13.06 16.55-12.55 17.35-12 18.15-11.4 18.92-10.76 19.65-10 20.26-9.23 20.8-8.54 21.72-2.7 7.63" stroke="#000" stroke-width="3" fill="none"/><path d="M884.2 397.1l.32.88-1.62.38-.7-2.92 1.47-.34"/><path d="M500.3 741.27l1.18-14.96 8.56 3.56z" stroke="#000" stroke-width="3"/><path d="M1263.56 1015.22l-.63 1.44-1.8 6.15-.75 4.88-.1 4.03.35 3.44.72 3 1.03 2.73 1.33 2.5 1.68 2.33 2.05 2.2 2.53 2.1 3.1 1.95 3.83 1.78 4.66 1.47 5.6 1 6.33.3 6.67-.52 6.4-1.34 5.62-1.96 4.64-2.33 3.7-2.5 2.9-2.53 2.23-2.56 1.73-2.56 1.3-2.6.9-2.66.6-2.8.22-2.97-.18-3.27-.68-3.7-1.4-4.27-2.43-5.16-4.16-6.48-7.2-8.54-1.1-1.12" stroke="#000" stroke-width="3" fill="none"/><path d="M1271.06 1001.4l-2.73 14.75-8.15-4.42z" stroke="#000" stroke-width="3"/><path d="M1314.37 995.6l-2.14 2.1-1.57-1.58 3.12-1.1"/><path d="M985.26 325.07l1.48-2.2 1.82-3.15 1.43-2.88 1.1-2.66.84-2.47.64-2.3.45-2.2.28-2.1.16-2v-1.95l-.1-1.88-.23-1.83-.34-1.8-.47-1.78-.58-1.76-.7-1.76-.84-1.75-.98-1.77-1.15-1.76-1.33-1.78-1.52-1.8-1.75-1.8-2-1.8-2.25-1.8-2.56-1.76-2.86-1.7-3.17-1.65-3.47-1.52-3.74-1.35-3.95-1.14-4.08-.92-4.15-.63-4.1-.36-3.96-.1-3.8.16-3.55.38-3.3.57-3.08.74-2.8.88-2.6.98-2.35 1.1-2.16 1.15-1.98 1.24-1.8 1.3-1.68 1.38-1.53 1.43-1.4 1.52-1.3 1.58-1.2 1.66-1.08 1.74-1 1.85-.9 1.95-.8 2.1-.68 2.23-.57 2.42-.45 2.63-.3 2.88-.12 3.18.1 3.54.05.65" stroke="#000" stroke-width="3" fill="none"/><path d="M986.52 325.88l-.92 1.38-1.57-1.25-.83-.55.83-1.24"/><path d="M906.2 321.6l-7.5-13 9.07-1.92z" stroke="#000" stroke-width="3"/><path d="M1508.94 579.28l11.84 6.84 9.17 3.95 6.8 2.02 5.25.9 4.25.24 3.55-.2 3.05-.56 2.68-.8 2.4-1.06 2.2-1.3 2.06-1.53 1.92-1.85 1.82-2.2 1.7-2.62 1.6-3.2 1.4-3.9 1.1-4.76.63-5.75-.03-6.7-.9-7.35-1.77-7.36-2.45-6.67-2.84-5.6-2.95-4.48-2.9-3.44-2.8-2.62-2.67-1.98-2.57-1.47-2.5-1.07-2.48-.73-2.48-.43-2.54-.14-2.65.17-2.82.5-3.08.94-3.45 1.5-3.96 2.33-2.53 1.9" stroke="#000" stroke-width="3" fill="none"/><path d="M1509.73 578l-1.5 2.6-1.12-.64 1.07-2.85"/><path d="M1511.07 532.07l6.62-13.46 6.64 6.47z" stroke="#000" stroke-width="3"/><path d="M424.74 853.26l-12.6 10.67L397.97 877l-14 14.02-13.33 14.53-12.38 14.67-11.28 14.57-10.14 14.28L327.8 963l-7.96 13.5-7 13.05-6.07 12.6-5.27 12.2-4.5 11.78-3.84 11.42-3.2 11.07-2.64 10.76-2.1 10.5-1.62 10.23-1.15 10.04-.72 9.85-.3 9.68.1 8.26" stroke="#000" stroke-width="3" fill="none"/><path d="M424.75 851.5l2.43 1.66-1.5 1.27-1.94-2.3.87-.73"/><path d="M282.65 1133.66l-5.64-13.9 9.26-.66z" stroke="#000" stroke-width="3"/><path d="M346.6 1220l18.94 16.66 12.12 6 8.6 1.73 6.9-.44 6.04-2 5.65-3.7 5.35-5.96 4.55-8.82 2.5-11.07-.3-10.62-2.37-8.16-3.44-5.73-4.1-4-4.87-2.74-6.08-1.57-8.4.06-13.25 3.64-9.43 5.55" stroke="#000" stroke-width="3" fill="none"/><path d="M347.6 1218.9l-1.98 2.24-.62-.55.67-2.34.18-.9"/><path d="M351.53 1196.98l9.82-11.33 4.8 7.94z" stroke="#000" stroke-width="3"/><path d="M317.13 1146.66l10.3-7.92 11-9.22 10.6-9.64 10.14-10.06 9.76-10.52 9.38-11 9-11.5 8.65-12.05 8.27-12.6 7.9-13.22 7.48-13.82 7.06-14.45 6.62-15.1 6.1-15.7 5.56-16.28 4.94-16.7 4.24-16.94 3.46-16.77 2.6-16 1.52-12.54" stroke="#000" stroke-width="3" fill="none"/><path d="M318.07 1147.82l-.75.58-.35-.24-2.45-1.4 1.72-1.3"/><path d="M462.67 868.9l3.75 14.52-9.25-.57z" stroke="#000" stroke-width="3"/><path d="M411.22 759.22l-4.54-21.86-5.22-13.3-5-8.33-4.8-5.56-4.63-3.86-4.64-2.68-4.8-1.8-5.1-.98-5.64-.13-6.4.93-7.4 2.38-8.5 4.4-9.2 6.9-8.7 9.12-6.8 9.96-4.27 9.27-2.16 7.9-.66 6.6.38 5.5 1.15 4.78 1.8 4.24 2.5 3.9 3.35 3.66 4.5 3.54 6.3 3.4 9.28 3.2 14.8 2.4 21.78-.17" stroke="#000" stroke-width="3" fill="none"/><path d="M412.74 759.18l-1.73 2.16-.66 1-.6-2.85 2.94-.62"/><path d="M394.28 791.16l-13.78 5.92-.85-9.23z" stroke="#000" stroke-width="3"/><path d="M519.66 799.56c0 31.3-25.38 56.7-56.7 56.7-31.3 0-56.68-25.4-56.68-56.7 0-31.3 25.38-56.7 56.7-56.7 31.3 0 56.68 25.4 56.68 56.7z" stroke="#000" stroke-width="3" fill="#fff"/><g><use xlink:href="#H" transform="matrix(1,0,0,1,411.275308653912,747.86584936014) translate(7.629629629629633 57.08333333333333)"/></g><path d="M1470.2 495.27l1.84-10.35 1.5-11.3 1-10.86.5-10.45.1-10.07-.35-9.77-.74-9.5-1.1-9.24-1.46-9.03-1.8-8.86-2.18-8.7-2.52-8.55-2.87-8.46-3.24-8.36-3.63-8.3-4.02-8.24-4.44-8.2-4.87-8.2-5.37-8.2-5.87-8.2-6.44-8.24-7.04-8.27-7.7-8.3-8.42-8.38-9.22-8.42-10.1-8.48-11.1-8.53-12.14-8.57-13.34-8.6-14.66-8.6-16.1-8.55-17.65-8.46-19.38-8.3-21.2-8.06-23.16-7.7-25.18-7.22-27.23-6.58-29.25-5.8-31.16-4.82-32.86-3.7-34.26-2.38-35.28-1-35.84.5-35.93 2-35.54 3.48-34.73 4.87-33.54 6.14-32.1 7.28-30.42 8.26-28.67 9.1-26.85 9.75-25.06 10.32-23.3 10.76-21.62 11.1-20.03 11.37-18.54 11.57-17.15 11.74-15.86 11.88-14.68 11.96-13.6 12.05-12.56 12.12-11.63 12.2-10.76 12.3-9.94 12.36-9.2 12.47-8.5 12.6-7.82 12.7-7.2 12.88-6.6 13.06-6.02 13.25-5.46 13.5-4.9 13.77-4.36 14.1-3.82 14.42-3.26 14.84-2.7 15.28-2.1 15.8-1.5 16.35-.83 17-.14 17.73.65 18.54 1.5 19.45 2.45 20.48 3.5 21.65 4.72 22.98 5.97 23.93" stroke="#000" stroke-width="3" fill="none"/><path d="M1471.7 495.5l-.33 1.8-2.86-1.07.24-1.26"/><path d="M458.2 730.5l-8.4-12.42 8.9-2.56z" stroke="#000" stroke-width="3"/><defs><path d="M240-174c0 40-23 61-54 70L253 0h-59l-57-94H76V0H24v-248c93 4 217-23 216 74zM76-134c48-2 112 12 112-38 0-48-66-32-112-35v73" id="I"/><path d="M24 0v-248h195v40H76v63h132v40H76v65h150V0H24" id="J"/><path d="M169-182c-1-43-94-46-97-3 18 66 151 10 154 114 3 95-165 93-204 36-6-8-10-19-12-30l50-8c3 46 112 56 116 5-17-69-150-10-154-114-4-87 153-88 188-35 5 8 8 18 10 28" id="K"/><path d="M136-208V0H84v-208H4v-40h212v40h-80" id="L"/><g id="a"><use transform="matrix(0.055555555555555546,0,0,0.055555555555555546,0,0)" xlink:href="#I"/><use transform="matrix(0.055555555555555546,0,0,0.055555555555555546,14.388888888888886,0)" xlink:href="#J"/><use transform="matrix(0.055555555555555546,0,0,0.055555555555555546,27.722222222222214,0)" xlink:href="#K"/><use transform="matrix(0.055555555555555546,0,0,0.055555555555555546,41.05555555555554,0)" xlink:href="#J"/><use transform="matrix(0.055555555555555546,0,0,0.055555555555555546,54.38888888888887,0)" xlink:href="#L"/></g><path d="M182-130c37 4 62 22 62 59C244 23 116-4 24 0v-248c84 5 203-23 205 63 0 31-19 50-47 55zM76-148c40-3 101 13 101-30 0-44-60-28-101-31v61zm0 110c48-3 116 14 116-37 0-48-69-32-116-35v72" id="M"/><path d="M199 0l-22-63H83L61 0H9l90-248h61L250 0h-51zm-33-102l-36-108c-10 38-24 72-36 108h72" id="N"/><path d="M24 0v-248h52V0H24" id="O"/><path d="M67-125c0 53 21 87 73 88 37 1 54-22 65-47l45 17C233-25 199 4 140 4 58 4 20-42 15-125 8-235 124-281 211-232c18 10 29 29 36 50l-46 12c-8-25-30-41-62-41-52 0-71 34-72 86" id="P"/><path d="M140-251c80 0 125 45 125 126S219 4 139 4C58 4 15-44 15-125s44-126 125-126zm-1 214c52 0 73-35 73-88 0-50-21-86-72-86-52 0-73 35-73 86s22 88 72 88" id="Q"/><g id="b"><use transform="matrix(0.06790123456790122,0,0,0.06790123456790122,0,0)" xlink:href="#M"/><use transform="matrix(0.06790123456790122,0,0,0.06790123456790122,17.586419753086414,0)" xlink:href="#N"/><use transform="matrix(0.06790123456790122,0,0,0.06790123456790122,35.17283950617283,0)" xlink:href="#K"/><use transform="matrix(0.06790123456790122,0,0,0.06790123456790122,51.46913580246911,0)" xlink:href="#O"/><use transform="matrix(0.06790123456790122,0,0,0.06790123456790122,58.25925925925924,0)" xlink:href="#P"/><use transform="matrix(0.06790123456790122,0,0,0.06790123456790122,75.84567901234566,0)" xlink:href="#Q"/></g><path d="M24-248c120-7 223 5 221 122C244-46 201 0 124 0H24v-248zM76-40c74 7 117-18 117-86 0-67-45-88-117-82v168" id="R"/><g id="c"><use transform="matrix(0.06790123456790122,0,0,0.06790123456790122,0,0)" xlink:href="#N"/><use transform="matrix(0.06790123456790122,0,0,0.06790123456790122,17.586419753086414,0)" xlink:href="#P"/><use transform="matrix(0.06790123456790122,0,0,0.06790123456790122,35.17283950617283,0)" xlink:href="#O"/><use transform="matrix(0.06790123456790122,0,0,0.06790123456790122,41.96296296296295,0)" xlink:href="#R"/><use transform="matrix(0.06790123456790122,0,0,0.06790123456790122,59.549382716049365,0)" xlink:href="#Q"/></g><path d="M175 0L67-191c6 58 2 128 3 191H24v-248h59L193-55c-6-58-2-129-3-193h46V0h-61" id="S"/><path d="M238-95c0 69-44 99-111 99C63 4 22-25 22-93v-155h51v151c-1 38 19 59 55 60 90 1 49-130 58-211h52v153" id="T"/><g id="d"><use transform="matrix(0.06790123456790122,0,0,0.06790123456790122,0,0)" xlink:href="#S"/><use transform="matrix(0.06790123456790122,0,0,0.06790123456790122,17.586419753086414,0)" xlink:href="#J"/><use transform="matrix(0.06790123456790122,0,0,0.06790123456790122,33.88271604938271,0)" xlink:href="#T"/><use transform="matrix(0.06790123456790122,0,0,0.06790123456790122,51.469135802469125,0)" xlink:href="#L"/><use transform="matrix(0.06790123456790122,0,0,0.06790123456790122,66.33950617283949,0)" xlink:href="#I"/><use transform="matrix(0.06790123456790122,0,0,0.06790123456790122,83.92592592592591,0)" xlink:href="#Q"/></g><g id="e"><use transform="matrix(0.06790123456790122,0,0,0.06790123456790122,0,0)" xlink:href="#J"/><use transform="matrix(0.06790123456790122,0,0,0.06790123456790122,16.29629629629629,0)" xlink:href="#I"/><use transform="matrix(0.06790123456790122,0,0,0.06790123456790122,33.88271604938271,0)" xlink:href="#I"/><use transform="matrix(0.06790123456790122,0,0,0.06790123456790122,51.469135802469125,0)" xlink:href="#Q"/><use transform="matrix(0.06790123456790122,0,0,0.06790123456790122,70.48148148148147,0)" xlink:href="#I"/><use transform="matrix(0.06790123456790122,0,0,0.06790123456790122,88.06790123456788,0)" xlink:href="#J"/></g><path d="M127-675c0-405 101-695 492-695 382 0 482 297 482 695 0 324-79 561-295 658-59 27-124 37-195 37-378 0-484-300-484-695zm580 451c143-96 121-451 101-680-12-138-46-246-191-246-149 0-184 107-199 248-19 180-21 469 36 598 29 67 72 101 159 103 37 0 69-6 94-23" id="U"/><use transform="matrix(0.010850694444444444,0,0,0.010850694444444444,0,0)" xlink:href="#U" id="f"/><path d="M138-1120c207-4 339-93 415-229h266v1140h323V0H149v-209h389v-891c-70 121-216 187-400 194v-214" id="V"/><use transform="matrix(0.010850694444444444,0,0,0.010850694444444444,0,0)" xlink:href="#V" id="g"/><path d="M324-409v-244h580v244H324" id="W"/><g id="h"><use transform="matrix(0.010850694444444444,0,0,0.010850694444444444,0,0)" xlink:href="#W"/><use transform="matrix(0.010850694444444444,0,0,0.010850694444444444,13.335503472222221,0)" xlink:href="#W"/><use transform="matrix(0.010850694444444444,0,0,0.010850694444444444,26.671006944444443,0)" xlink:href="#W"/><use transform="matrix(0.010850694444444444,0,0,0.010850694444444444,40.006510416666664,0)" xlink:href="#W"/><use transform="matrix(0.010850694444444444,0,0,0.010850694444444444,53.342013888888886,0)" xlink:href="#W"/><use transform="matrix(0.010850694444444444,0,0,0.010850694444444444,66.67751736111111,0)" xlink:href="#W"/><use transform="matrix(0.010850694444444444,0,0,0.010850694444444444,80.01302083333334,0)" xlink:href="#W"/><use transform="matrix(0.010850694444444444,0,0,0.010850694444444444,93.34852430555557,0)" xlink:href="#W"/></g><use transform="matrix(0.010850694444444444,0,0,0.010850694444444444,0,0)" xlink:href="#V" id="i"/><use transform="matrix(0.010850694444444444,0,0,0.010850694444444444,0,0)" xlink:href="#W" id="j"/><path d="M89 20l821-1504h228L321 20H89" id="X"/><use transform="matrix(0.010850694444444444,0,0,0.010850694444444444,0,0)" xlink:href="#X" id="k"/><use transform="matrix(0.010850694444444444,0,0,0.010850694444444444,0,0)" xlink:href="#U" id="l"/><use transform="matrix(0.010850694444444444,0,0,0.010850694444444444,0,0)" xlink:href="#U" id="m"/><use transform="matrix(0.010850694444444442,0,0,0.010850694444444442,0,0)" xlink:href="#V" id="n"/><use transform="matrix(0.010850694444444442,0,0,0.010850694444444442,0,0)" xlink:href="#W" id="o"/><g id="p"><use transform="matrix(0.010850694444444442,0,0,0.010850694444444442,0,0)" xlink:href="#W"/><use transform="matrix(0.010850694444444442,0,0,0.010850694444444442,13.33550347222222,0)" xlink:href="#W"/><use transform="matrix(0.010850694444444442,0,0,0.010850694444444442,26.67100694444444,0)" xlink:href="#W"/><use transform="matrix(0.010850694444444442,0,0,0.010850694444444442,40.00651041666666,0)" xlink:href="#W"/><use transform="matrix(0.010850694444444442,0,0,0.010850694444444442,53.34201388888888,0)" xlink:href="#W"/><use transform="matrix(0.010850694444444442,0,0,0.010850694444444442,66.6775173611111,0)" xlink:href="#W"/><use transform="matrix(0.010850694444444442,0,0,0.010850694444444442,80.01302083333331,0)" xlink:href="#W"/><use transform="matrix(0.010850694444444442,0,0,0.010850694444444442,93.34852430555554,0)" xlink:href="#W"/></g><use transform="matrix(0.010850694444444442,0,0,0.010850694444444442,0,0)" xlink:href="#W" id="q"/><use transform="matrix(0.010850694444444442,0,0,0.010850694444444442,0,0)" xlink:href="#X" id="r"/><use transform="matrix(0.010850694444444442,0,0,0.010850694444444442,0,0)" xlink:href="#U" id="s"/><use transform="matrix(0.010850694444444442,0,0,0.010850694444444442,0,0)" xlink:href="#U" id="t"/><use transform="matrix(0.010850694444444442,0,0,0.010850694444444442,0,0)" xlink:href="#U" id="u"/><use transform="matrix(0.010850694444444442,0,0,0.010850694444444442,0,0)" xlink:href="#V" id="v"/><use transform="matrix(0.010850694444444442,0,0,0.010850694444444442,0,0)" xlink:href="#U" id="w"/><use transform="matrix(0.010850694444444442,0,0,0.010850694444444442,0,0)" xlink:href="#V" id="x"/><g id="y"><use transform="matrix(0.010850694444444442,0,0,0.010850694444444442,0,0)" xlink:href="#U"/><use transform="matrix(0.010850694444444442,0,0,0.010850694444444442,13.33550347222222,0)" xlink:href="#W"/><use transform="matrix(0.010850694444444442,0,0,0.010850694444444442,26.67100694444444,0)" xlink:href="#W"/><use transform="matrix(0.010850694444444442,0,0,0.010850694444444442,40.00651041666666,0)" xlink:href="#W"/><use transform="matrix(0.010850694444444442,0,0,0.010850694444444442,53.34201388888888,0)" xlink:href="#W"/><use transform="matrix(0.010850694444444442,0,0,0.010850694444444442,66.6775173611111,0)" xlink:href="#W"/><use transform="matrix(0.010850694444444442,0,0,0.010850694444444442,80.01302083333331,0)" xlink:href="#W"/><use transform="matrix(0.010850694444444442,0,0,0.010850694444444442,93.34852430555554,0)" xlink:href="#W"/></g><use transform="matrix(0.010850694444444442,0,0,0.010850694444444442,0,0)" xlink:href="#U" id="z"/><g id="B"><use transform="matrix(0.010850694444444442,0,0,0.010850694444444442,0,0)" xlink:href="#V"/><use transform="matrix(0.010850694444444442,0,0,0.010850694444444442,13.33550347222222,0)" xlink:href="#W"/><use transform="matrix(0.010850694444444442,0,0,0.010850694444444442,26.67100694444444,0)" xlink:href="#W"/><use transform="matrix(0.010850694444444442,0,0,0.010850694444444442,40.00651041666666,0)" xlink:href="#W"/><use transform="matrix(0.010850694444444442,0,0,0.010850694444444442,53.34201388888888,0)" xlink:href="#W"/><use transform="matrix(0.010850694444444442,0,0,0.010850694444444442,66.6775173611111,0)" xlink:href="#W"/><use transform="matrix(0.010850694444444442,0,0,0.010850694444444442,80.01302083333331,0)" xlink:href="#W"/><use transform="matrix(0.010850694444444442,0,0,0.010850694444444442,93.34852430555554,0)" xlink:href="#W"/></g><use transform="matrix(0.010850694444444442,0,0,0.010850694444444442,0,0)" xlink:href="#V" id="C"/><use transform="matrix(0.010850694444444444,0,0,0.010850694444444444,0,0)" xlink:href="#W" id="D"/><use transform="matrix(0.010850694444444444,0,0,0.010850694444444444,0,0)" xlink:href="#V" id="E"/><use transform="matrix(0.010850694444444444,0,0,0.010850694444444444,0,0)" xlink:href="#U" id="F"/><use transform="matrix(0.010850694444444444,0,0,0.010850694444444444,0,0)" xlink:href="#V" id="G"/><g id="H"><use transform="matrix(0.07407407407407407,0,0,0.07407407407407407,0,0)" xlink:href="#I"/><use transform="matrix(0.07407407407407407,0,0,0.07407407407407407,19.185185185185183,0)" xlink:href="#J"/><use transform="matrix(0.07407407407407407,0,0,0.07407407407407407,36.96296296296296,0)" xlink:href="#K"/><use transform="matrix(0.07407407407407407,0,0,0.07407407407407407,54.74074074074074,0)" xlink:href="#J"/><use transform="matrix(0.07407407407407407,0,0,0.07407407407407407,72.51851851851852,0)" xlink:href="#L"/></g></defs></g></svg>